<svg width="576" height="448" viewBox="0 0 576 448" fill="none" xmlns="http://www.w3.org/2000/svg">
<rect x="51" y="47" width="525" height="353" fill="white"/>
<path d="M48 448C21.49 448 0 426.5 0 400V48C0 21.49 21.49 0 48 0H528C554.5 0 576 21.49 576 48V50.43H500.5L483.5 98L466.6 50.43H369.4V113.6L341.3 50.43H262.7L181 235.1H246.8V398.9H450.5L482.4 363.8L514.3 398.9H576V400C576 426.5 554.5 448 528 448H48ZM482.6 332L440.4 378.3H390.5L458 306.6L390.5 234.1H441.9L483.4 280.8L525.4 234.1H576L508 306.2L576 378.3H524.6L482.6 332ZM576 264.9V348.2L536.7 306.3L576 264.9ZM307.6 345.1H390.6V378.3H268.6V235.1H390.6V268.2H307.6V290.6H388.5V322.9H307.6V345.2V345.1ZM537.3 113.7L500.4 214.3H466L429.2 114V214.3H390.5V71H451.7L483.6 160.3L515.8 71H576V214.3H537.3V113.7ZM334.5 185.6H268.6L256.7 214.3H213.7L276.1 71H327.3L390.6 214.3H346.5L334.5 185.6ZM301.5 106.5L282 153.4H320.9L301.5 106.5Z" fill="#1D8ECE"/>
</svg>
