<svg width="576" height="448" viewBox="0 0 576 448" fill="none" xmlns="http://www.w3.org/2000/svg">
<rect x="16" y="73" width="536" height="165" fill="#0D0D0D"/>
<rect x="105" y="234" width="447" height="199" fill="#E55C20"/>
<ellipse cx="303" cy="183" rx="48" ry="51" fill="#E55C20"/>
<path d="M520.4 164.1C520.4 156.2 514.9 152 504.8 152H499.9V176.9H504.6C514.9 176.9 520.4 172.5 520.4 164.1ZM528 0H48C21.5 0 0 21.5 0 48V400C0 426.5 21.5 448 48 448H528C554.5 448 576 426.5 576 400V48C576 21.5 554.5 0 528 0ZM483.9 138.9C506.5 138.9 536.8 134.8 536.8 163.3C536.8 175.9 530.2 184 518.1 186.5L543.9 220.9H524.3L502.1 188.1H499.9V220.9H483.9V138.9ZM428 139H473.3V153H444V171.2H472.3V185H444V207.2H473.3V221H428V139ZM359.3 139L381.2 194.2L403.4 139H420.9L385.4 223.2H376.8L341.8 139H359.3ZM303.4 136C328.1 136 348 156 348 180.6C348 205.3 328 225.2 303.4 225.2C278.7 225.2 258.8 205.2 258.8 180.6C258.8 155.9 278.8 136 303.4 136ZM254.1 142.1V161.1C234 141 207.3 156.4 207.3 180.1C207.3 205.1 234.8 218.6 254.1 199.3V218.3C224.4 232.6 190.8 212.6 190.8 180.1C190.8 148.9 223.9 127.1 254.1 142.1ZM156.9 208.4C168.3 208.4 179.3 193.1 153.6 184C138.6 178.5 133.4 172.6 133.4 161.3C133.4 138.1 164 129.9 183.1 147L174.7 157.8C164.3 146.2 149.8 151.6 149.8 160.3C149.8 164.7 152.5 167.2 162.1 170.6C180.3 177.2 185.7 183.1 185.7 196.2C185.7 225.7 146.9 233.6 129.1 207.5L139.4 197.6C143.1 204.7 149.3 208.4 156.9 208.4ZM55.4 221H32V139H55.4C81.5 139 99.5 156 99.5 180.1C99.5 198.6 86.3 221 55.4 221ZM122.9 221H106.9V139H122.9V221ZM544 401C544 409.2 537.2 416 529 416H128C317.6 380.4 510.7 276.8 544 256V401ZM74.1 159.6C68.9 154.7 62.5 153 52.2 153H48V207.2H52.2C62.5 207.2 69.2 205.2 74.1 200.8C79.8 195.6 83 188 83 180.1C83 172.2 79.8 164.6 74.1 159.6Z" fill="white"/>
</svg>
