<svg width="576" height="448" viewBox="0 0 576 448" fill="none" xmlns="http://www.w3.org/2000/svg">
<rect x="50" y="343" width="505" height="65" fill="white"/>
<circle cx="203" cy="190" r="141" fill="#EB001B"/>
<circle cx="373" cy="190" r="141" fill="#F79E1B"/>
<path d="M232.053 181.5C233.676 132.888 271.054 73 289.054 73C307.053 73 343.256 131.519 345.054 181.5C346.975 234.913 306.554 298 289.054 298.5C271.554 299 230.313 233.636 232.053 181.5Z" fill="#FF5F00"/>
<path d="M482.9 377.3C482.9 384.1 478.3 389 471.7 389C464.9 389 460.5 383.8 460.5 377.3C460.5 370.8 464.9 365.6 471.7 365.6C478.3 365.6 482.9 370.8 482.9 377.3ZM172.1 365.6C165 365.6 160.9 370.8 160.9 377.3C160.9 383.8 165 389 172.1 389C178.6 389 183 384.1 183 377.3C182.9 370.8 178.6 365.6 172.1 365.6ZM289.6 365.3C284.2 365.3 280.9 368.8 280.1 374H299.2C298.3 368.3 294.8 365.3 289.6 365.3ZM397.4 365.6C390.6 365.6 386.5 370.8 386.5 377.3C386.5 383.8 390.6 389 397.4 389C404.2 389 408.6 384.1 408.6 377.3C408.6 370.8 404.2 365.6 397.4 365.6ZM576 48V400C576 426.5 554.5 448 528 448H48C21.5 448 0 426.5 0 400V48C0 21.5 21.5 0 48 0H528C554.5 0 576 21.5 576 48ZM64 187.6C64 264.1 126.1 326.1 202.5 326.1C229.7 326.1 256.4 317.9 279 303C206.1 243.7 206.6 131.8 279 72.5C256.4 57.5 229.7 49.4 202.5 49.4C126.1 49.3 64 111.4 64 187.6ZM288 296.4C358.5 241.4 358.2 134.2 288 78.9C217.8 134.2 217.5 241.5 288 296.4ZM145.7 372.7C145.7 364 140 358.3 131 358C126.4 358 121.5 359.4 118.2 364.5C115.8 360.4 111.7 358 106 358C102.2 358 98.4 359.4 95.4 363.4V359H87.2V395.7H95.4C95.4 376.8 92.9 365.5 104.4 365.5C114.6 365.5 112.6 375.7 112.6 395.7H120.5C120.5 377.4 118 365.5 129.5 365.5C139.7 365.5 137.7 375.5 137.7 395.7H145.9V372.7H145.7ZM190.6 359H182.7V363.4C180 360.1 176.2 358 171 358C160.7 358 152.8 366.2 152.8 377.3C152.8 388.5 160.7 396.6 171 396.6C176.2 396.6 180 394.7 182.7 391.2V395.8H190.6V359ZM231.1 384.6C231.1 369.6 208.2 376.4 208.2 369.4C208.2 363.7 220.1 364.6 226.7 368.3L230 361.8C220.6 355.7 199.8 355.8 199.8 370C199.8 384.3 222.7 378.3 222.7 385C222.7 391.3 209.2 390.8 202 385.8L198.5 392.1C209.7 399.7 231.1 398.1 231.1 384.6ZM266.5 393.9L264.3 387.1C260.5 389.2 252.1 391.5 252.1 383V366.4H265.2V359H252.1V347.8H243.9V359H236.3V366.3H243.9V383C243.9 400.6 261.2 397.4 266.5 393.9ZM279.8 380.5H307.3C307.3 364.3 299.9 357.9 289.9 357.9C279.3 357.9 271.7 365.8 271.7 377.2C271.7 397.7 294.3 401.1 305.5 391.4L301.7 385.4C293.9 391.8 282.1 391.2 279.8 380.5ZM338.9 359C334.3 357 327.3 357.2 323.7 363.4V359H315.5V395.7H323.7V375C323.7 363.4 333.2 364.9 336.5 366.6L338.9 359ZM349.5 377.3C349.5 365.9 361.1 362.2 370.2 368.9L374 362.4C362.4 353.3 341.3 358.3 341.3 377.4C341.3 397.2 363.7 401.2 374 392.4L370.2 385.9C361 392.4 349.5 388.5 349.5 377.3ZM416.2 359H408V363.4C399.7 352.4 378.1 358.6 378.1 377.3C378.1 396.5 400.5 402 408 391.2V395.8H416.2V359ZM449.9 359C447.5 357.8 438.9 356.1 434.7 363.4V359H426.8V395.7H434.7V375C434.7 364 443.7 364.7 447.5 366.6L449.9 359ZM490.2 344.1H482.3V363.4C474.1 352.5 452.4 358.3 452.4 377.3C452.4 396.7 474.9 401.9 482.3 391.2V395.8H490.2V344.1ZM512 187.6C512 111.4 449.9 49.3 373.5 49.3C346.3 49.3 319.6 57.5 297 72.4C369.1 131.7 370.2 243.9 297 302.9C319.6 317.9 346.5 326 373.5 326C449.9 326.1 512 264.1 512 187.6Z" fill="#231F20"/>
</svg>
