<svg width="576" height="448" viewBox="0 0 576 448" fill="none" xmlns="http://www.w3.org/2000/svg">
<rect x="16" y="87" width="545" height="275" fill="white"/>
<path d="M470.1 199.3C470.1 199.3 477.7 236.5 479.4 244.3H446C449.3 235.4 462 200.8 462 200.8C461.8 201.1 465.3 191.7 467.3 185.9L470.1 199.3ZM576 48V400C576 426.5 554.5 448 528 448H48C21.5 448 0 426.5 0 400V48C0 21.5 21.5 0 48 0H528C554.5 0 576 21.5 576 48ZM152.5 299.2L215.7 144H173.2L133.9 250L129.6 228.5L115.6 157.1C113.3 147.2 106.2 144.4 97.4 144H32.7L32 147.1C47.8 151.1 61.9 156.9 74.2 164.2L110 299.2H152.5ZM246.9 299.4L272.1 144H231.9L206.8 299.4H246.9ZM386.8 248.6C387 230.9 376.2 217.4 353.1 206.3C339 199.2 330.4 194.4 330.4 187.1C330.6 180.5 337.7 173.7 353.5 173.7C366.6 173.4 376.2 176.5 383.4 179.6L387 181.3L392.5 147.7C384.6 144.6 372 141.1 356.5 141.1C316.8 141.1 288.9 162.3 288.7 192.5C288.4 214.8 308.7 227.2 323.9 234.7C339.4 242.3 344.7 247.3 344.7 254C344.5 264.4 332.1 269.2 320.6 269.2C304.6 269.2 296 266.7 282.9 260.9L277.6 258.4L272 293.3C281.4 297.6 298.8 301.4 316.8 301.6C359 301.7 386.5 280.8 386.8 248.6ZM528 299.4L495.6 144H464.5C454.9 144 447.6 146.8 443.5 156.9L383.8 299.4H426C426 299.4 432.9 280.2 434.4 276.1H486C487.2 281.6 490.8 299.4 490.8 299.4H528Z" fill="#192061"/>
</svg>
