<svg width="32" height="22" viewBox="0 0 32 22" fill="none" xmlns="http://www.w3.org/2000/svg">
<path fill-rule="evenodd" clip-rule="evenodd" d="M0 2C0 0.895433 0.895431 0 2 0H29.9718C31.074 0 31.9684 0.891634 31.9718 1.99376L32 11.0274C28 10 16 6 0 10.3598V2Z" fill="#2C328C"/>
<path fill-rule="evenodd" clip-rule="evenodd" d="M0 19.9999C0 21.1044 0.895431 21.9999 2 21.9999H29.9656C31.0702 21.9999 31.9656 21.1044 31.9656 19.9999V14.0805C26.2006 12.1632 15.9527 9.29028 0 13.3604V19.9999Z" fill="#FFF200"/>
<path fill-rule="evenodd" clip-rule="evenodd" d="M31.9656 14.0806C26.2006 12.1633 15.9527 9.29043 0 13.3606V10.3022C15.8631 5.95254 28.1411 9.44786 32 10.9014L31.9656 14.0806Z" fill="#ED1C24"/>
<path fill-rule="evenodd" clip-rule="evenodd" d="M10.1827 8.43727C10.9737 6.2649 12.784 4.38909 15.9294 4.40984C19.0747 4.43059 21.1724 6.21608 21.7386 8.55199C17.6856 8.13338 14.9837 8.06015 10.1827 8.43727Z" fill="#FFF200"/>
<path d="M7.14185 17.9886L9.28255 14.8154H10.071L12.3517 17.9886H11.5166L10.8669 17.0281H8.53336L7.91928 17.9886H7.14185ZM8.74952 16.6864H10.6397L10.0575 15.8089C9.91339 15.5974 9.78176 15.3777 9.66328 15.151C9.58771 15.3656 9.4867 15.5705 9.36238 15.7613L8.74829 16.69L8.74952 16.6864ZM16.1014 17.9886V17.6517C15.7861 17.9113 15.3587 18.041 14.8191 18.041C14.5945 18.0428 14.3705 18.017 14.1522 17.9641C13.9874 17.9306 13.8312 17.8641 13.6929 17.7689C13.5959 17.6952 13.5225 17.5952 13.4817 17.4809C13.4486 17.3617 13.4345 17.2382 13.4399 17.1147V15.6929H14.124V16.9658C14.1165 17.1042 14.1306 17.243 14.1658 17.3771C14.2209 17.4913 14.3194 17.5791 14.4396 17.6212C14.605 17.6837 14.7811 17.7132 14.9579 17.7079C15.1539 17.7094 15.3489 17.6793 15.5352 17.6188C15.6852 17.5794 15.8188 17.494 15.9171 17.3747C16.0009 17.2403 16.0404 17.0833 16.0301 16.9256V15.6929H16.7142V17.9886H16.1014ZM18.3735 17.9886V15.6929H18.9876V16.0407C19.1084 15.904 19.257 15.7942 19.4236 15.7186C19.5635 15.6654 19.7122 15.6389 19.862 15.6404C20.1019 15.6411 20.3399 15.6824 20.5658 15.7625L20.3299 16.1286C20.1689 16.0726 19.9995 16.0437 19.8289 16.0432C19.6903 16.041 19.5527 16.0672 19.4248 16.1201C19.3183 16.1608 19.2287 16.2361 19.1706 16.3336C19.0939 16.4727 19.0545 16.6291 19.0563 16.7876V17.9898L18.3735 17.9886ZM24.2036 17.7054C23.9691 17.8206 23.7218 17.9079 23.4667 17.9654C23.2183 18.0171 22.9651 18.0424 22.7114 18.041C22.268 18.041 21.9278 17.98 21.6883 17.8568C21.4488 17.7335 21.3309 17.576 21.3309 17.3844C21.3315 17.3266 21.3437 17.2695 21.3669 17.2164C21.3902 17.1634 21.4238 17.1155 21.466 17.0757C21.5655 16.9764 21.6859 16.9001 21.8185 16.8523C21.9775 16.7947 22.1422 16.7538 22.3098 16.7303C22.4436 16.7108 22.6463 16.69 22.9165 16.6717C23.3257 16.6509 23.7334 16.6061 24.1373 16.5375C24.1373 16.4838 24.1373 16.4508 24.1373 16.4362C24.1425 16.3675 24.1267 16.2989 24.0921 16.2393C24.0575 16.1796 24.0056 16.1317 23.9432 16.1018C23.697 16.0001 23.4308 15.9551 23.1646 15.97C22.9228 15.9581 22.6808 15.9908 22.451 16.0664C22.2971 16.1313 22.175 16.2535 22.1108 16.4069L21.4427 16.3544C21.5003 16.196 21.6048 16.0586 21.7423 15.9602C21.9255 15.8422 22.1312 15.7633 22.3466 15.7283C22.6485 15.671 22.9555 15.644 23.2628 15.6478C23.5445 15.6424 23.826 15.6657 24.1029 15.7173C24.2712 15.7458 24.4328 15.8049 24.5794 15.8919C24.6758 15.9565 24.75 16.0489 24.7919 16.1567C24.8196 16.2742 24.8308 16.3949 24.8251 16.5155V17.0342C24.8142 17.2637 24.829 17.4938 24.8693 17.7201C24.9036 17.8246 24.963 17.9193 25.0424 17.9959H24.3276C24.257 17.9157 24.2098 17.8177 24.1913 17.7127L24.2036 17.7054ZM24.1459 16.8365C23.7772 16.911 23.4037 16.9603 23.0282 16.9841C22.8277 16.9956 22.6282 17.0213 22.4313 17.061C22.3327 17.0794 22.24 17.1213 22.1612 17.1831C22.1325 17.2049 22.1091 17.2327 22.0926 17.2646C22.076 17.2964 22.0667 17.3315 22.0654 17.3674C22.0654 17.4711 22.1354 17.5577 22.2729 17.6273C22.4645 17.7062 22.6713 17.7417 22.8784 17.731C23.1167 17.735 23.3541 17.7021 23.5821 17.6334C23.7556 17.5872 23.9125 17.4938 24.0353 17.3637C24.117 17.2508 24.1561 17.113 24.1459 16.9744V16.8365Z" fill="#2C328C" stroke="#2C328C" stroke-width="0.22" stroke-miterlimit="22.93"/>
</svg>
