<svg width="32" height="22" viewBox="0 0 32 22" fill="none" xmlns="http://www.w3.org/2000/svg">
<rect width="32" height="22" rx="2" fill="#E1E7EA"/>
<path d="M32 19.9998C32 21.1043 31.1045 21.9998 29.9999 21.9998C29.6444 21.9998 29.2943 21.9998 29 21.9998H9C9 21.9998 27.8857 18.2131 32 9.99976V19.9998ZM14.1904 10.2732C14.1904 11.5199 15.1809 12.4732 16.4762 12.4732C17.7714 12.4732 18.7619 11.5199 18.7619 10.2732C18.7619 9.02658 17.7714 8.07324 16.4762 8.07324C15.1809 8.07324 14.1904 9.02658 14.1904 10.2732Z" fill="#FF6D00"/>
<path d="M5.9619 8.07333H6.8V12.4733H5.9619V8.07333ZM10.5333 10.2733C10.5333 11.52 11.5238 12.4733 12.819 12.4733C13.2 12.4733 13.5048 12.4 13.8857 12.2533V11.3C13.581 11.5933 13.2762 11.74 12.819 11.74C11.981 11.74 11.3714 11.1533 11.3714 10.2733C11.3714 9.46667 11.981 8.80667 12.819 8.80667C13.2 8.80667 13.5048 8.95333 13.8857 9.24667V8.29333C13.5048 8.14667 13.2 8 12.819 8C11.5238 8.07333 10.5333 9.1 10.5333 10.2733ZM20.7429 10.9333L19.5238 8.07333H18.6095L20.5143 12.4733H20.9714L22.8762 8.07333H21.9619L20.7429 10.9333ZM23.2571 12.4733H25.6952V11.74H24.0952V10.5667H25.619V9.83333H24.0952V8.80667H25.6952V8.07333H23.2571V12.4733ZM29.0476 9.39333C29.0476 8.58667 28.5143 8.07333 27.5238 8.07333H26.2286V12.4733H27.0667V10.7133H27.1429L28.3619 12.4733H29.4286L28.0571 10.64C28.6667 10.4933 29.0476 10.0533 29.0476 9.39333ZM27.2952 10.1267H27.0667V8.80667H27.2952C27.8286 8.80667 28.1333 9.02667 28.1333 9.46667C28.1333 9.83333 27.9048 10.1267 27.2952 10.1267ZM3.29524 8.07333H2V12.4733H3.21905C5.12381 12.4733 5.58095 10.9333 5.58095 10.2733C5.65714 8.95333 4.66667 8.07333 3.29524 8.07333ZM3.06667 11.74H2.8381V8.80667H3.14286C4.28571 8.80667 4.74286 9.54 4.74286 10.2733C4.74286 10.5667 4.66667 11.74 3.06667 11.74ZM9.08571 9.76C8.55238 9.54 8.4 9.46667 8.4 9.24667C8.4 8.95333 8.70476 8.80667 9.00952 8.80667C9.2381 8.80667 9.46667 8.88 9.69524 9.17333L10.1524 8.58667C9.77143 8.22 9.39048 8.07333 8.85714 8.07333C8.09524 8.07333 7.48571 8.58667 7.48571 9.32C7.48571 9.90667 7.79048 10.2 8.55238 10.4933C9.00952 10.64 9.39048 10.7867 9.39048 11.1533C9.39048 11.52 9.08571 11.74 8.70476 11.74C8.32381 11.74 7.94286 11.52 7.79048 11.1533L7.25714 11.6667C7.63809 12.2533 8.09524 12.4733 8.78095 12.4733C9.69524 12.4733 10.3048 11.8867 10.3048 11.08C10.3048 10.42 10 10.1267 9.08571 9.76Z" fill="black"/>
</svg>
