<svg width="32" height="22" viewBox="0 0 32 22" fill="none" xmlns="http://www.w3.org/2000/svg">
<rect width="32" height="22" rx="2" fill="white"/>
<rect width="32" height="22" rx="2" fill="#241C24"/>
<path fill-rule="evenodd" clip-rule="evenodd" d="M19.9836 8.35075C19.9682 8.36569 19.885 8.44479 19.7985 8.52654C19.6347 8.68162 19.5311 8.78963 19.4396 8.90068C19.4211 8.92312 19.4008 8.94672 19.3945 8.95306C19.3881 8.95946 19.3512 9.00584 19.3123 9.05628C19.2735 9.10666 19.2358 9.15543 19.2285 9.16468C19.1874 9.217 19.1648 9.25063 19.1648 9.25975C19.1648 9.26537 19.1608 9.27165 19.1561 9.27365C19.1099 9.29273 18.7808 9.86523 18.6893 10.0859C18.6722 10.1272 18.6516 10.1757 18.6436 10.1934C18.5691 10.3591 18.4745 10.6387 18.4247 10.8402C18.3884 10.9875 18.3814 11.0179 18.3681 11.0881C18.3613 11.1237 18.3488 11.1867 18.3402 11.2282C18.3317 11.2698 18.3194 11.3498 18.313 11.4061C18.3066 11.4624 18.2962 11.5524 18.2899 11.6063C18.2752 11.7337 18.2753 12.3629 18.2901 12.4887C18.2965 12.5424 18.3068 12.63 18.3131 12.6834C18.3194 12.7368 18.3321 12.8192 18.3414 12.8666C18.3507 12.9141 18.3635 12.9795 18.3698 13.0121C18.3951 13.1414 18.453 13.3735 18.4803 13.4541C18.4912 13.4867 18.5112 13.5473 18.5245 13.5888C18.6139 13.8671 18.8047 14.2706 18.9957 14.5859C19.0454 14.6679 19.2899 15.015 19.3309 15.0617C19.3432 15.0757 19.3894 15.1308 19.4336 15.1842C19.5711 15.3504 19.9694 15.7436 20.0151 15.7583C20.0272 15.7622 20.0745 15.7153 20.2086 15.5668C20.2541 15.5164 20.2941 15.4727 20.2975 15.4698C20.3008 15.4668 20.3388 15.4256 20.3819 15.3782C20.4251 15.3308 20.4813 15.2702 20.5069 15.2435C20.5325 15.2167 20.5722 15.1732 20.5951 15.1466C20.6181 15.12 20.6452 15.0909 20.6554 15.0819C20.6656 15.0729 20.7041 15.0317 20.741 14.9904C20.7779 14.949 20.8182 14.9046 20.8306 14.8916C20.8429 14.8786 20.8807 14.8374 20.9147 14.7998C20.9486 14.7623 21.0019 14.7049 21.033 14.6722C21.0642 14.6395 21.1197 14.5789 21.1564 14.5374C21.1931 14.4959 21.2308 14.4547 21.2401 14.4458C21.2495 14.4368 21.2924 14.3908 21.3355 14.3434C21.3785 14.2959 21.4176 14.2555 21.4222 14.2536C21.444 14.2442 21.4201 14.2145 21.282 14.0787C21.2003 13.9985 21.1255 13.923 21.1158 13.9112C21.1061 13.8993 21.0717 13.8559 21.0393 13.8147C21.0069 13.7735 20.9744 13.7324 20.9671 13.7235C20.4209 13.0517 20.2643 11.9875 20.5794 11.0881C20.6555 10.871 20.8681 10.4811 20.9855 10.3433C20.9951 10.332 21.0363 10.2815 21.077 10.2312C21.1176 10.1808 21.2142 10.0779 21.2916 10.0026C21.3946 9.90228 21.4298 9.86141 21.4231 9.8499C21.4138 9.83425 21.382 9.79893 21.2857 9.6974C21.2575 9.66758 21.2041 9.60996 21.1671 9.56928C21.1301 9.5286 21.0947 9.48992 21.0885 9.48326C21.0823 9.47666 21.042 9.43243 20.9988 9.38502C20.9556 9.33761 20.9174 9.29635 20.9138 9.29338C20.9103 9.2904 20.8701 9.24675 20.8245 9.19637C20.7789 9.14599 20.7388 9.10233 20.7355 9.09935C20.7321 9.09638 20.6941 9.05518 20.651 9.00778C20.6079 8.96031 20.565 8.91426 20.5557 8.90533C20.5465 8.89647 20.5087 8.85521 20.4719 8.81375C20.435 8.77223 20.3946 8.72845 20.3822 8.71642C20.3697 8.70433 20.3292 8.66074 20.2921 8.61941C20.2551 8.57815 20.2147 8.53423 20.2024 8.52182C20.19 8.50946 20.1547 8.47111 20.1239 8.43657C20.0038 8.30238 20.0221 8.31356 19.9836 8.35075Z" fill="#3BA4E4"/>
<path fill-rule="evenodd" clip-rule="evenodd" d="M22.8104 7.11791C22.6696 7.13648 22.5798 7.15032 22.5076 7.16454C22.4674 7.17243 22.4044 7.18453 22.3674 7.19138C22.3303 7.1983 22.2824 7.20813 22.2608 7.21324C22.2392 7.21835 22.1963 7.22825 22.1655 7.23523C22.0982 7.25043 22.0761 7.25645 21.9263 7.30017C21.8626 7.31879 21.808 7.3402 21.805 7.34783C21.8011 7.35734 22.4478 9.25112 22.4683 9.29038C22.4689 9.29167 22.5045 9.28139 22.5474 9.26755C22.6488 9.2347 22.7585 9.20921 22.8945 9.18677C22.9316 9.18069 22.9972 9.16957 23.0404 9.16207C23.1486 9.14318 23.7302 9.14305 23.8368 9.16187C23.88 9.1695 23.9456 9.18069 23.9826 9.18677C24.1432 9.21322 24.3517 9.27033 24.5491 9.34199C24.6485 9.37801 24.8685 9.48091 24.9443 9.52683C24.9673 9.54073 24.9893 9.55212 24.9932 9.55212C25.0228 9.55212 25.3412 9.78158 25.4791 9.90245C25.5873 9.99714 25.6218 10.0317 25.7596 10.1827C26.0315 10.4808 26.2751 10.9449 26.3789 11.363C26.3929 11.4193 26.4053 11.4669 26.4064 11.4687C26.4076 11.4704 26.4735 11.4592 26.5529 11.4436C26.6322 11.428 26.7224 11.4109 26.7533 11.4056C26.7841 11.4002 26.8699 11.3832 26.944 11.3678C27.1165 11.3318 27.0846 11.338 27.4432 11.2698C27.6128 11.2375 27.7692 11.2069 27.7909 11.2016C27.8125 11.1964 27.8604 11.1865 27.8975 11.1796C27.9345 11.1728 27.985 11.1631 28.0096 11.1582C28.0343 11.1533 28.0822 11.1439 28.1162 11.1376C28.1501 11.1312 28.2283 11.1159 28.29 11.1036C28.3518 11.0913 28.4215 11.0785 28.4452 11.0751C28.505 11.0665 28.5055 11.0117 28.4479 10.8241C28.4397 10.7973 28.4275 10.7562 28.4208 10.7324C28.3746 10.5692 28.3109 10.3763 28.296 10.3552C28.2919 10.3492 28.2816 10.3226 28.2733 10.2959C28.2649 10.2692 28.2539 10.2428 28.2488 10.2371C28.2437 10.2315 28.2396 10.2205 28.2396 10.2128C28.2396 10.1692 28.003 9.70585 27.88 9.50872C27.7633 9.32142 27.5387 9.01047 27.4749 8.94793C27.4662 8.93933 27.4515 8.92187 27.4423 8.90906C27.4035 8.85493 27.1784 8.61551 27.0853 8.52923C26.9388 8.39342 26.8086 8.28017 26.7308 8.22067C26.7 8.19713 26.6722 8.17527 26.6692 8.1721C26.6454 8.14804 26.4465 8.00815 26.327 7.93151C26.2469 7.8801 26.1706 7.83114 26.1577 7.82273C26.1345 7.8076 26.1102 7.79402 25.9793 7.72307C25.8381 7.64643 25.5355 7.50641 25.3848 7.44788C25.0863 7.33199 24.8068 7.2503 24.5098 7.1921C24.4728 7.18485 24.4097 7.1723 24.3696 7.16429C24.3295 7.15627 24.2538 7.14417 24.2014 7.13738C24.1489 7.13065 24.0753 7.12063 24.0378 7.1152C23.9516 7.10272 22.9083 7.10498 22.8104 7.11791Z" fill="#FCC404"/>
<path fill-rule="evenodd" clip-rule="evenodd" d="M26.3904 12.6862C26.3685 12.7787 26.3119 12.9686 26.2915 13.0177C26.2816 13.0413 26.2666 13.0761 26.2582 13.0947C26.2498 13.1134 26.2429 13.1319 26.2429 13.1357C26.2429 13.1763 26.0572 13.5119 25.9474 13.6698C25.814 13.8616 25.5268 14.1659 25.3623 14.2897C25.3315 14.3129 25.3037 14.3349 25.3006 14.3385C25.2975 14.3421 25.264 14.3651 25.2261 14.3897C25.1882 14.4142 25.1503 14.4405 25.142 14.4482C25.1211 14.4672 25.0097 14.5321 24.998 14.5321C24.9927 14.5321 24.9867 14.5357 24.9847 14.5401C24.9696 14.5729 24.5835 14.7448 24.3865 14.8065C24.2026 14.8642 24.1062 14.8874 23.9546 14.911C23.4883 14.9834 23.0234 14.9592 22.6085 14.841C22.5561 14.8261 22.5029 14.8111 22.4904 14.8077C22.47 14.8022 22.4633 14.8143 22.4264 14.9228C22.3851 15.0443 22.3417 15.169 22.281 15.3405C22.2632 15.3909 22.2306 15.4855 22.2086 15.5507C22.1866 15.6159 22.1519 15.7153 22.1313 15.7717C22.0894 15.8864 21.8145 16.6765 21.8001 16.7235C21.7938 16.7442 21.7951 16.7548 21.8043 16.7574C21.8117 16.7594 21.8758 16.7782 21.9467 16.7992C22.0964 16.8434 22.2676 16.8837 22.4291 16.9128C22.671 16.9564 22.7292 16.9646 22.9697 16.9893C23.1094 17.0036 23.7551 17.0038 23.8966 16.9895C24.1037 16.9686 24.2074 16.9558 24.2855 16.9414C24.3287 16.9335 24.3968 16.9212 24.4369 16.9144C24.6581 16.8762 25.1901 16.7314 25.2699 16.6876C25.2808 16.6816 25.3136 16.669 25.3428 16.6595C25.3721 16.65 25.4187 16.6325 25.4465 16.6206C25.4742 16.6088 25.5147 16.5919 25.5362 16.583C25.6118 16.552 25.8543 16.4366 25.9221 16.3994C26.136 16.282 26.2275 16.2275 26.3688 16.1331C26.5591 16.0059 26.7043 15.8975 26.8596 15.7666C26.9473 15.6927 27.2789 15.3708 27.3485 15.2921C27.3851 15.2507 27.4201 15.2112 27.4263 15.2043C27.4884 15.1355 27.7167 14.8396 27.7371 14.8016C27.7451 14.7867 27.7542 14.7722 27.7573 14.7692C27.8065 14.723 28.0746 14.2573 28.1425 14.1004C28.1539 14.074 28.1749 14.0282 28.1891 13.9985C28.2581 13.8554 28.3656 13.5589 28.4198 13.3626C28.4246 13.3448 28.4364 13.3035 28.4456 13.2709C28.4711 13.1819 28.4837 13.1302 28.4917 13.0811L28.499 13.0367L28.4495 13.0248C28.4224 13.0182 28.2723 12.9883 28.1162 12.9583C27.96 12.9284 27.809 12.8989 27.7807 12.8928C27.7005 12.8754 27.6451 12.8642 27.5721 12.8505C27.5351 12.8437 27.4846 12.834 27.46 12.829C27.4353 12.824 27.3873 12.8147 27.3534 12.8083C27.2389 12.7866 27.1351 12.7659 27.0505 12.748C27.0043 12.7382 26.9437 12.7264 26.9159 12.7216C26.8882 12.717 26.825 12.7053 26.7757 12.6956C26.7264 12.686 26.6582 12.6729 26.6243 12.6665C26.5904 12.6601 26.5345 12.6479 26.5002 12.6395C26.4072 12.6167 26.4068 12.6169 26.3904 12.6862Z" fill="#EC3423"/>
<path fill-rule="evenodd" clip-rule="evenodd" d="M14.5643 9.74392C14.5643 12.3579 14.5664 13.4246 14.569 12.1145C14.5716 10.8042 14.5716 8.66559 14.569 7.36188C14.5664 6.05807 14.5643 7.13008 14.5643 9.74392ZM23.4066 7.12092C23.3752 7.12976 23.3939 7.13345 23.4668 7.13292C23.5283 7.13239 23.5589 7.12682 23.5398 7.11956C23.499 7.10409 23.4653 7.1044 23.4066 7.12092ZM24.3389 7.18111C24.343 7.18448 24.3711 7.19269 24.4012 7.19911C24.4411 7.20773 24.4486 7.20605 24.4285 7.19311C24.4039 7.17711 24.3206 7.16586 24.3389 7.18111ZM26.0893 7.79698C26.0893 7.80066 26.114 7.82055 26.1441 7.84117C26.1742 7.8618 26.1988 7.87222 26.1987 7.86432C26.1986 7.85643 26.174 7.83654 26.144 7.82002C26.114 7.80361 26.0893 7.79319 26.0893 7.79698ZM5.38472 8.14264L5.34814 8.17894L5.38822 8.15905C5.43038 8.13811 5.46104 8.10349 5.43596 8.10528C5.42786 8.10581 5.40476 8.12265 5.38472 8.14264ZM5.09728 8.38686C5.06969 8.41243 5.04702 8.43863 5.04702 8.44505C5.04702 8.45147 5.07341 8.43305 5.10571 8.40412C5.13801 8.37507 5.16057 8.34887 5.15586 8.34582C5.15126 8.34277 5.12487 8.36118 5.09728 8.38686ZM11.9911 8.38475C11.9973 8.39433 12.0203 8.41106 12.0424 8.422L12.0824 8.44179L12.0421 8.40454C12.0001 8.36571 11.9718 8.35466 11.9911 8.38475ZM4.8036 8.6798C4.75936 8.72673 4.76648 8.74304 4.81302 8.70137C4.83492 8.6818 4.8485 8.6617 4.84335 8.65676C4.8382 8.6517 4.82024 8.66212 4.8036 8.6798ZM22.4394 9.10048C22.4394 9.10827 22.4521 9.13005 22.4677 9.14867C22.4953 9.18182 22.4955 9.18171 22.4775 9.14562C22.4673 9.12521 22.464 9.10343 22.4704 9.09743C22.4767 9.09133 22.4723 9.08627 22.4606 9.08627C22.4489 9.08627 22.4394 9.09269 22.4394 9.10048ZM9.60956 9.44582C9.66957 9.47875 9.69924 9.47918 9.65413 9.44635C9.63464 9.43225 9.60638 9.42067 9.59127 9.42067C9.5754 9.42078 9.58306 9.4313 9.60956 9.44582ZM6.87206 9.69499L6.82639 9.74023L6.88574 9.70151C6.944 9.66332 6.95856 9.64648 6.93141 9.64858C6.92385 9.64911 6.89713 9.67005 6.87206 9.69499ZM25.443 10.1722C25.4723 10.2003 25.4997 10.2199 25.5038 10.2159C25.5149 10.2053 25.4295 10.121 25.4079 10.121C25.398 10.121 25.4137 10.144 25.443 10.1722ZM3.74156 10.4805C3.73685 10.495 3.72907 10.5191 3.72415 10.534C3.71922 10.549 3.72239 10.557 3.73105 10.5518C3.73981 10.5467 3.75086 10.5226 3.75568 10.4983C3.76521 10.4504 3.75546 10.438 3.74156 10.4805ZM13.4952 10.6755C13.5054 10.696 13.5086 10.7176 13.5023 10.7237C13.4959 10.7299 13.5003 10.7348 13.512 10.7348C13.5412 10.7348 13.5388 10.7129 13.5049 10.6724C13.4773 10.6393 13.4771 10.6394 13.4952 10.6755ZM18.5177 10.7465C18.5165 10.7577 18.5103 10.7814 18.5037 10.7991C18.4946 10.824 18.497 10.8268 18.5146 10.8112C18.527 10.8001 18.5333 10.7765 18.5286 10.7586C18.5237 10.7407 18.5188 10.7352 18.5177 10.7465ZM12.7212 11.0505C12.681 11.0691 12.6572 11.0847 12.6682 11.085C12.6912 11.0856 12.8034 11.0342 12.8034 11.0229C12.8034 11.0124 12.8027 11.0126 12.7212 11.0505ZM3.56877 11.1381C3.56877 11.1671 3.57194 11.1907 3.57588 11.1907C3.57972 11.1907 3.5865 11.1671 3.59099 11.1381C3.59537 11.1092 3.5922 11.0855 3.58388 11.0855C3.57555 11.0855 3.56877 11.1092 3.56877 11.1381ZM26.719 11.4013C26.6874 11.4143 26.6893 11.4161 26.7326 11.4138C26.7602 11.4123 26.7828 11.405 26.7828 11.3974C26.7828 11.3805 26.7665 11.3816 26.719 11.4013ZM11.7402 11.4639C11.672 11.4995 11.6762 11.5142 11.7448 11.4801C11.7749 11.4651 11.7996 11.4492 11.7996 11.4446C11.7996 11.4333 11.7976 11.434 11.7402 11.4639ZM3.5 12.243C3.5 12.2767 3.50383 12.2905 3.50843 12.2737C3.51292 12.2568 3.51292 12.2292 3.50843 12.2123C3.50383 12.1954 3.5 12.2093 3.5 12.243ZM26.098 12.9043C26.0788 12.9468 26.0677 13.0062 26.0811 12.9932C26.0871 12.9875 26.0937 12.9721 26.0958 12.9592C26.0978 12.9463 26.1062 12.9253 26.1145 12.9126C26.1227 12.9 26.1256 12.8858 26.1208 12.8811C26.1161 12.8766 26.1058 12.8869 26.098 12.9043ZM28.4375 13.2543C28.4308 13.2608 28.4258 13.2824 28.4265 13.3025C28.4276 13.3361 28.429 13.3357 28.4451 13.2971C28.463 13.2541 28.4594 13.2333 28.4375 13.2543ZM25.259 14.0669C25.2408 14.0861 25.2301 14.1019 25.2351 14.1019C25.2402 14.1019 25.2632 14.0861 25.2864 14.0669C25.3095 14.0475 25.3202 14.0317 25.3102 14.0317C25.3002 14.0317 25.2772 14.0475 25.259 14.0669ZM28.0348 14.279C28.0135 14.3202 28.0126 14.3286 28.0314 14.3135C28.0539 14.2956 28.084 14.2247 28.0691 14.2247C28.0657 14.2247 28.0503 14.2491 28.0348 14.279ZM10.0268 14.3821L9.98372 14.4167L10.0338 14.3953C10.0612 14.3834 10.0838 14.3678 10.0839 14.3606C10.0841 14.3405 10.0736 14.3445 10.0268 14.3821ZM7.47431 14.6093C7.47431 14.6166 7.49489 14.6314 7.51997 14.6423C7.54505 14.6534 7.56552 14.6567 7.56541 14.6496C7.5653 14.6426 7.54483 14.6277 7.51975 14.6166C7.49478 14.6054 7.47431 14.6022 7.47431 14.6093ZM17.7207 14.8112C17.7401 14.8262 17.7689 14.8379 17.7845 14.8371C17.809 14.8359 17.8093 14.8344 17.7856 14.826C17.7705 14.8206 17.7418 14.8089 17.7217 14.8001C17.6857 14.7842 17.6857 14.7844 17.7207 14.8112ZM27.1114 15.496C27.0517 15.557 27.0725 15.562 27.1348 15.5016C27.1629 15.4744 27.1787 15.4522 27.17 15.4522C27.1613 15.4522 27.135 15.472 27.1114 15.496ZM12.1645 15.5487C12.1305 15.5825 12.1077 15.6101 12.1138 15.6101C12.12 15.6101 12.1546 15.5825 12.1907 15.5487C12.2268 15.515 12.2497 15.4874 12.2415 15.4874C12.2332 15.4874 12.1986 15.515 12.1645 15.5487ZM11.9821 15.7097C11.9416 15.7509 11.9408 15.7538 11.9753 15.7362C11.9968 15.7253 12.0191 15.7043 12.0249 15.6895C12.0393 15.6537 12.0353 15.6555 11.9821 15.7097Z" fill="#242424"/>
<path fill-rule="evenodd" clip-rule="evenodd" d="M14.5712 9.73944C14.5701 12.3461 14.5673 14.5364 14.5652 14.6068C14.563 14.6771 14.5669 14.7381 14.5739 14.7422C14.5808 14.7465 14.5826 14.7697 14.5777 14.794C14.5729 14.8184 14.576 14.8383 14.5848 14.8383C14.5934 14.8383 14.6023 14.8763 14.6042 14.9227C14.6063 14.9691 14.6178 15.0302 14.6299 15.0585C14.642 15.087 14.6501 15.124 14.6479 15.1408C14.6456 15.1577 14.654 15.1716 14.6663 15.1716C14.6787 15.1716 14.6836 15.1765 14.6773 15.1826C14.6709 15.1887 14.6754 15.2104 14.6872 15.2308C14.6991 15.2512 14.7068 15.2741 14.7047 15.2817C14.7024 15.2893 14.7255 15.3386 14.756 15.3914C14.7866 15.4441 14.8066 15.4872 14.8006 15.4872C14.7944 15.4872 14.8066 15.508 14.8274 15.5334C14.8482 15.5588 14.8652 15.59 14.8652 15.6028C14.8652 15.6155 14.884 15.644 14.9071 15.6662C14.9302 15.6884 14.9545 15.7203 14.9613 15.7371C14.968 15.754 14.9825 15.7677 14.9934 15.7677C15.0044 15.7677 15.0083 15.7756 15.0021 15.7853C14.9958 15.795 15.0036 15.8029 15.0192 15.8029C15.0349 15.8029 15.0477 15.8116 15.0477 15.8224C15.0477 15.8458 15.2804 16.0659 15.3053 16.0659C15.3148 16.0659 15.3519 16.094 15.3877 16.1284C15.4304 16.1695 15.463 16.1873 15.4824 16.1802C15.4986 16.1742 15.5061 16.175 15.499 16.1818C15.4822 16.1978 15.5534 16.2465 15.5748 16.2337C15.5838 16.2284 15.6011 16.2358 15.6134 16.2501C15.6258 16.2643 15.6432 16.2717 15.6522 16.2663C15.6611 16.2609 15.6734 16.2689 15.6794 16.284C15.6854 16.2991 15.7054 16.3114 15.7238 16.3114C15.7422 16.3114 15.7624 16.3194 15.7688 16.3292C15.775 16.3391 15.7878 16.3426 15.7972 16.337C15.8066 16.3314 15.8142 16.3357 15.8142 16.3465C15.8142 16.3573 15.8218 16.3616 15.8312 16.356C15.8405 16.3505 15.8536 16.3545 15.8604 16.365C15.8671 16.3754 15.8845 16.3796 15.8991 16.3743C15.916 16.3679 15.9209 16.3718 15.9125 16.3848C15.9041 16.3977 15.909 16.4015 15.926 16.3953C15.9406 16.3899 15.9674 16.3959 15.9856 16.4087C16.0037 16.4214 16.0289 16.4279 16.0418 16.4232C16.0545 16.4185 16.0701 16.4274 16.0764 16.4431C16.0826 16.4587 16.0957 16.4666 16.1057 16.4608C16.1156 16.455 16.1423 16.46 16.1652 16.4722C16.1879 16.4844 16.2122 16.4946 16.2194 16.4949C16.2264 16.4953 16.2424 16.5055 16.255 16.5175C16.2674 16.5296 16.2967 16.5394 16.3197 16.5394C16.3428 16.5394 16.3617 16.5486 16.3617 16.5599C16.3617 16.5711 16.3672 16.575 16.3739 16.5686C16.3806 16.5622 16.4026 16.5707 16.4226 16.5876C16.4498 16.6104 16.4557 16.6115 16.4456 16.5921C16.4381 16.5775 16.4449 16.581 16.4607 16.5997C16.4799 16.6225 16.4894 16.6258 16.4894 16.6098C16.4894 16.5943 16.5064 16.6008 16.538 16.6285C16.5647 16.6518 16.5803 16.6605 16.5726 16.6477C16.5561 16.6203 16.6344 16.6576 16.6579 16.6884C16.6654 16.6981 16.6715 16.6999 16.6716 16.6924C16.6718 16.685 16.6924 16.6918 16.7174 16.7075C16.7424 16.7233 16.7757 16.7315 16.7914 16.7257C16.8077 16.7197 16.815 16.7225 16.8087 16.7325C16.7986 16.7481 16.8227 16.7575 16.859 16.7519C16.8665 16.7508 16.8726 16.7572 16.8726 16.766C16.8726 16.7815 16.975 16.8112 16.9877 16.7995C16.9911 16.7963 17.0083 16.8076 17.0258 16.8244C17.061 16.8582 17.1012 16.8664 17.0815 16.8358C17.0727 16.8223 17.0805 16.8224 17.1077 16.8364C17.129 16.8473 17.1465 16.866 17.1467 16.8776C17.1469 16.8912 17.1532 16.8895 17.164 16.8731C17.1786 16.851 17.1826 16.8516 17.1929 16.8774C17.1996 16.8939 17.213 16.9028 17.2227 16.897C17.2325 16.8912 17.2583 16.902 17.2801 16.9211C17.3019 16.9401 17.3424 16.9609 17.37 16.9671C17.4157 16.9775 17.4242 16.9713 17.4186 16.9316C17.4177 16.9254 17.4264 16.9149 17.4378 16.908C17.4492 16.9013 17.4598 16.8789 17.4614 16.8584C17.4631 16.8378 17.475 16.817 17.4879 16.8123C17.5008 16.8075 17.5115 16.7914 17.5115 16.7765C17.5115 16.7616 17.5209 16.7317 17.5325 16.7101C17.5798 16.6224 17.5853 16.6075 17.5759 16.5928C17.5704 16.5844 17.5721 16.5748 17.5798 16.5716C17.5964 16.5645 17.658 16.4503 17.664 16.4154C17.6664 16.4016 17.6785 16.3726 17.6909 16.3509C17.7033 16.3292 17.707 16.3113 17.6992 16.3111C17.6913 16.311 17.6953 16.3045 17.708 16.2967C17.7285 16.2843 17.7373 16.262 17.7552 16.1763C17.7577 16.1648 17.7745 16.1396 17.7924 16.1205C17.8105 16.1013 17.8203 16.0779 17.8142 16.0685C17.8082 16.0591 17.8107 16.0487 17.8199 16.0455C17.8291 16.0423 17.8394 16.0239 17.8428 16.0045C17.8462 15.9852 17.8556 15.9648 17.8636 15.9591C17.8717 15.9535 17.8796 15.9319 17.8811 15.9114C17.8828 15.8908 17.8956 15.8697 17.9095 15.8646C17.9236 15.8593 17.9302 15.8431 17.9242 15.8281C17.9171 15.8105 17.9207 15.8054 17.9345 15.8136C17.9486 15.8219 17.9518 15.8165 17.944 15.797C17.9375 15.7809 17.9408 15.7677 17.9511 15.7677C17.9614 15.7677 17.9651 15.7605 17.9593 15.7514C17.9535 15.7425 17.9574 15.7301 17.9676 15.724C17.978 15.7178 17.9818 15.7053 17.9761 15.6964C17.9703 15.6875 17.9729 15.6801 17.9819 15.6801C17.9983 15.6801 18.0549 15.5371 18.0435 15.5243C18.0402 15.5205 18.047 15.5118 18.0586 15.5049C18.0701 15.4981 18.0813 15.4812 18.0834 15.4675C18.0855 15.4539 18.1097 15.4014 18.1372 15.351C18.1665 15.2971 18.1783 15.2592 18.1658 15.2592C18.1541 15.2592 18.1626 15.2443 18.1846 15.226C18.2065 15.2076 18.2229 15.186 18.2209 15.1777C18.2169 15.1607 18.2355 15.108 18.2622 15.0603C18.2829 15.0234 18.2357 14.9764 18.1849 14.9833C18.1689 14.9855 18.144 14.9779 18.1296 14.9665C18.1153 14.955 18.0802 14.9415 18.052 14.9366C18.0236 14.9318 17.981 14.9154 17.9572 14.9005C17.9336 14.8856 17.8995 14.8706 17.8816 14.8673C17.8359 14.8586 17.7858 14.8406 17.7165 14.808C17.6836 14.7925 17.6446 14.7798 17.6297 14.7798C17.6148 14.7798 17.6027 14.7735 17.6027 14.7658C17.6027 14.758 17.589 14.7568 17.5723 14.763C17.5519 14.7704 17.5463 14.7674 17.5552 14.7536C17.5679 14.7338 17.5464 14.7257 17.4978 14.7318C17.4852 14.7333 17.4749 14.7259 17.4749 14.7153C17.4749 14.7047 17.4673 14.7005 17.4579 14.706C17.4486 14.7116 17.4358 14.7082 17.4295 14.6983C17.4232 14.6885 17.4027 14.6805 17.3841 14.6805C17.3655 14.6805 17.3473 14.6722 17.3438 14.662C17.3403 14.6519 17.3252 14.6411 17.3103 14.6383C17.2689 14.6304 17.2155 14.6103 17.1601 14.5817C17.1325 14.5674 17.1016 14.5605 17.0916 14.5665C17.0817 14.5724 17.0735 14.5681 17.0735 14.5568C17.0735 14.5456 17.0608 14.5412 17.0451 14.5468C17.0289 14.5528 17.0216 14.5499 17.0279 14.54C17.034 14.5304 17.0263 14.5226 17.0106 14.5226C16.995 14.5226 16.9781 14.5225 16.9732 14.5224C16.9682 14.5223 16.9148 14.4981 16.8546 14.4687L16.745 14.4152V9.70755V5H15.6591H14.5731L14.5712 9.73944ZM8.05121 7.12529C8.03566 7.1336 8.0027 7.13697 7.97807 7.13265C7.95343 7.12834 7.92868 7.12928 7.9231 7.13465C7.91751 7.14002 7.86167 7.14633 7.79903 7.14875C7.7364 7.15117 7.68264 7.16054 7.67946 7.16959C7.67639 7.17853 7.64935 7.18253 7.61945 7.17832C7.58967 7.17411 7.56514 7.17832 7.56514 7.18779C7.56514 7.19715 7.53229 7.2061 7.49222 7.20757C7.37768 7.21167 7.36443 7.21441 7.36443 7.23303C7.36443 7.24272 7.35928 7.24566 7.35293 7.23956C7.34669 7.23356 7.31384 7.23977 7.28 7.25334C7.24617 7.26692 7.21847 7.27355 7.21847 7.26797C7.21847 7.2625 7.20642 7.26755 7.19186 7.27923C7.17718 7.2908 7.15671 7.29533 7.1462 7.28912C7.13579 7.2828 7.11707 7.28375 7.1047 7.29112C7.09232 7.29848 7.06604 7.30564 7.04633 7.30701C7.02651 7.30837 7.00746 7.31816 7.00373 7.32879C7.00012 7.33931 6.98512 7.34362 6.97056 7.33826C6.93661 7.32574 6.83522 7.36551 6.83489 7.3916C6.83478 7.4035 6.82853 7.40213 6.81923 7.38792C6.80685 7.3693 6.80149 7.37035 6.79218 7.3935C6.78583 7.40939 6.77313 7.41781 6.76382 7.41233C6.74991 7.40402 6.71509 7.41349 6.63439 7.44727C6.62935 7.44937 6.6068 7.45695 6.58424 7.464C6.56168 7.47105 6.54318 7.48431 6.54318 7.49336C6.54318 7.5024 6.53551 7.50535 6.52621 7.49977C6.5169 7.4942 6.50398 7.49788 6.49752 7.50777C6.49116 7.51777 6.47825 7.52134 6.46894 7.51587C6.45952 7.5103 6.45197 7.51461 6.45197 7.52534C6.45197 7.53608 6.4454 7.54113 6.43751 7.53639C6.41813 7.52492 6.30064 7.57922 6.28202 7.60826C6.27381 7.62088 6.25946 7.62678 6.25005 7.6211C6.24063 7.61552 6.23297 7.61762 6.23297 7.62583C6.23297 7.63393 6.21643 7.64182 6.19628 7.6433C6.17613 7.64477 6.13704 7.66119 6.10956 7.67981C6.08207 7.69843 6.04112 7.71916 6.01845 7.7259C5.9959 7.73263 5.97739 7.74547 5.97739 7.75452C5.97739 7.76346 5.96513 7.77083 5.95002 7.77083C5.93501 7.77083 5.906 7.78693 5.88552 7.8066C5.86505 7.82617 5.84096 7.83796 5.83198 7.83259C5.823 7.82723 5.80975 7.83217 5.80252 7.84343C5.79365 7.85711 5.79726 7.85921 5.81314 7.84974C5.82902 7.84038 5.83263 7.84248 5.82409 7.85585C5.81686 7.867 5.80362 7.87605 5.79464 7.87605C5.77274 7.87605 5.65218 7.95349 5.58932 8.00779C5.56151 8.03178 5.53063 8.05146 5.52056 8.05146C5.51048 8.05146 5.47435 8.07902 5.44029 8.1128C5.40613 8.14658 5.36868 8.17425 5.35697 8.17425C5.32839 8.17425 5.21122 8.29136 5.22567 8.30536C5.23203 8.31136 5.22381 8.31146 5.2075 8.30536C5.18779 8.2981 5.17399 8.30588 5.16654 8.32819C5.15625 8.35944 5.0646 8.44941 5.03306 8.4593C5.02551 8.46161 5.02135 8.46951 5.02387 8.47677C5.02638 8.48392 5.01565 8.48992 4.99999 8.48992C4.98434 8.48992 4.97667 8.49781 4.98291 8.5076C4.98915 8.51728 4.97974 8.53053 4.96189 8.53716C4.90966 8.55642 4.84593 8.61671 4.84593 8.64702C4.84593 8.66238 4.8295 8.68847 4.80947 8.70499C4.78932 8.72151 4.77289 8.73067 4.77289 8.7252C4.77289 8.71983 4.76063 8.7272 4.74552 8.74172C4.73051 8.75613 4.71814 8.77465 4.71814 8.78286C4.71814 8.79107 4.7038 8.81022 4.68628 8.82547C4.63886 8.86651 4.58893 8.92828 4.60317 8.92828C4.60996 8.92828 4.59266 8.95121 4.56473 8.97931C4.5367 9.0073 4.51469 9.03497 4.51568 9.04065C4.51666 9.04634 4.51228 9.05044 4.50604 9.0496C4.48578 9.04707 4.42786 9.14472 4.43914 9.16229C4.44516 9.17166 4.44144 9.17418 4.43092 9.16787C4.41275 9.15703 4.38066 9.2028 4.3868 9.23079C4.38833 9.23805 4.38252 9.24394 4.37387 9.24394C4.3546 9.24394 4.25945 9.37947 4.25408 9.41451C4.252 9.4284 4.2416 9.44502 4.23119 9.45144C4.20513 9.46744 4.12991 9.61222 4.14754 9.61254C4.1552 9.61264 4.14918 9.62033 4.13418 9.62937C4.11907 9.63853 4.10626 9.65221 4.1056 9.65989C4.10374 9.68314 4.01636 9.84866 4.00289 9.85455C3.99588 9.8576 3.99522 9.87265 4.00146 9.88812C4.00957 9.90832 4.00584 9.91211 3.98822 9.90159C3.97048 9.89117 3.96686 9.89485 3.97497 9.91516C3.9811 9.93063 3.98044 9.94567 3.97343 9.94872C3.95153 9.9583 3.89689 10.0695 3.89689 10.1048C3.89689 10.1232 3.88813 10.1383 3.8774 10.1383C3.8659 10.1383 3.86295 10.1535 3.87028 10.1757C3.8786 10.2007 3.87598 10.2089 3.8624 10.2009C3.84466 10.1904 3.83316 10.2237 3.84006 10.2656C3.84116 10.2727 3.83393 10.2787 3.82397 10.2787C3.81389 10.2787 3.80568 10.2929 3.80568 10.3103C3.80568 10.3276 3.79582 10.3513 3.78378 10.3629C3.7667 10.3792 3.76724 10.3839 3.78597 10.3839C3.8059 10.3839 3.8059 10.3889 3.78575 10.4121C3.77239 10.4277 3.75848 10.4612 3.75487 10.4866C3.75137 10.512 3.73571 10.5464 3.72005 10.563C3.70428 10.5796 3.69596 10.6091 3.70132 10.6289C3.70669 10.6485 3.70351 10.6644 3.69443 10.6644C3.68534 10.6644 3.67888 10.6704 3.68008 10.6776C3.68129 10.6849 3.68063 10.6948 3.67855 10.6996C3.67658 10.7043 3.67099 10.7314 3.66628 10.7596C3.66147 10.7878 3.64942 10.8254 3.63957 10.8432C3.6296 10.8611 3.62599 10.8827 3.63157 10.8913C3.63716 10.8999 3.63387 10.9096 3.62424 10.9129C3.61471 10.9161 3.60431 10.9503 3.60135 10.989C3.59829 11.0275 3.58755 11.0648 3.57759 11.072C3.56587 11.0803 3.56653 11.0849 3.57956 11.0851C3.6019 11.0854 3.59095 11.1757 3.56675 11.191C3.54956 11.2019 3.52601 11.3871 3.52415 11.5265C3.52339 11.581 3.51769 11.6226 3.51134 11.6189C3.5051 11.6151 3.50083 11.7928 3.50203 12.0136C3.50335 12.2798 3.51025 12.4116 3.52251 12.4045C3.53269 12.3987 3.53083 12.406 3.51835 12.4208C3.50598 12.4357 3.5016 12.4533 3.50871 12.4602C3.52229 12.4732 3.53291 12.5572 3.53499 12.6679C3.53576 12.7039 3.54233 12.7298 3.54967 12.7253C3.55711 12.721 3.56401 12.7388 3.565 12.7651C3.56762 12.8313 3.58131 12.9522 3.58679 12.9575C3.5892 12.9599 3.59226 12.969 3.59358 12.9779C3.59478 12.9867 3.60135 12.9993 3.60825 13.006C3.61504 13.0125 3.6157 13.0303 3.60967 13.0453C3.60245 13.0635 3.60595 13.0685 3.62007 13.0602C3.63179 13.0532 3.64143 13.0558 3.64143 13.0661C3.64143 13.0763 3.63398 13.0846 3.62489 13.0846C3.6158 13.0846 3.61263 13.1004 3.61789 13.1197C3.62314 13.139 3.63267 13.1548 3.63902 13.1548C3.64537 13.1549 3.65271 13.184 3.65544 13.2197C3.65807 13.2553 3.66628 13.2889 3.67362 13.2942C3.68797 13.3045 3.6976 13.3366 3.70154 13.387C3.70286 13.4039 3.71041 13.4178 3.7183 13.4178C3.72618 13.4178 3.73264 13.4311 3.73264 13.4473C3.73264 13.4893 3.77392 13.5932 3.79057 13.5932C3.79823 13.5932 3.80009 13.6043 3.79473 13.6177C3.78936 13.6312 3.79298 13.647 3.80272 13.6528C3.81247 13.6587 3.81641 13.6782 3.81148 13.6964C3.80655 13.7146 3.81137 13.7348 3.82232 13.7413C3.83327 13.7478 3.84214 13.7684 3.84214 13.7871C3.84214 13.8059 3.8509 13.8211 3.86152 13.8211C3.87214 13.8211 3.8762 13.8284 3.8705 13.8372C3.86481 13.8461 3.8705 13.8566 3.88309 13.8606C3.89569 13.8646 3.90675 13.8831 3.90762 13.9015C3.90839 13.92 3.91792 13.9549 3.92865 13.979C3.93938 14.0032 3.95701 14.0445 3.96774 14.071C3.97847 14.0975 3.9961 14.1193 4.00683 14.1193C4.01745 14.1193 4.02457 14.1291 4.0226 14.1412C4.01844 14.166 4.04296 14.2288 4.06191 14.242C4.06892 14.2469 4.0975 14.2982 4.12564 14.3561C4.15378 14.414 4.1828 14.4652 4.19013 14.47C4.19747 14.4749 4.21674 14.5064 4.23295 14.5402C4.24915 14.5739 4.25824 14.5858 4.25299 14.5665C4.24488 14.5364 4.24685 14.5352 4.26656 14.5577C4.29405 14.5893 4.33489 14.5998 4.33489 14.5753C4.33489 14.5656 4.35449 14.5577 4.37836 14.5577C4.40223 14.5577 4.43158 14.5463 4.44352 14.5324C4.45556 14.5185 4.47845 14.512 4.49443 14.5179C4.51119 14.5241 4.51874 14.5213 4.51228 14.5113C4.5033 14.4973 4.58477 14.4565 4.6497 14.4424C4.65726 14.4407 4.66755 14.4374 4.67259 14.435C4.67763 14.4326 4.68923 14.4296 4.69843 14.4284C4.70763 14.4272 4.72132 14.4203 4.72887 14.413C4.73632 14.4059 4.75406 14.3999 4.76818 14.3999C4.7822 14.3999 4.80618 14.388 4.82129 14.3734C4.83651 14.3588 4.85644 14.3515 4.86564 14.3569C4.87484 14.3624 4.88239 14.3585 4.88239 14.3483C4.88239 14.3381 4.9009 14.3297 4.92345 14.3295C4.96692 14.3291 5.01434 14.307 5.01171 14.2883C5.00733 14.2568 5.01248 14.2534 5.02847 14.2772C5.04128 14.2962 5.0462 14.2972 5.04642 14.2804C5.04653 14.2679 5.05485 14.2624 5.06493 14.2683C5.075 14.2743 5.08322 14.2711 5.08322 14.2612C5.08322 14.2513 5.09679 14.2482 5.11355 14.2543C5.1338 14.2618 5.13961 14.2589 5.13085 14.2453C5.12253 14.2323 5.12734 14.2284 5.14377 14.2344C5.158 14.2398 5.18461 14.2298 5.20268 14.2123C5.22086 14.195 5.2364 14.1846 5.23717 14.1894C5.23969 14.2046 5.41172 14.1305 5.41172 14.1143C5.41172 14.1058 5.4219 14.1024 5.43449 14.1068C5.44708 14.1111 5.47304 14.102 5.49242 14.0863C5.51169 14.0707 5.52132 14.0681 5.51377 14.0804C5.50621 14.0928 5.52735 14.0869 5.56074 14.0673C5.59425 14.0478 5.63597 14.0317 5.65349 14.0317C5.67101 14.0317 5.68547 14.0255 5.68547 14.0179C5.68547 14.0034 5.77996 13.9619 5.84008 13.95C5.8599 13.9461 5.88278 13.9316 5.89078 13.9178C5.89877 13.904 5.91717 13.8971 5.93162 13.9025C5.94607 13.9077 5.98199 13.8956 6.01156 13.8754C6.04101 13.8552 6.0824 13.8387 6.10343 13.8387C6.12445 13.8387 6.14164 13.8314 6.14164 13.8226C6.14164 13.8137 6.16792 13.8009 6.2 13.7941C6.23198 13.7874 6.26997 13.7705 6.28443 13.7566C6.29888 13.7427 6.32232 13.7358 6.33655 13.7411C6.3509 13.7463 6.35878 13.7446 6.35407 13.7374C6.34936 13.7301 6.36535 13.7152 6.38966 13.7041C6.42295 13.6891 6.43072 13.6891 6.42141 13.7044C6.41473 13.7156 6.42645 13.7101 6.4477 13.6923C6.46883 13.6744 6.49456 13.6649 6.50485 13.671C6.51515 13.6772 6.53967 13.6668 6.55928 13.6479C6.57888 13.6291 6.59869 13.6172 6.60329 13.6217C6.61665 13.6345 6.76218 13.5735 6.76218 13.5551C6.76218 13.546 6.76973 13.543 6.77893 13.5485C6.78824 13.554 6.80664 13.548 6.81999 13.5351C6.8466 13.5096 6.85755 13.5055 6.90015 13.5055C6.91581 13.5055 6.92413 13.4985 6.91865 13.4901C6.90935 13.4756 7.00834 13.4446 7.04283 13.4513C7.05159 13.453 7.07305 13.4419 7.09046 13.4268C7.10787 13.4116 7.13765 13.3962 7.1566 13.3926C7.17554 13.3889 7.21573 13.3734 7.24584 13.3581C7.27595 13.3428 7.31132 13.3303 7.32446 13.3303C7.3376 13.3302 7.34329 13.3223 7.33705 13.3126C7.3307 13.3026 7.34603 13.295 7.37275 13.295C7.39859 13.295 7.43396 13.2882 7.45137 13.2799C7.46878 13.2714 7.52616 13.2438 7.57883 13.2184C7.63161 13.1929 7.67464 13.1766 7.67464 13.1822C7.67464 13.1877 7.69731 13.1771 7.7249 13.1584C7.7525 13.1399 7.78644 13.1286 7.80046 13.1332C7.8159 13.1384 7.82082 13.134 7.81305 13.1219C7.80517 13.1097 7.81425 13.1021 7.83681 13.1021C7.85685 13.1021 7.87842 13.0941 7.88477 13.0844C7.89101 13.0745 7.90382 13.071 7.91324 13.0766C7.92255 13.0821 7.93022 13.0784 7.93022 13.0682C7.93022 13.0578 7.93635 13.0505 7.9439 13.0516C7.95135 13.0528 7.96164 13.0522 7.96668 13.0503C7.97172 13.0485 7.99493 13.0435 8.01825 13.0393C8.07508 13.0292 8.13093 12.9994 8.13093 12.9793C8.13093 12.9703 8.14221 12.9671 8.15589 12.9722C8.16969 12.9772 8.18623 12.9683 8.19258 12.9523C8.19937 12.9354 8.21568 12.9274 8.23145 12.9332C8.26529 12.9457 8.31653 12.9282 8.30394 12.9086C8.29879 12.9006 8.30416 12.8884 8.31598 12.8814C8.32934 12.8735 8.33241 12.8763 8.32431 12.889C8.31719 12.9001 8.31993 12.9093 8.33055 12.9093C8.34128 12.9093 8.34993 12.9009 8.34993 12.8906C8.34993 12.8804 8.35814 12.877 8.36822 12.883C8.37818 12.8889 8.38639 12.885 8.38639 12.8741C8.38639 12.8634 8.39439 12.8593 8.40402 12.865C8.42384 12.8768 8.57079 12.8099 8.59149 12.7797C8.60035 12.7668 8.60517 12.7691 8.60572 12.7865C8.60638 12.8076 8.6101 12.8069 8.62466 12.7828C8.63474 12.7664 8.6539 12.7569 8.66748 12.762C8.68095 12.7669 8.69683 12.7588 8.70274 12.744C8.70865 12.729 8.72486 12.7211 8.73865 12.7262C8.75256 12.7313 8.77424 12.7233 8.78705 12.7085C8.79986 12.6938 8.8176 12.686 8.82647 12.6912C8.83534 12.6965 8.84268 12.6931 8.84268 12.6837C8.84268 12.6681 8.93488 12.6396 8.96357 12.6463C8.97014 12.6479 8.98087 12.6408 8.98744 12.6305C8.99401 12.6203 9.01821 12.6093 9.0412 12.6059C9.06409 12.6025 9.08862 12.591 9.09552 12.5801C9.10241 12.5694 9.12847 12.5569 9.15333 12.5524C9.21837 12.5405 9.26798 12.5201 9.29579 12.4935C9.30915 12.4809 9.32656 12.4743 9.33444 12.479C9.34233 12.4836 9.39084 12.468 9.44241 12.4441C9.49388 12.4202 9.54424 12.4006 9.55432 12.4006C9.56439 12.4006 9.57272 12.3919 9.57272 12.3813C9.57272 12.3705 9.58476 12.3663 9.59954 12.3717C9.61433 12.3772 9.6371 12.3721 9.65013 12.3604C9.66327 12.3489 9.68605 12.3369 9.70083 12.3339C9.71572 12.331 9.73686 12.3173 9.74781 12.3035C9.75887 12.2897 9.77299 12.2833 9.77923 12.2893C9.79763 12.307 9.90187 12.258 9.88884 12.2378C9.88151 12.2264 9.88829 12.2235 9.90669 12.2303C9.92311 12.2364 9.9414 12.2336 9.94753 12.2243C9.95356 12.2149 9.96615 12.2117 9.97546 12.2172C9.98476 12.2228 9.99243 12.2185 9.99243 12.2077C9.99243 12.197 9.99922 12.1922 10.0074 12.197C10.0156 12.202 10.0453 12.1945 10.0733 12.1805C10.1014 12.1666 10.1362 12.1551 10.1508 12.1551C10.1652 12.1551 10.172 12.1472 10.1658 12.1376C10.1596 12.128 10.1612 12.1195 10.1693 12.1187C10.2517 12.1115 10.394 12.057 10.394 12.0327C10.394 12.0235 10.4051 12.0201 10.4189 12.0252C10.4327 12.0302 10.4488 12.0222 10.4547 12.0074C10.4607 11.9925 10.4769 11.9846 10.4907 11.9896C10.5046 11.9948 10.5257 11.9875 10.5376 11.9736C10.5497 11.9597 10.5756 11.9524 10.5953 11.9573C10.615 11.9623 10.6311 11.9583 10.6311 11.9485C10.6311 11.9308 10.7155 11.8939 10.7863 11.8804C10.8063 11.8766 10.8255 11.8659 10.8289 11.8565C10.8322 11.8472 10.8503 11.8395 10.8689 11.8395C10.8876 11.8395 10.9308 11.8236 10.965 11.8042C10.9992 11.7849 11.0697 11.7569 11.1217 11.742C11.1823 11.7248 11.2117 11.7079 11.2036 11.6953C11.1953 11.6825 11.2015 11.6795 11.2213 11.6869C11.238 11.693 11.2517 11.6905 11.2517 11.6811C11.2517 11.6717 11.2685 11.6641 11.2892 11.6641C11.3133 11.6641 11.3221 11.6567 11.3137 11.6435C11.3048 11.6298 11.3104 11.6267 11.3308 11.6343C11.3685 11.6482 11.4194 11.631 11.4053 11.6092C11.3996 11.6003 11.4017 11.5942 11.41 11.5956C11.4183 11.5969 11.4313 11.5962 11.4387 11.5939C11.4463 11.5915 11.4586 11.5879 11.4661 11.5859C11.4736 11.5839 11.5044 11.5722 11.5345 11.56C11.5646 11.5478 11.6002 11.5361 11.6136 11.534C11.6269 11.5318 11.6442 11.5201 11.6521 11.5079C11.66 11.4957 11.6717 11.4866 11.6782 11.4876C11.6848 11.4886 11.7136 11.4777 11.7423 11.4635C11.771 11.4492 11.7996 11.4425 11.8059 11.4484C11.8121 11.4544 11.8331 11.4454 11.8526 11.4285C11.8722 11.4115 11.896 11.4023 11.9056 11.408C11.9152 11.4137 11.9277 11.4067 11.9334 11.3925C11.9393 11.3778 11.9559 11.371 11.9719 11.3769C11.9881 11.3829 11.9999 11.3779 11.9999 11.3649C11.9999 11.3526 12.0054 11.3479 12.012 11.3543C12.0187 11.3607 12.0577 11.3472 12.0988 11.3245C12.1397 11.3018 12.1847 11.2871 12.1986 11.2918C12.214 11.2969 12.219 11.2926 12.2114 11.2807C12.2038 11.2688 12.2086 11.2647 12.2237 11.2703C12.2374 11.2754 12.2632 11.264 12.2811 11.245C12.2989 11.226 12.3245 11.2146 12.3378 11.2194C12.3511 11.2243 12.3818 11.2159 12.406 11.2007C12.4301 11.1854 12.4553 11.178 12.4618 11.1842C12.4682 11.1906 12.4787 11.1827 12.4851 11.1669C12.4913 11.1511 12.5025 11.1417 12.5098 11.1462C12.5172 11.1505 12.543 11.1407 12.5673 11.1244C12.5915 11.1081 12.6266 11.0972 12.6453 11.1003C12.6684 11.104 12.6747 11.0988 12.6652 11.0841C12.6551 11.0684 12.6623 11.0651 12.6905 11.0722C12.7122 11.0777 12.7353 11.0737 12.7419 11.0635C12.7494 11.0517 12.7445 11.05 12.7282 11.0589C12.7102 11.0687 12.708 11.0672 12.7208 11.0539C12.7308 11.0435 12.7615 11.0309 12.7889 11.0263C12.8163 11.0216 12.8471 11.0127 12.8573 11.0066C12.8675 11.0006 12.8934 10.9924 12.9149 10.9884C12.9363 10.9845 12.9672 10.9708 12.9833 10.958C12.9995 10.9453 13.0456 10.9246 13.0858 10.9121C13.126 10.8996 13.2171 10.862 13.2883 10.8284C13.3594 10.7948 13.4319 10.7654 13.4493 10.7629C13.4939 10.7566 13.5155 10.7163 13.4946 10.6785C13.4848 10.6612 13.4823 10.647 13.4889 10.647C13.4954 10.647 13.4917 10.6364 13.4806 10.6234C13.4694 10.6105 13.4663 10.5941 13.4738 10.5869C13.4812 10.5797 13.4719 10.5631 13.4531 10.5499C13.4342 10.5367 13.4233 10.5147 13.4288 10.501C13.4342 10.4874 13.4214 10.4495 13.4002 10.4169C13.379 10.3842 13.3637 10.3437 13.3663 10.3269C13.3689 10.3101 13.3623 10.2962 13.3516 10.2962C13.3409 10.2962 13.3322 10.276 13.3322 10.2513C13.3322 10.2216 13.325 10.2107 13.3108 10.2191C13.2965 10.2277 13.2933 10.2222 13.3011 10.2026C13.3075 10.1865 13.3048 10.1735 13.2951 10.1735C13.2854 10.1735 13.2794 10.1675 13.2818 10.1603C13.289 10.1382 13.2355 10.0252 13.2109 10.0108C13.1982 10.0032 13.1919 9.9865 13.1972 9.97356C13.2023 9.96062 13.1932 9.94504 13.1769 9.93904C13.1607 9.93305 13.1522 9.92074 13.158 9.91169C13.1638 9.90264 13.1602 9.89033 13.15 9.88422C13.1398 9.87823 13.1315 9.8575 13.1315 9.83814C13.1315 9.81888 13.1233 9.80794 13.1132 9.81393C13.1031 9.81993 13.0939 9.81246 13.0927 9.79742C13.089 9.75385 13.0864 9.74533 13.0673 9.71745C13.0375 9.67388 13.0093 9.62517 12.9657 9.54214C12.9428 9.49869 12.9139 9.45723 12.9014 9.44986C12.8889 9.4426 12.8692 9.40925 12.8578 9.37579C12.8463 9.34233 12.8272 9.31676 12.8153 9.31897C12.8035 9.32107 12.7962 9.31223 12.799 9.29919C12.8019 9.28614 12.7875 9.26152 12.767 9.24447C12.7467 9.22753 12.7297 9.2027 12.7294 9.18933C12.7286 9.15998 12.6845 9.10137 12.6631 9.10137C12.6547 9.10137 12.6501 9.09063 12.6528 9.07759C12.6556 9.06443 12.6482 9.04791 12.6363 9.04086C12.622 9.03234 12.6197 9.03571 12.6295 9.05107C12.6386 9.06517 12.6372 9.0698 12.6256 9.06296C12.6154 9.05686 12.5967 9.02803 12.5841 8.99888C12.5715 8.96973 12.5541 8.94585 12.5452 8.94585C12.5364 8.94585 12.5292 8.93711 12.5292 8.92649C12.5292 8.9026 12.4448 8.80422 12.425 8.80496C12.417 8.80527 12.4102 8.7957 12.4098 8.7836C12.4093 8.7716 12.399 8.76371 12.3869 8.76613C12.3748 8.76855 12.365 8.75866 12.365 8.74414C12.365 8.72972 12.3568 8.71783 12.3467 8.71783C12.3366 8.71783 12.3284 8.70552 12.3284 8.69047C12.3284 8.67553 12.3202 8.66806 12.3102 8.67406C12.3001 8.67995 12.2919 8.67206 12.2919 8.65649C12.2919 8.64091 12.2837 8.63302 12.2736 8.63891C12.2637 8.64491 12.2555 8.64154 12.2555 8.63144C12.2555 8.6084 12.0984 8.45646 12.0316 8.41489C12.0042 8.39785 11.9817 8.37217 11.9817 8.35797C11.9817 8.34366 11.9741 8.33208 11.9649 8.33208C11.9555 8.33208 11.9228 8.30788 11.892 8.27832C11.8598 8.24738 11.827 8.22991 11.8148 8.23717C11.8031 8.24412 11.7981 8.24265 11.8036 8.23391C11.8154 8.21518 11.7715 8.17162 11.7559 8.18656C11.7501 8.19214 11.7402 8.18383 11.7338 8.16794C11.7275 8.15215 11.7108 8.13911 11.6969 8.13911C11.6829 8.13911 11.6714 8.13121 11.6714 8.12164C11.6714 8.11196 11.6591 8.10407 11.644 8.10407C11.629 8.10407 11.6166 8.09218 11.6166 8.07776C11.6166 8.06324 11.6084 8.05146 11.5985 8.05146C11.5884 8.05146 11.5761 8.05146 11.5711 8.05146C11.5661 8.05146 11.5461 8.03767 11.5267 8.02073C11.4625 7.96475 11.4359 7.94623 11.4195 7.94623C11.4107 7.94623 11.3887 7.93066 11.3707 7.91162C11.3527 7.89246 11.331 7.8811 11.3222 7.88626C11.3135 7.89152 11.3064 7.8892 11.3064 7.88131C11.3064 7.87342 11.2891 7.85658 11.268 7.84396C11.2362 7.82481 11.2318 7.82491 11.242 7.84406C11.2488 7.8569 11.2427 7.85364 11.2285 7.83691C11.2141 7.82018 11.1971 7.81165 11.1906 7.81786C11.184 7.82418 11.1786 7.82176 11.1786 7.8126C11.1786 7.80334 11.1604 7.7945 11.138 7.79292C11.1156 7.79135 11.0881 7.77788 11.0768 7.76315C11.0656 7.74841 11.0511 7.74147 11.0446 7.74778C11.038 7.75399 11.0327 7.75052 11.0327 7.74C11.0327 7.72947 11.0079 7.70896 10.9776 7.69444C10.9419 7.67728 10.9264 7.67529 10.9334 7.68875C10.9393 7.70012 10.9317 7.69486 10.9166 7.67707C10.9015 7.65919 10.8809 7.64951 10.8708 7.6554C10.8609 7.6614 10.8412 7.65035 10.8269 7.63099C10.8128 7.61163 10.7963 7.60058 10.7901 7.60647C10.7839 7.61236 10.7655 7.60437 10.7492 7.58869C10.7329 7.5729 10.7106 7.56533 10.6999 7.57175C10.6892 7.57806 10.6705 7.57027 10.6583 7.55438C10.6463 7.53839 10.6146 7.52366 10.5881 7.52155C10.5616 7.51945 10.5399 7.51072 10.5399 7.50209C10.5399 7.49357 10.5283 7.49083 10.5141 7.49609C10.4999 7.50125 10.4839 7.49462 10.4785 7.48125C10.4728 7.46715 10.452 7.46 10.4289 7.46421C10.4069 7.46831 10.3941 7.46673 10.4003 7.46074C10.4161 7.44558 10.3192 7.3995 10.2922 7.40939C10.2802 7.41381 10.253 7.40581 10.2318 7.3915C10.2104 7.37719 10.1849 7.37035 10.1749 7.37635C10.1649 7.38224 10.1567 7.37919 10.1567 7.36951C10.1567 7.35993 10.14 7.35509 10.1197 7.35888C10.0993 7.36256 10.0875 7.35814 10.0934 7.3491C10.0993 7.33994 10.0886 7.33247 10.0695 7.33247C10.0506 7.33247 10.0291 7.32679 10.022 7.31995C10.0148 7.313 9.98673 7.30501 9.95958 7.30217C9.93253 7.29922 9.90001 7.29564 9.88753 7.29417C9.87494 7.2927 9.86464 7.28649 9.86464 7.28038C9.86464 7.27428 9.84625 7.26892 9.82358 7.26828C9.77025 7.26702 9.73029 7.25671 9.71791 7.24082C9.71244 7.23388 9.67619 7.22335 9.63732 7.21736C9.59845 7.21146 9.5495 7.20052 9.52859 7.19305C9.50767 7.18558 9.47515 7.18179 9.45643 7.18453C9.43759 7.18737 9.40069 7.18148 9.3743 7.17148C9.32645 7.15328 9.18125 7.13918 8.9859 7.1337C8.92918 7.13202 8.8856 7.12623 8.88922 7.12066C8.89973 7.10414 8.08209 7.10866 8.05121 7.12529ZM8.30624 9.18849C8.30098 9.19649 8.30876 9.20301 8.32332 9.20301C8.33799 9.20301 8.34993 9.19849 8.34993 9.19281C8.34993 9.17334 8.89338 9.19354 8.92842 9.21438C8.94769 9.22585 9.06956 9.24479 9.15618 9.24973C9.17293 9.25068 9.18224 9.25857 9.17665 9.2672C9.17107 9.27593 9.18476 9.2773 9.20764 9.27025C9.23458 9.26204 9.24465 9.26415 9.23688 9.27625C9.22407 9.29613 9.34857 9.33675 9.37474 9.32118C9.38328 9.31613 9.39018 9.32086 9.39018 9.3317C9.39018 9.34243 9.39839 9.34643 9.40847 9.34043C9.41843 9.33444 9.42664 9.33843 9.42664 9.34917C9.42664 9.36 9.43398 9.36442 9.44307 9.35906C9.45205 9.3538 9.46442 9.36211 9.47066 9.37758C9.47778 9.39546 9.49519 9.40241 9.51819 9.39662C9.53811 9.39168 9.55027 9.3942 9.54501 9.4023C9.53987 9.4103 9.55826 9.41946 9.58607 9.42251C9.61378 9.42556 9.63458 9.43766 9.63217 9.44944C9.62966 9.46175 9.63929 9.46649 9.65506 9.4607C9.66995 9.45513 9.68222 9.45944 9.68222 9.47007C9.68222 9.4808 9.69262 9.48953 9.70554 9.48953C9.71835 9.48953 9.74321 9.50563 9.76073 9.52531C9.77825 9.54499 9.80069 9.55635 9.81044 9.55056C9.82019 9.54478 9.82818 9.54835 9.82818 9.55856C9.82818 9.56887 9.8399 9.57718 9.85424 9.57718C9.86859 9.57718 9.8964 9.59697 9.91622 9.62106C9.93593 9.64516 9.95739 9.66483 9.96396 9.66483C9.97053 9.66483 9.99648 9.68472 10.0218 9.70903C10.0471 9.73333 10.0754 9.7487 10.0848 9.74312C10.0943 9.73754 10.1019 9.74386 10.1019 9.75722C10.1019 9.78763 10.245 9.90369 10.2729 9.8958C10.2842 9.89254 10.2875 9.89569 10.2802 9.90285C10.2727 9.9099 10.2873 9.93399 10.3125 9.95641C10.3377 9.97882 10.3599 10.0033 10.362 10.0108C10.3695 10.039 10.4193 10.0836 10.4337 10.0751C10.4419 10.0702 10.4487 10.0735 10.4487 10.0826C10.4487 10.1006 10.4112 10.1347 10.3893 10.1365C10.3253 10.142 10.2833 10.1621 10.3055 10.1765C10.3239 10.1885 10.3209 10.1919 10.2936 10.1898C10.228 10.1847 10.209 10.1905 10.2225 10.2115C10.2315 10.2255 10.2256 10.2283 10.204 10.2203C10.1855 10.2135 10.1607 10.2197 10.1447 10.235C10.1296 10.2496 10.1097 10.2569 10.1005 10.2515C10.0912 10.246 10.0836 10.2504 10.0836 10.2611C10.0836 10.2719 10.0754 10.2759 10.0655 10.2699C10.0554 10.264 10.0472 10.2679 10.0472 10.2787C10.0472 10.2894 10.0382 10.2929 10.0271 10.2864C10.0162 10.2799 9.98323 10.2916 9.95378 10.3125C9.92443 10.3333 9.89333 10.3462 9.88457 10.341C9.87592 10.3358 9.85873 10.3433 9.84647 10.3576C9.83409 10.3718 9.81679 10.3792 9.80781 10.3739C9.79894 10.3686 9.79172 10.3735 9.79172 10.3848C9.79172 10.396 9.78011 10.401 9.76609 10.3957C9.75197 10.3906 9.72536 10.3974 9.70674 10.4109C9.68824 10.4243 9.66196 10.4356 9.64849 10.4359C9.63502 10.4362 9.59856 10.4538 9.56768 10.475C9.53669 10.4962 9.51797 10.5032 9.52596 10.4907C9.53406 10.4782 9.51742 10.4825 9.48906 10.5004C9.43945 10.5317 9.34189 10.5706 9.27739 10.585C9.26053 10.5888 9.20994 10.6115 9.16505 10.6356C9.12015 10.6597 9.07854 10.6748 9.07252 10.6691C9.06661 10.6633 9.06168 10.6678 9.06168 10.6791C9.06168 10.6903 9.04164 10.6996 9.01711 10.6996C8.99258 10.6996 8.96751 10.7075 8.96127 10.7171C8.95513 10.7267 8.93444 10.7346 8.9155 10.7346C8.89655 10.7346 8.87301 10.7484 8.86315 10.7651C8.85341 10.782 8.8395 10.79 8.83217 10.783C8.82483 10.776 8.8072 10.784 8.79297 10.8007C8.77862 10.8174 8.77172 10.822 8.77753 10.8108C8.78432 10.7976 8.77523 10.7937 8.75147 10.7997C8.73132 10.8047 8.71489 10.8159 8.71489 10.8244C8.71489 10.8329 8.70263 10.8399 8.68752 10.8399C8.67251 10.8399 8.66014 10.847 8.66014 10.8557C8.66014 10.8645 8.64372 10.8675 8.62368 10.8625C8.60364 10.8574 8.58722 10.8615 8.58722 10.8717C8.58722 10.8818 8.56871 10.8957 8.54615 10.9027C8.52349 10.9095 8.50509 10.9121 8.50509 10.9085C8.50509 10.9049 8.48472 10.9155 8.45998 10.9322C8.43512 10.949 8.39658 10.9627 8.37435 10.9627C8.35201 10.9627 8.3288 10.9705 8.32255 10.9801C8.31631 10.9898 8.29485 10.9977 8.27481 10.9977C8.25466 10.9977 8.24338 11.0056 8.24952 11.0153C8.25598 11.0252 8.24065 11.0327 8.21415 11.0327C8.18842 11.0327 8.16739 11.0411 8.16739 11.0514C8.16739 11.0616 8.1606 11.0659 8.15217 11.0608C8.14374 11.0559 8.11713 11.065 8.09293 11.0813C8.06884 11.0975 8.03753 11.1125 8.0234 11.1145C8.00927 11.1165 7.99088 11.1285 7.98245 11.1412C7.97073 11.1589 7.96723 11.1592 7.96701 11.1423C7.96679 11.1248 7.95923 11.1246 7.93131 11.1413C7.91193 11.153 7.9001 11.1689 7.90503 11.1766C7.91007 11.1842 7.8931 11.1916 7.86736 11.1928C7.79827 11.196 7.78852 11.198 7.77352 11.2126C7.76596 11.2197 7.74877 11.2257 7.7352 11.2257C7.72162 11.2257 7.67782 11.2455 7.63785 11.2697C7.59788 11.294 7.56514 11.3093 7.56514 11.3038C7.56514 11.2983 7.55496 11.2999 7.54237 11.3075C7.52977 11.3149 7.50744 11.3229 7.49254 11.325C7.47765 11.3272 7.46254 11.3373 7.45904 11.3474C7.45553 11.3577 7.43276 11.366 7.40856 11.366C7.38425 11.366 7.36443 11.373 7.36443 11.3816C7.36443 11.3903 7.35173 11.402 7.33607 11.4077C7.31844 11.4143 7.31242 11.411 7.32008 11.399C7.32687 11.3885 7.31296 11.3916 7.28909 11.4061C7.26533 11.4205 7.21496 11.4416 7.17718 11.4531C7.13951 11.4646 7.11324 11.4812 7.11882 11.4899C7.12451 11.4987 7.11499 11.5007 7.0978 11.4943C7.07732 11.4868 7.07075 11.4895 7.07896 11.5022C7.08641 11.5138 7.07842 11.5212 7.05914 11.5203C7.01184 11.5184 6.92643 11.5549 6.92643 11.577C6.92643 11.5876 6.91208 11.5939 6.89445 11.5911C6.87693 11.5883 6.8523 11.5922 6.83981 11.5998C6.82733 11.6073 6.79985 11.6167 6.77871 11.6206C6.75769 11.6245 6.70217 11.6494 6.65553 11.6761C6.60877 11.7028 6.5665 11.7249 6.56147 11.7253C6.55643 11.7257 6.54208 11.7322 6.52949 11.7399C6.5169 11.7476 6.4985 11.749 6.48843 11.743C6.47835 11.7371 6.47014 11.741 6.47014 11.7518C6.47014 11.7626 6.46259 11.7669 6.45317 11.7613C6.44386 11.7557 6.43094 11.7594 6.42459 11.7693C6.41813 11.7793 6.40521 11.7829 6.3959 11.7774C6.38659 11.7718 6.37893 11.7747 6.37893 11.7838C6.37893 11.7996 6.31159 11.8278 6.28312 11.8238C6.27556 11.8227 6.26943 11.8288 6.26943 11.8373C6.26943 11.85 6.22836 11.8628 6.14613 11.8759C6.11262 11.8811 6.0685 11.9127 6.07671 11.9255C6.08175 11.9332 6.06652 11.9361 6.04287 11.9318C6.01933 11.9274 5.9936 11.9338 5.98582 11.9457C5.97619 11.9608 5.97925 11.9632 5.99568 11.9534C6.01199 11.9437 6.01517 11.9461 6.00575 11.9607C5.9982 11.9725 5.98068 11.9779 5.96688 11.9729C5.93589 11.9615 5.82595 12.0037 5.84325 12.0203C5.85015 12.027 5.84785 12.0323 5.83811 12.0323C5.81008 12.0323 5.79792 11.6845 5.82048 11.5278C5.82639 11.4866 5.83559 11.4076 5.84106 11.3524C5.84643 11.2972 5.85607 11.2362 5.86242 11.2169C5.86877 11.1976 5.87599 11.166 5.87851 11.1468C5.88377 11.1052 5.89384 11.0703 5.91268 11.0284C5.92034 11.0116 5.92768 10.9781 5.92921 10.9539C5.93064 10.9298 5.93896 10.91 5.94761 10.91C5.95637 10.91 5.9591 10.8943 5.95385 10.8749C5.94859 10.8556 5.95232 10.8399 5.96195 10.8399C5.9717 10.8399 5.97454 10.832 5.9683 10.8223C5.96206 10.8127 5.96567 10.8048 5.9763 10.8048C5.98703 10.8048 5.99568 10.7806 5.99568 10.7512C5.99568 10.7216 6.0029 10.7018 6.01188 10.7071C6.02678 10.716 6.05689 10.6551 6.0524 10.625C6.0513 10.6178 6.06006 10.6118 6.07167 10.6118C6.08339 10.6118 6.08821 10.6073 6.0824 10.6016C6.0766 10.5961 6.0916 10.5634 6.11591 10.5291C6.14011 10.4947 6.15993 10.4559 6.15993 10.4429C6.15993 10.4297 6.16858 10.419 6.17931 10.419C6.18993 10.419 6.19354 10.4111 6.1873 10.4014C6.18106 10.3918 6.1861 10.3839 6.19836 10.3839C6.21074 10.3839 6.21545 10.3788 6.20888 10.3726C6.20241 10.3662 6.21468 10.3466 6.23603 10.3287C6.25749 10.3108 6.26921 10.2962 6.26209 10.2962C6.24556 10.2962 6.2852 10.2418 6.35692 10.166C6.3878 10.1335 6.40806 10.102 6.40203 10.0962C6.39601 10.0905 6.4028 10.0857 6.41714 10.0857C6.43149 10.0857 6.45394 10.0691 6.46719 10.0489C6.48471 10.0219 6.48514 10.0155 6.46872 10.0252C6.45437 10.0337 6.45098 10.0313 6.4593 10.0183C6.46642 10.0072 6.48142 9.99807 6.49259 9.99807C6.50376 9.99807 6.54832 9.96251 6.59158 9.91916C6.63494 9.8757 6.67918 9.84024 6.68991 9.84024C6.70075 9.84024 6.70447 9.83235 6.69834 9.82267C6.6921 9.81309 6.70392 9.8052 6.72462 9.8052C6.74586 9.8052 6.76218 9.79373 6.76218 9.7789C6.76218 9.76438 6.77247 9.75248 6.78495 9.75248C6.79755 9.75238 6.83412 9.7286 6.86642 9.69966C6.89861 9.67062 6.93552 9.64895 6.94855 9.65147C6.96147 9.654 6.97001 9.64621 6.96749 9.63421C6.96497 9.62211 6.96913 9.61307 6.97658 9.61412C7.00833 9.61854 7.07119 9.5895 7.06177 9.57476C7.05608 9.56593 7.05827 9.56056 7.06648 9.56266C7.09101 9.56908 7.16919 9.5393 7.19624 9.51331C7.21003 9.50006 7.22799 9.49311 7.23609 9.49795C7.2442 9.50269 7.26095 9.4949 7.27332 9.48048C7.2857 9.46617 7.31176 9.45439 7.33125 9.45439C7.35063 9.45439 7.36213 9.44755 7.35676 9.43913C7.35129 9.43061 7.3675 9.42377 7.39279 9.42377C7.41797 9.42377 7.45269 9.41198 7.46999 9.39757C7.49933 9.37316 7.58376 9.3438 7.63238 9.34117C7.6442 9.34054 7.65986 9.33412 7.66731 9.32707C7.67475 9.31991 7.69895 9.31413 7.72107 9.31413C7.7433 9.31413 7.77078 9.30329 7.78217 9.29014C7.79411 9.27635 7.82652 9.26878 7.85827 9.27235C7.88882 9.27583 7.90985 9.27246 7.90503 9.26499C7.90032 9.25762 7.91018 9.25036 7.92693 9.24899C8.03249 9.24047 8.12107 9.22458 8.12983 9.21269C8.13542 9.20512 8.1709 9.20007 8.20845 9.20154C8.24612 9.20312 8.27689 9.19744 8.27689 9.18902C8.27689 9.18071 8.28565 9.17387 8.29627 9.17387C8.30689 9.17387 8.31138 9.18039 8.30624 9.18849ZM10.9268 13.5555C10.9137 13.5635 10.9054 13.5812 10.9085 13.5948C10.9116 13.6084 10.9038 13.6175 10.8912 13.6151C10.8787 13.6127 10.8684 13.6265 10.8684 13.6458C10.8684 13.6658 10.8563 13.6809 10.84 13.6809C10.8243 13.6809 10.8163 13.6882 10.8221 13.6973C10.8279 13.7063 10.8195 13.7209 10.8033 13.7296C10.7872 13.7383 10.7747 13.7506 10.7756 13.7569C10.7806 13.7925 10.7744 13.8037 10.7498 13.8037C10.7347 13.8037 10.7225 13.8096 10.7225 13.8168C10.7225 13.8241 10.6896 13.8645 10.6494 13.9067C10.6092 13.9489 10.5764 13.9907 10.5764 13.9998C10.5764 14.0087 10.5698 14.0122 10.5616 14.0074C10.5535 14.0025 10.5269 14.0218 10.5026 14.0502C10.4782 14.0785 10.4499 14.1019 10.4397 14.102C10.4296 14.1022 10.3843 14.1335 10.3392 14.1717C10.2157 14.2761 10.2132 14.278 10.1988 14.2762C10.1915 14.2753 10.1796 14.2889 10.1723 14.3065C10.1651 14.3241 10.1586 14.3286 10.158 14.3164C10.1562 14.2875 10.0836 14.3283 10.0836 14.3582C10.0836 14.379 10.0185 14.4056 9.97874 14.401C9.96615 14.3995 9.95597 14.411 9.95597 14.4265C9.95597 14.4419 9.94841 14.45 9.9391 14.4446C9.9299 14.4391 9.9114 14.4446 9.89804 14.4567C9.88468 14.4689 9.85752 14.4815 9.8376 14.4849C9.81778 14.4882 9.78077 14.505 9.75547 14.5221C9.73029 14.5393 9.68298 14.5588 9.65046 14.5657C9.61794 14.5724 9.58662 14.5853 9.58093 14.5941C9.57523 14.603 9.55454 14.6103 9.53505 14.6103C9.51567 14.6103 9.49968 14.618 9.49968 14.6273C9.49968 14.6367 9.48731 14.6398 9.4723 14.6342C9.45719 14.6287 9.44493 14.6319 9.44493 14.6413C9.44493 14.657 9.34507 14.6884 9.31265 14.6828C9.3051 14.6815 9.29897 14.6892 9.29897 14.6998C9.29897 14.7106 9.28605 14.7146 9.27039 14.7088C9.25473 14.703 9.2175 14.7104 9.18771 14.7252C9.15793 14.7399 9.12563 14.7473 9.11588 14.7415C9.10614 14.7357 9.09814 14.7398 9.09814 14.7507C9.09814 14.7614 9.0896 14.7652 9.07909 14.7589C9.06869 14.7527 9.04887 14.7566 9.03518 14.7675C9.01788 14.7812 9.00649 14.7817 8.99828 14.769C8.99007 14.7562 8.97463 14.7567 8.94791 14.7703C8.92677 14.7813 8.86972 14.7893 8.82133 14.7882C8.77282 14.7872 8.73318 14.7926 8.73318 14.8002C8.73318 14.8168 8.24371 14.8147 8.20397 14.798C8.18886 14.7917 8.14779 14.7869 8.11264 14.7873C8.0165 14.7883 7.98497 14.7818 7.98464 14.7609C7.98453 14.7505 7.97642 14.7537 7.96668 14.7681C7.95693 14.7827 7.94883 14.7856 7.94872 14.7748C7.9485 14.7639 7.92693 14.755 7.90076 14.755C7.87448 14.755 7.84776 14.7481 7.84141 14.7397C7.82772 14.7216 7.79104 14.712 7.73399 14.7115C7.71143 14.7113 7.69293 14.7043 7.69293 14.6958C7.69293 14.6874 7.67705 14.6805 7.65778 14.6805C7.6384 14.6805 7.6096 14.6681 7.59383 14.6529C7.57795 14.6377 7.56514 14.6341 7.56514 14.6448C7.56514 14.671 7.4909 14.6329 7.45969 14.5907C7.44688 14.5734 7.42542 14.5633 7.41195 14.5682C7.39837 14.5732 7.3825 14.5652 7.37658 14.5502C7.37034 14.5346 7.35392 14.5276 7.33771 14.5336C7.31942 14.5403 7.30968 14.5338 7.30968 14.5148C7.30968 14.4987 7.30234 14.4898 7.29347 14.4951C7.2846 14.5004 7.26719 14.4931 7.25493 14.4788C7.24266 14.4646 7.22657 14.4565 7.21912 14.4609C7.21179 14.4652 7.18244 14.4454 7.15397 14.4168C7.12539 14.3882 7.09133 14.3648 7.07809 14.3648C7.06495 14.3648 7.05422 14.3588 7.05422 14.3514C7.05422 14.2892 6.96848 14.3087 6.91931 14.3824C6.8904 14.4257 6.8431 14.4941 6.81441 14.5343C6.78572 14.5744 6.76218 14.614 6.76218 14.6222C6.76218 14.6303 6.74214 14.6578 6.71761 14.6831C6.69308 14.7086 6.67786 14.7339 6.68378 14.7395C6.68958 14.7452 6.68093 14.7548 6.66439 14.7609C6.64797 14.767 6.63439 14.7873 6.63439 14.8061C6.63439 14.825 6.62618 14.8355 6.61622 14.8296C6.59979 14.8198 6.59004 14.8428 6.59574 14.8778C6.59694 14.885 6.58972 14.8909 6.57964 14.8909C6.56968 14.8909 6.56147 14.9032 6.56147 14.9183C6.56147 14.9347 6.55292 14.9405 6.54011 14.9329C6.52577 14.9244 6.52248 14.9298 6.53026 14.9492C6.53738 14.9671 6.53332 14.9766 6.51974 14.9741C6.50748 14.9717 6.49872 14.9836 6.50004 15.0006C6.50146 15.0174 6.49051 15.0312 6.47573 15.0312C6.46094 15.0312 6.45229 15.041 6.45645 15.053C6.46061 15.065 6.44638 15.088 6.42481 15.1043C6.40324 15.1206 6.37466 15.1658 6.3613 15.2047C6.34794 15.2437 6.32998 15.2714 6.32144 15.2664C6.3129 15.2613 6.30589 15.2694 6.30589 15.2845C6.30589 15.2995 6.29768 15.3118 6.28772 15.3118C6.27764 15.3118 6.26943 15.3241 6.26943 15.3392C6.26943 15.3542 6.26143 15.3618 6.25169 15.356C6.24194 15.3502 6.2288 15.3655 6.22234 15.39C6.21599 15.4145 6.20198 15.4346 6.19135 15.4346C6.18073 15.4346 6.17745 15.4397 6.18391 15.446C6.19048 15.4522 6.17876 15.4715 6.15796 15.4889C6.13715 15.5062 6.12544 15.5287 6.132 15.5389C6.13847 15.549 6.13102 15.5573 6.11536 15.5573C6.0997 15.5573 6.08897 15.5634 6.09149 15.5709C6.09401 15.5782 6.07342 15.6078 6.04583 15.6364C6.01823 15.665 5.99568 15.6981 5.99568 15.7097C5.99568 15.7213 5.97531 15.7521 5.95035 15.7778C5.92549 15.8036 5.9095 15.8317 5.91498 15.8401C5.92034 15.8486 5.91563 15.8555 5.90447 15.8555C5.89319 15.8555 5.88859 15.8626 5.89417 15.8712C5.89965 15.8798 5.89078 15.8918 5.87435 15.8979C5.85793 15.9039 5.84928 15.9135 5.85508 15.9192C5.86614 15.9298 5.84413 15.9608 5.79135 16.0089C5.77427 16.0244 5.76441 16.0435 5.76956 16.0515C5.77471 16.0594 5.76945 16.0659 5.75795 16.0659C5.73102 16.0659 5.74569 16.1091 5.77361 16.1119C5.78533 16.1132 5.80318 16.1151 5.81314 16.1163C5.82321 16.1175 5.83143 16.1303 5.83143 16.1449C5.83143 16.1615 5.84982 16.1716 5.88158 16.1725C5.90917 16.1733 5.92111 16.178 5.90808 16.1831C5.88399 16.1923 5.97006 16.2452 6.11887 16.3129C6.16157 16.3323 6.19639 16.3562 6.19639 16.3659C6.19639 16.3756 6.2046 16.3788 6.21468 16.3728C6.22475 16.3669 6.23297 16.3704 6.23297 16.3806C6.23297 16.3908 6.25486 16.3991 6.28158 16.3991C6.30841 16.3991 6.32495 16.4042 6.31838 16.4106C6.30337 16.425 6.39579 16.4722 6.41572 16.4603C6.42393 16.4555 6.43346 16.4599 6.43696 16.4701C6.44058 16.4803 6.45832 16.4908 6.47649 16.4934C6.49467 16.496 6.51515 16.5054 6.52182 16.5143C6.53288 16.5291 6.55391 16.5367 6.60702 16.5452C6.61698 16.5469 6.63516 16.56 6.64742 16.5745C6.65969 16.5889 6.66998 16.5947 6.67031 16.5872C6.67064 16.5798 6.69451 16.5853 6.72341 16.5996C6.75221 16.6139 6.78101 16.6207 6.78747 16.6146C6.79382 16.6084 6.81102 16.6186 6.82569 16.6372C6.84025 16.6557 6.85252 16.6653 6.85284 16.6585C6.85317 16.6515 6.89248 16.6621 6.94012 16.682C7.02651 16.718 7.08915 16.7335 7.15036 16.7341C7.1682 16.7343 7.17806 16.7418 7.17226 16.7507C7.16645 16.7597 7.17456 16.7623 7.1901 16.7565C7.20576 16.7507 7.21847 16.7553 7.21847 16.7667C7.21847 16.779 7.23248 16.783 7.25339 16.7766C7.27267 16.7707 7.29369 16.7743 7.30026 16.7845C7.30683 16.7947 7.31986 16.7985 7.32917 16.7929C7.33859 16.7874 7.34614 16.7896 7.34614 16.7977C7.34614 16.8059 7.3606 16.8136 7.37812 16.8149C7.44535 16.8201 7.48346 16.8293 7.49386 16.8429C7.49977 16.8506 7.54664 16.8579 7.59799 16.859C7.64924 16.8601 7.68778 16.8665 7.68351 16.8731C7.67924 16.8797 7.70837 16.8833 7.74823 16.8812C7.78808 16.879 7.82072 16.885 7.82072 16.8944C7.82072 16.9037 7.83298 16.9069 7.84809 16.9013C7.86309 16.8958 7.87547 16.8976 7.87547 16.9053C7.87547 16.9131 7.90207 16.9196 7.9347 16.9198C7.96733 16.9201 8.04738 16.927 8.11264 16.9351C8.26682 16.9543 8.91145 16.9557 9.05259 16.9372C9.11282 16.9292 9.19494 16.9203 9.23502 16.9172C9.2752 16.914 9.30805 16.9083 9.30805 16.9083C9.30805 16.9017 9.38207 16.8888 9.42664 16.8875C9.45183 16.8868 9.48709 16.8787 9.50515 16.8695C9.52322 16.8604 9.56834 16.8492 9.60557 16.8447C9.64269 16.8402 9.68944 16.8334 9.70959 16.8295C9.72963 16.8258 9.76095 16.8221 9.77912 16.8213C9.79719 16.8206 9.80737 16.8126 9.80146 16.8036C9.79555 16.7943 9.81066 16.7905 9.83573 16.7949C9.86037 16.7992 9.88578 16.7947 9.89213 16.7848C9.89848 16.7749 9.91118 16.7713 9.92027 16.7767C9.92947 16.7821 9.95553 16.7766 9.97841 16.7645C10.0012 16.7523 10.0263 16.7442 10.0343 16.7464C10.0421 16.7485 10.0652 16.7418 10.0856 16.7314C10.1059 16.7209 10.1384 16.709 10.1579 16.7048C10.1773 16.7007 10.2107 16.6936 10.2319 16.6891C10.2533 16.6846 10.2899 16.6688 10.3135 16.654C10.3369 16.6392 10.3688 16.6271 10.3841 16.6271C10.3995 16.6271 10.4121 16.6194 10.4121 16.6102C10.4121 16.6008 10.4245 16.5976 10.4395 16.6032C10.4546 16.6088 10.4669 16.6037 10.4669 16.5921C10.4669 16.5803 10.4793 16.5752 10.4945 16.5809C10.5318 16.5947 10.6147 16.5567 10.6003 16.5325C10.594 16.5218 10.5949 16.5184 10.6023 16.5247C10.6188 16.5388 10.7377 16.4937 10.7806 16.4571C10.7975 16.4425 10.8201 16.436 10.8309 16.4423C10.8416 16.4487 10.8554 16.4416 10.8614 16.4265C10.8674 16.4115 10.8801 16.3991 10.8897 16.3991C10.8993 16.3991 10.901 16.409 10.8934 16.4211C10.8851 16.4343 10.8925 16.433 10.9123 16.4174C10.9304 16.4034 10.9573 16.3901 10.9722 16.388C10.9871 16.3859 11.0136 16.3718 11.0311 16.3566C11.0487 16.3414 11.0731 16.329 11.0853 16.329C11.0977 16.329 11.1033 16.322 11.0978 16.3134C11.0867 16.2961 11.1544 16.2706 11.1969 16.2761C11.2119 16.2781 11.2181 16.2736 11.2104 16.2662C11.2028 16.2587 11.2464 16.2303 11.3073 16.2032C11.3786 16.1713 11.4134 16.1464 11.4051 16.1334C11.397 16.1208 11.4001 16.1178 11.4131 16.1256C11.4247 16.1324 11.4342 16.1298 11.4342 16.1196C11.4342 16.1093 11.4465 16.101 11.4616 16.101C11.4766 16.101 11.489 16.0927 11.489 16.0824C11.489 16.0722 11.4972 16.0687 11.5071 16.0747C11.5172 16.0807 11.5254 16.0772 11.5254 16.067C11.5254 16.0567 11.5333 16.0484 11.5428 16.0484C11.5688 16.0484 11.6853 15.9692 11.7281 15.9225C11.7487 15.9001 11.7602 15.8916 11.7538 15.9037C11.7475 15.9158 11.7471 15.9256 11.753 15.9256C11.7588 15.9256 11.7716 15.9054 11.7813 15.8808C11.7911 15.856 11.8065 15.8402 11.8155 15.8455C11.8245 15.8509 11.8365 15.8435 11.8423 15.8291C11.8481 15.8147 11.8633 15.8027 11.8762 15.8025C11.8891 15.8023 11.9201 15.7857 11.9451 15.7659C11.9703 15.746 11.9784 15.7354 11.9634 15.7425C11.9396 15.7538 11.9394 15.7523 11.9626 15.7309C11.9772 15.7175 12.0003 15.6946 12.0141 15.6801C12.0364 15.6567 12.0376 15.6567 12.0252 15.6801C12.0127 15.7035 12.0151 15.7035 12.0465 15.6801C12.1036 15.6377 12.1313 15.6099 12.1167 15.6099C12.1092 15.6099 12.1221 15.5904 12.1454 15.5667C12.1686 15.5428 12.1941 15.5272 12.202 15.5318C12.2099 15.5366 12.2224 15.5311 12.2296 15.5198C12.2386 15.5057 12.2348 15.5041 12.2171 15.5143C12.2031 15.5225 12.2244 15.498 12.2646 15.4598C12.3047 15.4216 12.3451 15.3937 12.3543 15.3978C12.3635 15.4019 12.3658 15.3921 12.3595 15.3761C12.3518 15.3569 12.3572 15.3469 12.375 15.3469C12.3899 15.3469 12.4115 15.3274 12.4228 15.3036C12.4341 15.2798 12.4503 15.2645 12.4588 15.2695C12.4675 15.2747 12.4745 15.2708 12.4745 15.2609C12.4745 15.2511 12.4924 15.2269 12.5143 15.2072C12.5363 15.1877 12.5475 15.1716 12.5391 15.1716C12.5307 15.1716 12.5473 15.1506 12.5761 15.125C12.6048 15.0995 12.6301 15.0665 12.6323 15.0518C12.6346 15.0371 12.6494 15.018 12.6653 15.0095C12.6812 15.001 12.6894 14.9866 12.6836 14.9775C12.6778 14.9685 12.6863 14.9611 12.7026 14.9611C12.7188 14.9611 12.7277 14.9544 12.7225 14.9462C12.7172 14.938 12.7291 14.9147 12.7488 14.8943C12.7686 14.874 12.7847 14.849 12.7847 14.8391C12.7847 14.8289 12.7929 14.8207 12.803 14.8207C12.8129 14.8207 12.8211 14.8084 12.8211 14.7934C12.8211 14.7784 12.8294 14.771 12.8394 14.777C12.8495 14.7829 12.8577 14.7808 12.8577 14.7721C12.8577 14.7636 12.8351 14.7454 12.8075 14.7316C12.756 14.7062 12.7301 14.6888 12.6838 14.6487C12.6692 14.636 12.6492 14.6304 12.6394 14.6362C12.6296 14.642 12.6111 14.6307 12.5984 14.611C12.5856 14.5914 12.5648 14.5753 12.5522 14.5753C12.5395 14.5753 12.5292 14.5683 12.5292 14.5599C12.5292 14.5514 12.5046 14.5346 12.4745 14.5226C12.4444 14.5107 12.4197 14.4939 12.4197 14.4854C12.4197 14.477 12.4077 14.47 12.393 14.47C12.3782 14.47 12.3572 14.4537 12.3461 14.4339C12.335 14.4141 12.3163 14.4008 12.3045 14.4046C12.2928 14.4084 12.2681 14.393 12.2496 14.3704C12.2312 14.3479 12.209 14.3336 12.2005 14.3386C12.192 14.3437 12.18 14.3403 12.1741 14.3309C12.1593 14.3081 12.028 14.225 11.9237 14.1724C11.8767 14.1488 11.8423 14.1232 11.8471 14.1156C11.8521 14.108 11.8433 14.1018 11.8276 14.1018C11.812 14.1018 11.7992 14.0934 11.7992 14.0831C11.7992 14.0729 11.7909 14.0696 11.7808 14.0756C11.7707 14.0816 11.7577 14.0746 11.7519 14.0601C11.7462 14.0457 11.7298 14.0381 11.7155 14.0434C11.6999 14.0491 11.6897 14.0418 11.6897 14.0247C11.6897 14.0093 11.6819 13.9965 11.6724 13.9965C11.6629 13.9965 11.6326 13.9765 11.6051 13.952C11.5777 13.9276 11.5439 13.9117 11.5302 13.9168C11.5166 13.9218 11.5103 13.9181 11.5164 13.9087C11.5264 13.893 11.5023 13.8837 11.4661 13.8892C11.4586 13.8904 11.4524 13.8808 11.4524 13.8678C11.4524 13.8451 11.3662 13.7943 11.3384 13.8006C11.3308 13.8023 11.3247 13.7952 11.3247 13.785C11.3247 13.7748 11.3179 13.7705 11.3097 13.7754C11.3015 13.7802 11.2837 13.7693 11.27 13.751C11.2563 13.7327 11.2383 13.7218 11.2301 13.7266C11.2219 13.7316 11.2152 13.7259 11.2152 13.714C11.2152 13.7022 11.2097 13.6978 11.2032 13.7041C11.1965 13.7105 11.1796 13.7 11.1656 13.6808C11.1516 13.6615 11.1293 13.6458 11.116 13.6458C11.1028 13.6458 11.0821 13.6345 11.0701 13.6206C11.0581 13.6067 11.0352 13.6001 11.0192 13.6059C10.9999 13.6131 10.9947 13.6097 11.0033 13.5962C11.0114 13.5837 11.005 13.5756 10.987 13.5756C10.9708 13.5756 10.9626 13.5678 10.9688 13.5581C10.9824 13.5369 10.9596 13.5356 10.9268 13.5555Z" fill="white"/>
</svg>
