<svg width="32" height="22" viewBox="0 0 32 22" fill="none" xmlns="http://www.w3.org/2000/svg">
<rect width="32" height="22" rx="2" fill="#F4F4F4"/>
<path fill-rule="evenodd" clip-rule="evenodd" d="M22.0566 11.3647H22.0716H22.1006H22.1296H22.1586H22.1876H22.2166H22.2456H22.2746H22.3036H22.3326H22.3616H22.3906H22.4196H22.4486H22.4776H22.5066H22.5356H22.5646H22.5936H22.6226H22.6516H22.6806H22.7096H22.7386H22.7676H22.7966H22.8256H22.8546H22.8836H22.9126H22.9416H22.9706H22.9996H23.0286H23.0576H23.0866H23.1156H23.1446H23.1736H23.2026H23.2316H23.2606H23.2896H23.3186H23.3476H23.3766H23.4056H23.4346H23.4636H23.4926H23.5216H23.5506H23.5796H23.6086H23.6376H23.6666H23.6956H23.7246H23.7536H23.7826H23.8067L23.8116 11.3648C23.8206 11.365 23.8303 11.3654 23.8406 11.366C23.8499 11.3665 23.8597 11.3671 23.8696 11.3679C23.8792 11.3686 23.8889 11.3694 23.8986 11.3703C23.9084 11.3711 23.9181 11.3721 23.9276 11.3732C23.9376 11.3743 23.9474 11.3755 23.9566 11.3767C23.967 11.3781 23.9768 11.3795 23.9856 11.3811C23.992 11.3821 23.9979 11.3832 24.0032 11.3844L24.0146 11.387C24.0243 11.3892 24.034 11.3917 24.0436 11.3943C24.0533 11.397 24.063 11.3999 24.0726 11.4029C24.0824 11.406 24.092 11.4093 24.1016 11.4128C24.1114 11.4163 24.121 11.42 24.1306 11.4239C24.1404 11.4279 24.15 11.4321 24.1596 11.4365C24.1694 11.441 24.1791 11.4456 24.1886 11.4505C24.1984 11.4554 24.208 11.4606 24.2176 11.466C24.2274 11.4715 24.2371 11.4772 24.2466 11.4832C24.2564 11.4892 24.2661 11.4955 24.2756 11.502C24.2854 11.5088 24.2951 11.5157 24.3046 11.5228C24.3144 11.5302 24.3241 11.5379 24.3336 11.5458C24.3435 11.554 24.3531 11.5625 24.3626 11.5712C24.3725 11.5803 24.3822 11.5895 24.3916 11.5991C24.4016 11.6092 24.4112 11.6197 24.4206 11.6304C24.4306 11.6417 24.4403 11.6534 24.4496 11.6654C24.4597 11.6782 24.4694 11.6915 24.4786 11.7051C24.4888 11.7199 24.4985 11.7352 24.5076 11.7509C24.518 11.7685 24.5276 11.7867 24.5366 11.8054C24.5473 11.8275 24.557 11.8503 24.5656 11.8738C24.5772 11.9053 24.587 11.9379 24.5946 11.9717C24.6079 12.0301 24.615 12.0917 24.615 12.1559C24.615 12.2205 24.6079 12.2823 24.5946 12.341C24.587 12.3748 24.5772 12.4075 24.5656 12.4391C24.557 12.4626 24.5473 12.4854 24.5366 12.5076C24.5276 12.5263 24.518 12.5445 24.5076 12.5622C24.4985 12.5779 24.4888 12.5932 24.4786 12.608C24.4694 12.6216 24.4597 12.6349 24.4496 12.6478C24.4403 12.6597 24.4306 12.6714 24.4206 12.6827C24.4112 12.6934 24.4016 12.7038 24.3916 12.7139C24.3822 12.7235 24.3725 12.7328 24.3626 12.7419C24.3531 12.7506 24.3435 12.759 24.3336 12.7671C24.3241 12.775 24.3145 12.7827 24.3046 12.7901C24.2951 12.7972 24.2854 12.8041 24.2756 12.8108C24.2661 12.8173 24.2564 12.8235 24.2466 12.8296C24.2371 12.8355 24.2274 12.8412 24.2176 12.8467C24.2081 12.852 24.1984 12.8572 24.1886 12.8621C24.1791 12.8669 24.1694 12.8715 24.1596 12.876C24.15 12.8803 24.1404 12.8844 24.1306 12.8884C24.121 12.8923 24.1114 12.896 24.1016 12.8995C24.092 12.9029 24.0824 12.9061 24.0726 12.9092C24.063 12.9122 24.0533 12.915 24.0436 12.9177C24.034 12.9203 24.0243 12.9227 24.0146 12.9249L24.0032 12.9275C23.9979 12.9287 23.992 12.9299 23.9856 12.931C23.9768 12.9325 23.967 12.934 23.9566 12.9354C23.9474 12.9367 23.9376 12.9379 23.9276 12.939C23.9181 12.9401 23.9084 12.941 23.8986 12.9419C23.8889 12.9428 23.8792 12.9436 23.8696 12.9442C23.8597 12.945 23.8499 12.9456 23.8406 12.9461C23.8303 12.9466 23.8206 12.947 23.8116 12.9472L23.7961 12.9474H23.7826H23.7536H23.7246H23.6956H23.6666H23.6376H23.6086H23.5796H23.5506H23.5216H23.4926H23.4636H23.4346H23.4056H23.3766H23.3476H23.3186H23.2896H23.2606H23.2316H23.2026H23.1736H23.1446H23.1156H23.0866H23.0576H23.0286H22.9996H22.9706H22.9416H22.9126H22.8836H22.8546H22.8256H22.7966H22.7676H22.7386H22.7096H22.6806H22.6516H22.6226H22.5936H22.5646H22.5356H22.5066H22.4776H22.4486H22.4196H22.3906H22.3616H22.3326H22.3036H22.2746H22.2456H22.2166H22.1876H22.1586H22.1296H22.1006H22.0716H22.0566V11.3647ZM24.3917 9.57338C24.4034 9.62652 24.4096 9.68277 24.4096 9.74203C24.4096 9.80119 24.4034 9.85742 24.3917 9.9105C24.3842 9.94461 24.3745 9.97739 24.3627 10.0088C24.3541 10.0318 24.3444 10.054 24.3337 10.0754C24.3248 10.0934 24.3151 10.1108 24.3047 10.1277C24.2956 10.1426 24.2859 10.1571 24.2757 10.1712C24.2664 10.184 24.2568 10.1964 24.2467 10.2085C24.2374 10.2197 24.2277 10.2306 24.2177 10.2412C24.2083 10.2511 24.1987 10.2608 24.1887 10.2701C24.1793 10.279 24.1696 10.2876 24.1597 10.2959C24.1503 10.3039 24.1406 10.3116 24.1307 10.3191C24.1212 10.3263 24.1116 10.3332 24.1017 10.3399C24.0922 10.3464 24.0825 10.3526 24.0727 10.3587C24.0632 10.3645 24.0535 10.3702 24.0437 10.3756C24.0342 10.3808 24.0245 10.3859 24.0147 10.3908C24.0052 10.3955 23.9955 10.4001 23.9857 10.4044C23.9762 10.4087 23.9665 10.4127 23.9567 10.4165C23.9471 10.4203 23.9375 10.4239 23.9277 10.4273C23.9181 10.4306 23.9085 10.4337 23.8987 10.4367C23.8891 10.4396 23.8795 10.4423 23.8697 10.4448C23.8601 10.4473 23.8505 10.4496 23.8407 10.4517C23.8311 10.4538 23.8215 10.4557 23.8117 10.4574L23.8047 10.4587C23.7991 10.4597 23.7916 10.4608 23.7827 10.4619C23.7742 10.463 23.7643 10.4641 23.7537 10.4652C23.7446 10.4661 23.7348 10.467 23.7247 10.4679C23.7153 10.4687 23.7055 10.4694 23.6957 10.47C23.686 10.4706 23.6762 10.4711 23.6667 10.4715C23.6567 10.4719 23.6469 10.4722 23.6377 10.4722L23.6332 10.4723H23.6088H23.5797H23.5507H23.5218H23.4927H23.4637H23.4348H23.4058H23.3767H23.3478H23.3188H23.2897H23.2608H23.2318H23.2028H23.1738H23.1448H23.1158H23.0868H23.0578H23.0288H22.9998H22.9708H22.9418H22.9128H22.8838H22.8548H22.8258H22.7968H22.7678H22.7388H22.7098H22.6808H22.6518H22.6228H22.5938H22.5648H22.5358H22.5068H22.4778H22.4488H22.4198H22.3908H22.3618H22.3328H22.3038H22.2748H22.2458H22.2168H22.1878H22.1588H22.1298H22.1008H22.0718H22.0566V9.01173H22.0718H22.1008H22.1298H22.1588H22.1878H22.2168H22.2458H22.2748H22.3038H22.3328H22.3618H22.3908H22.4198H22.4488H22.4778H22.5068H22.5358H22.5648H22.5938H22.6228H22.6518H22.6808H22.7098H22.7388H22.7678H22.7968H22.8258H22.8548H22.8838H22.9128H22.9418H22.9708H22.9998H23.0288H23.0578H23.0868H23.1158H23.1448H23.1738H23.2028H23.2318H23.2608H23.2897H23.3188H23.3478H23.3767H23.4058H23.4348H23.4637H23.4927H23.5218H23.5507H23.5797H23.6088H23.6377H23.65L23.6667 9.01228C23.6762 9.01267 23.686 9.01324 23.6957 9.01387C23.7055 9.01449 23.7153 9.01521 23.7247 9.01598C23.7348 9.01679 23.7446 9.01771 23.7537 9.01859C23.7643 9.01963 23.7742 9.02066 23.7827 9.02164C23.7916 9.02265 23.7991 9.02361 23.8047 9.0244L23.8117 9.02567C23.8215 9.02743 23.8311 9.02937 23.8407 9.03151C23.8505 9.03364 23.8601 9.03597 23.8697 9.03849C23.8795 9.04106 23.8891 9.04377 23.8987 9.0467C23.9085 9.04967 23.9181 9.05284 23.9277 9.05618C23.9375 9.05958 23.9471 9.06318 23.9567 9.06698C23.9665 9.07084 23.9762 9.07492 23.9857 9.07917C23.9955 9.08354 24.0052 9.08807 24.0147 9.09282C24.0245 9.09769 24.0342 9.10276 24.0437 9.10804C24.0535 9.11346 24.0632 9.11913 24.0727 9.12498C24.0825 9.13101 24.0922 9.13725 24.1017 9.14375C24.1116 9.15045 24.1212 9.15745 24.1307 9.16465C24.1406 9.17212 24.1503 9.17982 24.1597 9.18779C24.1696 9.19614 24.1793 9.20476 24.1887 9.21364C24.1987 9.22297 24.2083 9.2326 24.2177 9.24253C24.2277 9.25309 24.2374 9.26401 24.2467 9.27524C24.2568 9.28731 24.2664 9.29977 24.2757 9.31258C24.2859 9.32665 24.2956 9.34112 24.3047 9.35607C24.3151 9.37294 24.3248 9.39039 24.3337 9.40837C24.3444 9.4298 24.3541 9.45204 24.3627 9.47499C24.3745 9.50643 24.3842 9.53923 24.3917 9.57338C24.3917 9.57338 24.3842 9.53923 24.3917 9.57338ZM27.9881 2H28L28 17C28 17.0896 27.9959 17.1783 27.9881 17.2659C27.9814 17.343 27.9717 17.4193 27.9591 17.4946C27.9507 17.5452 27.941 17.5954 27.9301 17.6451C27.9213 17.6856 27.9116 17.7257 27.9011 17.7655C27.8921 17.7999 27.8824 17.834 27.8721 17.8679C27.8629 17.8985 27.8533 17.929 27.8431 17.9592C27.8339 17.9866 27.8241 18.0137 27.8141 18.0408C27.8048 18.066 27.7951 18.091 27.7851 18.1158C27.7757 18.1392 27.7661 18.1624 27.7561 18.1854C27.7467 18.2073 27.737 18.229 27.7271 18.2506C27.7176 18.2711 27.708 18.2916 27.6981 18.3118C27.6886 18.3313 27.679 18.3506 27.6691 18.3698C27.6596 18.3883 27.6499 18.4066 27.6401 18.4248C27.6306 18.4423 27.6209 18.4596 27.6111 18.4768C27.6016 18.4936 27.5919 18.5102 27.5821 18.5267C27.5725 18.5428 27.5629 18.5587 27.5531 18.5746C27.5435 18.5901 27.5339 18.6055 27.5241 18.6208C27.5145 18.6356 27.5048 18.6503 27.495 18.6648C27.4855 18.6791 27.4758 18.6931 27.466 18.7072C27.4565 18.721 27.4468 18.7348 27.437 18.7484C27.4275 18.7617 27.4178 18.7749 27.408 18.7881C27.3985 18.8009 27.3888 18.8135 27.379 18.8262C27.3694 18.8386 27.3598 18.8511 27.35 18.8634C27.3404 18.8754 27.3308 18.8874 27.321 18.8993C27.3115 18.911 27.3017 18.9225 27.292 18.934C27.2824 18.9454 27.2728 18.9568 27.263 18.968C27.2534 18.979 27.2437 18.9898 27.234 19.0006C27.2244 19.0113 27.2147 19.022 27.205 19.0325C27.1954 19.043 27.1858 19.0533 27.176 19.0636C27.1664 19.0737 27.1567 19.0836 27.147 19.0936C27.1374 19.1035 27.1278 19.1134 27.118 19.1231C27.1084 19.1327 27.0987 19.142 27.089 19.1514C27.0793 19.1607 27.0697 19.1701 27.06 19.1793C27.0504 19.1884 27.0407 19.1973 27.031 19.2062C27.0214 19.2151 27.0117 19.2239 27.002 19.2326C26.9923 19.2412 26.9827 19.2498 26.973 19.2583C26.9634 19.2667 26.9537 19.275 26.944 19.2833C26.9343 19.2915 26.9247 19.2997 26.915 19.3078C26.9054 19.3157 26.8957 19.3236 26.8859 19.3314C26.8763 19.3392 26.8667 19.347 26.857 19.3547C26.8474 19.3623 26.8376 19.3697 26.8279 19.3772C26.8183 19.3846 26.8087 19.392 26.7989 19.3994C26.7894 19.4066 26.7796 19.4136 26.7699 19.4207C26.7603 19.4278 26.7507 19.4349 26.7409 19.4419C26.7313 19.4487 26.7216 19.4554 26.7119 19.4622C26.7023 19.4689 26.6926 19.4756 26.6829 19.4822C26.6733 19.4888 26.6636 19.4951 26.6539 19.5016C26.6443 19.5079 26.6346 19.5143 26.6249 19.5206C26.6153 19.5269 26.6056 19.5329 26.5959 19.539C26.5863 19.5451 26.5766 19.5512 26.5669 19.5571C26.5573 19.563 26.5476 19.5689 26.5379 19.5747L26.5089 19.5918C26.4992 19.5974 26.4896 19.6031 26.4799 19.6086C26.4703 19.614 26.4606 19.6194 26.4509 19.6248C26.4412 19.6301 26.4316 19.6355 26.4219 19.6408C26.4123 19.6459 26.4026 19.651 26.3929 19.656C26.3832 19.6611 26.3736 19.6663 26.3639 19.6713C26.3543 19.6762 26.3445 19.6809 26.3349 19.6858C26.3252 19.6906 26.3156 19.6954 26.3058 19.7001C26.2962 19.7048 26.2865 19.7093 26.2769 19.7139L26.2478 19.7274L26.2188 19.7406C26.2092 19.7449 26.1995 19.749 26.1898 19.7532C26.1802 19.7574 26.1705 19.7617 26.1608 19.7658C26.1512 19.7698 26.1415 19.7737 26.1318 19.7776C26.1222 19.7816 26.1125 19.7856 26.1028 19.7895C26.0932 19.7933 26.0835 19.7969 26.0738 19.8006C26.0642 19.8043 26.0545 19.808 26.0448 19.8116L26.0158 19.8223C26.0062 19.8258 25.9965 19.8291 25.9868 19.8325C25.9771 19.8359 25.9675 19.8394 25.9578 19.8427C25.9482 19.8459 25.9384 19.8489 25.9288 19.8521L25.8998 19.8615C25.8901 19.8645 25.8805 19.8674 25.8708 19.8704L25.8418 19.879C25.8321 19.8818 25.8225 19.8847 25.8128 19.8875C25.8032 19.8902 25.7934 19.8927 25.7838 19.8953C25.7741 19.8979 25.7645 19.9006 25.7548 19.9031L25.7258 19.9104L25.6968 19.9175L25.6678 19.9244C25.6581 19.9266 25.6484 19.9286 25.6387 19.9307C25.6291 19.9328 25.6194 19.935 25.6097 19.937L25.5807 19.9428L25.5517 19.9484C25.5421 19.9502 25.5324 19.9521 25.5227 19.9538C25.5131 19.9555 25.5034 19.957 25.4937 19.9586L25.4647 19.9634L25.4357 19.9677L25.4067 19.9718C25.397 19.9731 25.3874 19.9746 25.3777 19.9759C25.3681 19.9771 25.3583 19.978 25.3487 19.9792C25.339 19.9803 25.3294 19.9814 25.3197 19.9825C25.31 19.9835 25.3004 19.9846 25.2907 19.9855C25.2811 19.9864 25.2713 19.9872 25.2617 19.9881C25.252 19.9889 25.2424 19.9899 25.2327 19.9906C25.223 19.9914 25.2133 19.992 25.2037 19.9927L25.1747 19.9945C25.165 19.9951 25.1554 19.9958 25.1457 19.9962C25.136 19.9967 25.1263 19.997 25.1166 19.9973L25.0877 19.9984L25.0586 19.9992C25.049 19.9994 25.0393 19.9994 25.0296 19.9996L25.0006 19.9999L24.9946 20H24.9716H24.9426H24.9136H24.8846H24.8556H24.8266H24.7976H24.7686H24.7396H24.7106H24.6816H24.6526H24.6236H24.5946H24.5656H24.5365H24.5076H24.4785H24.4495H24.4205H24.3915H24.3625H24.3335H24.3045H24.2755H24.2465H24.2175H24.1885H24.1595H24.1305H24.1015H24.0725H24.0435H24.0145H23.9855H23.9565H23.9275H23.8985H23.8694H23.8405H23.8114H23.7824H23.7534H23.7244H23.6954H23.6664H23.6374H23.6084H23.5794H23.5504H23.5214H23.4924H23.4634H23.4344H23.4054H23.3764H23.3473H23.3184H23.2893H23.2603H23.2313H23.2023H23.1733H23.1443H23.1153H23.0863H23.0573H23.0283H22.9993H22.9703H22.9413H22.9123H22.8833H22.8543H22.8253H22.7963H22.7673H22.7383H22.7093H22.6802H22.6512H22.6222H22.5932H22.5642H22.5352H22.5062H22.4772H22.4482H22.4192H22.3902H22.3612H22.3322H22.3032H22.2742H22.2452H22.2162H22.1872H22.1582H22.1292H22.1001H22.0712H22.0421H22.0131H21.9841H21.9551H21.9261H21.8971H21.8681H21.8391H21.8101H21.7811H21.7521H21.7231H21.6941H21.6651H21.6361H21.6071H21.5781H21.5491H21.52H21.4911H21.462H21.433H21.404H21.375H21.346H21.317H21.288H21.259H21.23H21.201H21.172H21.143H21.114H21.085H21.056H21.027H20.998H20.969H20.94H20.9109H20.882H20.8529H20.8239H20.7949H20.7659H20.7369H20.7079H20.6789H20.6499H20.5873V13.884H20.6499H20.6789H20.7079H20.7369H20.7659H20.7949H20.8239H20.8529H20.882H20.9109H20.94H20.969H20.998H21.027H21.056H21.085H21.114H21.143H21.172H21.201H21.23H21.259H21.288H21.317H21.346H21.375H21.404H21.433H21.462H21.4911H21.52H21.5491H21.5781H21.6071H21.6361H21.6651H21.6941H21.7231H21.7521H21.7811H21.8101H21.8391H21.8681H21.8971H21.9261H21.9551H21.9841H22.0131H22.0421H22.0712H22.1001H22.1292H22.1582H22.1872H22.2162H22.2452H22.2742H22.3032H22.3322H22.3612H22.3902H22.4192H22.4482H22.4772H22.5062H22.5352H22.5642H22.5932H22.6222H22.6512H22.6802H22.7093H22.7383H22.7673H22.7963H22.8253H22.8543H22.8833H22.9123H22.9413H22.9703H22.9993H23.0283H23.0573H23.0863H23.1153H23.1443H23.1733H23.2023H23.2313H23.2603H23.2893H23.3184H23.3473H23.3764H23.4054H23.4344H23.4634H23.4924H23.5214H23.5504H23.5794H23.6084H23.6374H23.6664H23.6954H23.7244H23.7534H23.7824H23.8114H23.8405H23.8694H23.8985H23.9275H23.9565H23.9855H24.0145H24.0435H24.0725H24.1015H24.1305H24.1595H24.1885H24.2175H24.2465H24.2755H24.3045H24.3335H24.3625H24.3915H24.4205H24.4495H24.4785H24.5076H24.5365H24.5656H24.5946H24.6236H24.6526H24.6816H24.7106H24.7396H24.7686H24.7976H24.8266H24.8556H24.8846H24.9136H24.9426H24.9716H25.0006H25.0296H25.0586H25.0877H25.1166H25.1457H25.1747H25.2037H25.2327H25.248L25.2617 13.8839L25.2907 13.8836L25.3197 13.883C25.3294 13.8828 25.3391 13.8826 25.3487 13.8823C25.3584 13.882 25.368 13.8815 25.3777 13.8811L25.4067 13.8797L25.4357 13.878L25.4647 13.876L25.4937 13.8737L25.5227 13.8711C25.5324 13.8701 25.5421 13.8693 25.5517 13.8683C25.5614 13.8672 25.5711 13.8661 25.5807 13.865L25.6097 13.8614C25.6194 13.8602 25.6291 13.859 25.6387 13.8576C25.6485 13.8563 25.6581 13.8548 25.6678 13.8534C25.6774 13.8519 25.6871 13.8505 25.6968 13.8489L25.7258 13.844L25.7548 13.8388C25.7644 13.837 25.7742 13.8353 25.7838 13.8334C25.7935 13.8315 25.8031 13.8294 25.8128 13.8274L25.8418 13.8211C25.8515 13.819 25.8612 13.8168 25.8708 13.8145C25.8805 13.8123 25.8901 13.8098 25.8998 13.8074C25.9095 13.805 25.9192 13.8026 25.9288 13.8001C25.9385 13.7975 25.9482 13.795 25.9578 13.7923C25.9675 13.7896 25.9771 13.7868 25.9868 13.784C25.9965 13.7812 26.0062 13.7784 26.0158 13.7754L26.0448 13.7664C26.0546 13.7633 26.0642 13.7601 26.0738 13.7568C26.0835 13.7536 26.0932 13.7503 26.1028 13.7469C26.1125 13.7435 26.1222 13.7401 26.1318 13.7366C26.1416 13.733 26.1512 13.7292 26.1608 13.7256C26.1705 13.7218 26.1802 13.718 26.1898 13.7142C26.1995 13.7102 26.2093 13.7064 26.2188 13.7023C26.2286 13.6982 26.2382 13.6941 26.2478 13.6898C26.2576 13.6856 26.2672 13.6812 26.2769 13.6768C26.2866 13.6723 26.2963 13.6678 26.3058 13.6632C26.3156 13.6586 26.3253 13.6539 26.3349 13.6492C26.3446 13.6443 26.3542 13.6393 26.3639 13.6343C26.3736 13.6293 26.3833 13.6241 26.3929 13.6188C26.4026 13.6135 26.4123 13.6082 26.4219 13.6027C26.4316 13.5972 26.4413 13.5916 26.4509 13.5859C26.4606 13.5802 26.4703 13.5744 26.4799 13.5684C26.4897 13.5624 26.4993 13.5562 26.5089 13.55C26.5187 13.5437 26.5283 13.5372 26.5379 13.5307C26.5477 13.5241 26.5573 13.5174 26.5669 13.5106C26.5767 13.5037 26.5863 13.4967 26.5959 13.4896C26.6057 13.4823 26.6154 13.475 26.6249 13.4675C26.6347 13.4599 26.6444 13.4522 26.6539 13.4444C26.6637 13.4364 26.6734 13.4283 26.6829 13.4202C26.6927 13.4118 26.7024 13.4032 26.7119 13.3946C26.7217 13.3857 26.7314 13.3767 26.7409 13.3677C26.7507 13.3583 26.7604 13.3488 26.7699 13.3392C26.7798 13.3293 26.7894 13.3193 26.7989 13.3091C26.8088 13.2986 26.8184 13.2879 26.8279 13.2771C26.8378 13.2659 26.8475 13.2546 26.857 13.2431C26.8668 13.2311 26.8765 13.219 26.8859 13.2067C26.8958 13.1938 26.9056 13.1809 26.915 13.1677C26.9249 13.1537 26.9345 13.1395 26.944 13.1252C26.9539 13.1099 26.9636 13.0945 26.973 13.0789C26.983 13.0622 26.9927 13.0451 27.002 13.0279C27.0121 13.0092 27.0218 12.9902 27.031 12.9709C27.0412 12.9494 27.0509 12.9275 27.06 12.9054C27.0704 12.8799 27.0801 12.8541 27.089 12.8279C27.0999 12.7955 27.1095 12.7625 27.118 12.729C27.1304 12.6799 27.1401 12.6295 27.147 12.5779C27.1554 12.5153 27.1598 12.4509 27.1598 12.3848C27.1598 12.3204 27.1555 12.2579 27.147 12.1972C27.14 12.1473 27.1303 12.0986 27.118 12.0513C27.1095 12.019 27.0999 11.9873 27.089 11.9563C27.0801 11.9308 27.0704 11.9057 27.06 11.8811C27.0509 11.8597 27.0412 11.8387 27.031 11.818C27.0218 11.7994 27.0121 11.7811 27.002 11.763C26.9927 11.7463 26.983 11.7298 26.973 11.7136C26.9636 11.6986 26.9539 11.6838 26.944 11.6691C26.9346 11.6553 26.9249 11.6416 26.915 11.6281C26.9056 11.6154 26.8959 11.6029 26.8859 11.5905C26.8765 11.5786 26.8668 11.567 26.857 11.5554C26.8475 11.5443 26.8378 11.5333 26.8279 11.5225C26.8184 11.5121 26.8088 11.5018 26.7989 11.4916C26.7895 11.4818 26.7798 11.4722 26.7699 11.4626C26.7604 11.4534 26.7507 11.4442 26.7409 11.4352C26.7314 11.4264 26.7217 11.4178 26.7119 11.4093C26.7024 11.4009 26.6927 11.3927 26.6829 11.3846C26.6734 11.3767 26.6637 11.3688 26.6539 11.3611C26.6443 11.3536 26.6347 11.3461 26.6249 11.3388C26.6153 11.3316 26.6057 11.3245 26.5959 11.3175C26.5863 11.3106 26.5767 11.3038 26.5669 11.2971C26.5573 11.2906 26.5477 11.2841 26.5379 11.2776C26.5283 11.2714 26.5186 11.2651 26.5089 11.259C26.4993 11.253 26.4897 11.2471 26.4799 11.2412C26.4703 11.2355 26.4606 11.2298 26.4509 11.2242C26.4413 11.2187 26.4316 11.2133 26.4219 11.208C26.4123 11.2027 26.4026 11.1975 26.3929 11.1924C26.3833 11.1873 26.3736 11.1823 26.3639 11.1774C26.3543 11.1725 26.3446 11.1677 26.3349 11.163C26.3252 11.1583 26.3156 11.1537 26.3058 11.1492C26.2963 11.1447 26.2866 11.1403 26.2769 11.136C26.2673 11.1318 26.2576 11.1276 26.2478 11.1234C26.2382 11.1193 26.2286 11.1153 26.2188 11.1113C26.2092 11.1073 26.1996 11.1034 26.1898 11.0996C26.1802 11.0958 26.1705 11.0921 26.1608 11.0885C26.1512 11.0849 26.1415 11.0814 26.1318 11.0779C26.1222 11.0744 26.1125 11.0711 26.1028 11.0677C26.0932 11.0644 26.0835 11.0611 26.0738 11.0579C26.0642 11.0547 26.0545 11.0516 26.0448 11.0486C26.0352 11.0455 26.0255 11.0426 26.0158 11.0397L25.9868 11.0312C25.9771 11.0285 25.9675 11.0257 25.9578 11.0231C25.9482 11.0204 25.9385 11.0179 25.9288 11.0154C25.9192 11.0129 25.9095 11.0105 25.8998 11.0081C25.8901 11.0058 25.8805 11.0034 25.8708 11.0012C25.8612 10.9989 25.8515 10.9967 25.8418 10.9946C25.8322 10.9924 25.8225 10.9904 25.8128 10.9884C25.8031 10.9864 25.7935 10.9844 25.7838 10.9825L25.7548 10.9769L25.7258 10.9718C25.7161 10.9701 25.7065 10.9684 25.6968 10.9668L25.6678 10.9623C25.6581 10.9608 25.6484 10.9594 25.6387 10.9581L25.6097 10.9541L25.5807 10.9505L25.5517 10.9472L25.5227 10.9442L25.4937 10.9415L25.4647 10.9391L25.4379 10.937L25.4379 10.9023L25.4647 10.8981L25.4937 10.8934C25.5034 10.8917 25.5131 10.8901 25.5227 10.8883L25.5517 10.8827C25.5615 10.8808 25.5711 10.8788 25.5807 10.8768L25.6097 10.8705C25.6194 10.8683 25.6291 10.8661 25.6387 10.8638C25.6485 10.8614 25.6581 10.859 25.6678 10.8565C25.6775 10.8541 25.6871 10.8515 25.6968 10.8489C25.7065 10.8462 25.7162 10.8435 25.7258 10.8408C25.7355 10.838 25.7452 10.8352 25.7548 10.8323C25.7645 10.8294 25.7742 10.8263 25.7838 10.8233C25.7935 10.8201 25.8032 10.8169 25.8128 10.8137C25.8225 10.8104 25.8322 10.807 25.8418 10.8036C25.8515 10.8002 25.8612 10.7967 25.8708 10.7931C25.8805 10.7894 25.8902 10.7857 25.8998 10.7819C25.9095 10.7781 25.9192 10.7742 25.9288 10.7703C25.9385 10.7662 25.9482 10.7621 25.9578 10.758C25.9676 10.7537 25.9772 10.7494 25.9868 10.745C25.9965 10.7406 26.0062 10.736 26.0158 10.7314C26.0256 10.7267 26.0352 10.7219 26.0448 10.7171C26.0546 10.7122 26.0642 10.7072 26.0738 10.7021C26.0836 10.697 26.0933 10.6917 26.1028 10.6864C26.1126 10.681 26.1223 10.6755 26.1318 10.6699C26.1416 10.6642 26.1513 10.6585 26.1608 10.6526C26.1706 10.6466 26.1803 10.6406 26.1898 10.6344C26.1996 10.6282 26.2093 10.6218 26.2188 10.6153C26.2286 10.6087 26.2383 10.602 26.2478 10.5952C26.2576 10.5883 26.2673 10.5812 26.2769 10.5741C26.2867 10.5668 26.2963 10.5594 26.3058 10.5519C26.3157 10.5442 26.3253 10.5364 26.3349 10.5285C26.3447 10.5203 26.3543 10.512 26.3639 10.5037C26.3737 10.495 26.3833 10.4862 26.3929 10.4774C26.4027 10.4682 26.4124 10.459 26.4219 10.4496C26.4317 10.4399 26.4414 10.4301 26.4509 10.4202C26.4608 10.4099 26.4704 10.3994 26.4799 10.3888C26.4898 10.3777 26.4994 10.3665 26.5089 10.3552C26.5188 10.3434 26.5285 10.3314 26.5379 10.3193C26.5478 10.3065 26.5575 10.2935 26.5669 10.2804C26.5769 10.2665 26.5865 10.2525 26.5959 10.2383C26.6059 10.2231 26.6156 10.2078 26.6249 10.1923C26.635 10.1754 26.6447 10.1584 26.6539 10.1412C26.6641 10.1223 26.6737 10.1031 26.6829 10.0838C26.6932 10.062 26.7029 10.0399 26.7119 10.0175C26.7225 9.99152 26.7321 9.96515 26.7409 9.93844C26.752 9.90486 26.7617 9.87074 26.7699 9.83618C26.7833 9.78012 26.793 9.72288 26.7989 9.66465C26.8037 9.61872 26.8061 9.57216 26.8061 9.52515C26.8061 9.47549 26.8036 9.42709 26.7989 9.37988C26.793 9.31954 26.7832 9.26127 26.7699 9.20502C26.7616 9.16988 26.7519 9.13554 26.7409 9.10204C26.7321 9.07523 26.7224 9.04895 26.7119 9.02318C26.7029 9.00098 26.6932 8.97916 26.6829 8.95776C26.6737 8.93865 26.664 8.91986 26.6539 8.90138C26.6446 8.88446 26.6349 8.86781 26.6249 8.85139C26.6155 8.83615 26.6059 8.82113 26.5959 8.80634C26.5865 8.7925 26.5768 8.77886 26.5669 8.76542C26.5575 8.75271 26.5478 8.74015 26.5379 8.72779C26.5284 8.71599 26.5188 8.7043 26.5089 8.6928C26.4994 8.68188 26.4897 8.67116 26.4799 8.66052C26.4704 8.6503 26.4607 8.64022 26.4509 8.63026C26.4414 8.62066 26.4317 8.61121 26.4219 8.60187C26.4124 8.59282 26.4027 8.58387 26.3929 8.57509C26.3833 8.56657 26.3737 8.55814 26.3639 8.54984C26.3543 8.54178 26.3447 8.53381 26.3349 8.52596C26.3253 8.51833 26.3157 8.51077 26.3058 8.50335C26.2963 8.4961 26.2866 8.48898 26.2769 8.48195C26.2673 8.47506 26.2576 8.46829 26.2478 8.46159C26.2383 8.45507 26.2286 8.44863 26.2188 8.44227C26.2093 8.43603 26.1996 8.42989 26.1898 8.42384C26.1803 8.41792 26.1706 8.41208 26.1608 8.40632C26.1512 8.40066 26.1416 8.39509 26.1318 8.3896C26.1223 8.3842 26.1126 8.37887 26.1028 8.37364C26.0932 8.36848 26.0836 8.36344 26.0738 8.35842C26.0642 8.3535 26.0546 8.34865 26.0448 8.34388C26.0352 8.33917 26.0256 8.33449 26.0158 8.32996C26.0062 8.32547 25.9965 8.32103 25.9868 8.31671C25.9772 8.31244 25.9675 8.30831 25.9578 8.30416C25.9482 8.30008 25.9385 8.29607 25.9288 8.29211C25.9192 8.28822 25.9095 8.28438 25.8998 8.28061C25.8902 8.2769 25.8805 8.2732 25.8708 8.2696C25.8612 8.26605 25.8515 8.26257 25.8418 8.25914C25.8322 8.25575 25.8225 8.25246 25.8128 8.2492C25.8032 8.24598 25.7935 8.24284 25.7838 8.23974C25.7742 8.23667 25.7645 8.23365 25.7548 8.2307C25.7451 8.22777 25.7355 8.22484 25.7258 8.22203C25.7162 8.21927 25.7065 8.21661 25.6968 8.21397C25.6871 8.21133 25.6775 8.20879 25.6678 8.20626L25.6387 8.1989C25.6291 8.19652 25.6195 8.19419 25.6097 8.19194C25.6001 8.18971 25.5904 8.18755 25.5807 8.18543L25.5517 8.17927C25.5421 8.17727 25.5325 8.17526 25.5227 8.17339C25.5131 8.17151 25.5034 8.16979 25.4937 8.16801L25.4647 8.16292C25.4551 8.16129 25.4454 8.15963 25.4357 8.1581L25.4067 8.15371L25.3777 8.14963L25.3487 8.14579L25.3197 8.14236L25.2907 8.13924L25.2617 8.13633L25.2327 8.13379L25.2037 8.13156L25.1747 8.12949L25.1457 8.12784L25.1341 8.12719L25.1166 8.12611L25.0877 8.1244L25.0586 8.1228L25.0296 8.12128L25.0006 8.11989L24.9716 8.11864L24.9426 8.11759L24.9136 8.1167L24.8846 8.11605L24.8556 8.11567L24.8396 8.11562H24.8266H24.7976H24.7686H24.7396H24.7106H24.6816H24.6526H24.6236H24.5946H24.5656H24.5365H24.5076H24.4785H24.4495H24.4205H24.3915H24.3625H24.3335H24.3045H24.2755H24.2465H24.2175H24.1885H24.1595H24.1305H24.1015H24.0725H24.0435H24.0145H23.9855H23.9565H23.9275H23.8985H23.8694H23.8405H23.8114H23.7824H23.7534H23.7244H23.6954H23.6664H23.6374H23.6084H23.5794H23.5504H23.5214H23.4924H23.4634H23.4344H23.4054H23.3764H23.3473H23.3184H23.2893H23.2603H23.2313H23.2023H23.1733H23.1443H23.1153H23.0863H23.0573H23.0283H22.9993H22.9703H22.9413H22.9123H22.8833H22.8543H22.8253H22.7963H22.7673H22.7383H22.7093H22.6802H22.6512H22.6222H22.5932H22.5642H22.5352H22.5062H22.4772H22.4482H22.4192H22.3902H22.3612H22.3322H22.3032H22.2742H22.2452H22.2162H22.1872H22.1582H22.1292H22.1001H22.0712H22.0421H22.0131H21.9841H21.9551H21.9261H21.8971H21.8681H21.8391H21.8101H21.7811H21.7521H21.7231H21.6941H21.6651H21.6361H21.6071H21.5781H21.5491H21.52H21.4911H21.462H21.433H21.404H21.375H21.346H21.317H21.288H21.259H21.23H21.201H21.172H21.143H21.114H21.085H21.056H21.027H20.998H20.969H20.94H20.9109H20.882H20.8529H20.8239H20.7949H20.7659H20.7369H20.7079H20.6789H20.6499H20.5873V5.00025C20.5873 4.79066 20.6089 4.58614 20.6499 4.38867C20.6587 4.34639 20.6684 4.30446 20.6789 4.26287C20.6879 4.22728 20.6976 4.19195 20.7079 4.15689C20.7171 4.12557 20.7268 4.09447 20.7369 4.06358C20.7462 4.03536 20.7558 4.00728 20.7659 3.97944C20.7753 3.95361 20.7849 3.92794 20.7949 3.90245C20.8043 3.87864 20.814 3.85495 20.8239 3.83146C20.8334 3.80928 20.843 3.7872 20.8529 3.76529C20.8624 3.74448 20.8721 3.72382 20.882 3.70328C20.8914 3.68367 20.9011 3.66421 20.9109 3.64484C20.9204 3.62622 20.9301 3.60774 20.94 3.58933C20.9494 3.57159 20.9591 3.55398 20.969 3.53646C20.9785 3.51947 20.9881 3.50262 20.998 3.48584C21.0075 3.46957 21.0171 3.45337 21.027 3.43732C21.0365 3.42174 21.0462 3.40629 21.056 3.3909C21.0655 3.376 21.0752 3.36124 21.085 3.34653C21.0945 3.33213 21.1042 3.31778 21.114 3.30355C21.1236 3.2896 21.1331 3.27566 21.143 3.26188C21.1525 3.24854 21.1623 3.23536 21.172 3.22219C21.1815 3.20923 21.1913 3.19636 21.201 3.18357C21.2106 3.17097 21.2202 3.15833 21.23 3.14589C21.2395 3.1338 21.2493 3.12189 21.259 3.10994C21.2686 3.09816 21.2783 3.08647 21.288 3.07486C21.2976 3.06338 21.3072 3.05191 21.317 3.04059C21.3266 3.02955 21.3363 3.0187 21.346 3.0078C21.3557 2.997 21.3653 2.98618 21.375 2.97552C21.3846 2.96508 21.3943 2.95474 21.404 2.94442C21.4136 2.93424 21.4233 2.92414 21.433 2.91409C21.4427 2.90417 21.4523 2.89426 21.462 2.88447C21.4716 2.87485 21.4813 2.86537 21.4911 2.85589C21.5007 2.84646 21.5103 2.83693 21.52 2.82764C21.5296 2.81854 21.5394 2.80966 21.5491 2.80069C21.5587 2.79176 21.5683 2.78281 21.5781 2.774C21.5877 2.76534 21.5974 2.75684 21.6071 2.74832C21.6167 2.73985 21.6263 2.73138 21.6361 2.72303C21.6457 2.71479 21.6554 2.70668 21.6651 2.69857C21.6747 2.69053 21.6844 2.68252 21.6941 2.6746C21.7037 2.66675 21.7134 2.659 21.7231 2.65129L21.7521 2.62852L21.7811 2.60634C21.7907 2.59907 21.8004 2.59185 21.8101 2.58469C21.8197 2.57762 21.8294 2.57056 21.8391 2.56358L21.8681 2.54301C21.8777 2.53626 21.8874 2.52957 21.8971 2.52294L21.9261 2.50334L21.9551 2.48426C21.9648 2.47799 21.9744 2.47175 21.9841 2.46561L22.0131 2.44751C22.0228 2.44154 22.0324 2.43556 22.0421 2.42971C22.0518 2.4239 22.0615 2.41826 22.0712 2.41257C22.0808 2.40688 22.0904 2.40115 22.1001 2.39558C22.1097 2.39008 22.1195 2.38478 22.1292 2.37938C22.1388 2.37398 22.1484 2.36849 22.1582 2.36321C22.1678 2.358 22.1775 2.35296 22.1872 2.34785C22.1968 2.34273 22.2064 2.3376 22.2162 2.33258C22.2258 2.32761 22.2355 2.32279 22.2452 2.31794C22.2548 2.31312 22.2645 2.30827 22.2742 2.30354L22.3032 2.28955C22.3128 2.28497 22.3225 2.2805 22.3322 2.27602C22.3419 2.27155 22.3515 2.26702 22.3612 2.26265C22.3708 2.25833 22.3805 2.2542 22.3902 2.24998C22.3999 2.24575 22.4095 2.24146 22.4192 2.23733C22.4288 2.23325 22.4386 2.22936 22.4482 2.22538C22.4579 2.22142 22.4675 2.21741 22.4772 2.21355L22.5062 2.20215L22.5352 2.19113C22.5449 2.18748 22.5545 2.18379 22.5642 2.18026C22.5738 2.17675 22.5836 2.17347 22.5932 2.17006C22.6029 2.16665 22.6125 2.16317 22.6222 2.15986C22.6319 2.15657 22.6416 2.15348 22.6512 2.15028L22.6802 2.1409C22.6899 2.13783 22.6996 2.13473 22.7093 2.13176C22.7189 2.1288 22.7286 2.12602 22.7383 2.12316C22.7479 2.12028 22.7576 2.11731 22.7673 2.11455C22.7769 2.11181 22.7866 2.10927 22.7963 2.10663C22.8059 2.10399 22.8156 2.10133 22.8253 2.09878L22.8543 2.09129C22.8639 2.08887 22.8736 2.08657 22.8833 2.08424C22.893 2.08191 22.9026 2.07941 22.9123 2.07718C22.9219 2.07497 22.9316 2.07296 22.9413 2.07082L22.9703 2.06451L22.9993 2.05853C23.0089 2.05661 23.0186 2.05481 23.0283 2.05299C23.038 2.05114 23.0476 2.04917 23.0573 2.04742C23.067 2.04567 23.0767 2.04418 23.0863 2.04255L23.1153 2.03775C23.125 2.03621 23.1346 2.03463 23.1443 2.03319C23.154 2.03175 23.1637 2.03048 23.1733 2.02914C23.183 2.02779 23.1926 2.02633 23.2023 2.02508C23.212 2.02383 23.2217 2.02273 23.2313 2.02158L23.2603 2.01826C23.27 2.01721 23.2797 2.01603 23.2893 2.01507C23.299 2.01411 23.3087 2.01337 23.3184 2.0125L23.3473 2.00994L23.3764 2.00775C23.386 2.00706 23.3957 2.0065 23.4054 2.0059C23.415 2.00533 23.4247 2.00458 23.4344 2.00408C23.444 2.00358 23.4537 2.00329 23.4634 2.00288L23.4924 2.0018C23.5021 2.00149 23.5117 2.00108 23.5214 2.00086C23.531 2.00065 23.5407 2.00062 23.5504 2.00048C23.5601 2.00034 23.5697 2.00017 23.5794 2.00012L23.5867 2.00002H23.6084H23.6374H23.6664H23.6954H23.7244H23.7534H23.7824H23.8114H23.8405H23.8694H23.8985H23.9275H23.9565H23.9855H24.0145H24.0435H24.0725H24.1015H24.1305H24.1595H24.1885H24.2175H24.2465H24.2755H24.3045H24.3335H24.3625H24.3915H24.4205H24.4495H24.4785H24.5076H24.5365H24.5656H24.5946H24.6236H24.6526H24.6816H24.7106H24.7396H24.7686H24.7976H24.8266H24.8556H24.8846H24.9136H24.9426H24.9716H25.0006H25.0296H25.0586H25.0877H25.1166H25.1457H25.1747H25.2037H25.2327H25.2617H25.2907H25.3197H25.3487H25.3777H25.4067H25.4357H25.4647H25.4937H25.5227H25.5517H25.5807H25.6097H25.6387H25.6678H25.6968H25.7258H25.7548H25.7838H25.8128H25.8418H25.8708H25.8998H25.9288H25.9578H25.9868H26.0158H26.0448H26.0738H26.1028H26.1318H26.1608H26.1898H26.2188H26.2478H26.2769H26.3058H26.3349H26.3639H26.3929H26.4219H26.4509H26.4799H26.5089H26.5379H26.5669H26.5959H26.6249H26.6539H26.6829H26.7119H26.7409H26.7699H26.7989H26.8279H26.857H26.8859H26.915H26.944H26.973H27.002H27.031H27.06H27.089H27.118H27.147H27.176H27.205H27.234H27.263H27.292H27.321H27.35H27.379H27.408H27.437H27.466H27.495H27.5241H27.5531H27.5821H27.6111H27.6401H27.6691H27.6981H27.7271H27.7561H27.7851H27.8141H27.8431H27.8721H27.9011H27.9301H27.9591H27.9881V2Z" fill="#479951"/>
<path fill-rule="evenodd" clip-rule="evenodd" d="M4.06219 12.439C4.04144 12.4292 4.02072 12.4193 4 12.4093V5.00022C4 4.79124 4.02144 4.58724 4.06219 4.39031C4.07094 4.34802 4.08065 4.30612 4.09116 4.2645C4.10015 4.22886 4.10984 4.19351 4.1201 4.1584C4.12926 4.12711 4.13893 4.09605 4.14905 4.06519C4.15833 4.03694 4.16792 4.00881 4.17801 3.98093C4.18737 3.95513 4.19693 3.92947 4.20696 3.90401C4.21631 3.8802 4.22597 3.85647 4.23593 3.83295C4.24533 3.81077 4.25497 3.78874 4.26487 3.76685C4.27429 3.74604 4.28396 3.72541 4.29381 3.70486C4.30324 3.68523 4.31295 3.66574 4.32278 3.64635C4.33223 3.62773 4.34189 3.60925 4.35172 3.59087C4.3612 3.57313 4.37086 3.55551 4.38067 3.53799C4.39016 3.52103 4.3998 3.50416 4.40964 3.4874C4.41916 3.47113 4.42875 3.45491 4.43858 3.43883C4.4481 3.42328 4.45776 3.40785 4.46755 3.39249C4.47702 3.37761 4.48676 3.36282 4.49649 3.34811C4.50604 3.33371 4.51565 3.31936 4.52544 3.30513C4.53505 3.29116 4.54457 3.27722 4.5544 3.26342C4.5639 3.2501 4.57364 3.23695 4.58335 3.22377C4.59292 3.21081 4.60256 3.19795 4.61232 3.18516C4.62191 3.17258 4.63147 3.15991 4.64126 3.14748C4.65078 3.13541 4.66051 3.12353 4.6702 3.1116C4.67977 3.09982 4.68941 3.08808 4.69917 3.07644C4.70876 3.06499 4.71835 3.05357 4.72811 3.04227C4.73766 3.0312 4.74737 3.02033 4.75708 3.00941C4.76667 2.99859 4.77627 2.98779 4.78603 2.97713C4.79557 2.96669 4.80528 2.9564 4.81497 2.9461C4.82456 2.9359 4.8342 2.9258 4.84394 2.91574C4.85353 2.90583 4.86315 2.89592 4.87288 2.88613C4.88245 2.8765 4.89216 2.86702 4.90185 2.85754C4.91149 2.84811 4.92103 2.83861 4.93079 2.82932C4.94034 2.82022 4.95007 2.81134 4.95974 2.80237C4.96938 2.79342 4.97894 2.78444 4.9887 2.77563C4.99827 2.76699 5.00798 2.75852 5.01765 2.75C5.02729 2.74153 5.03688 2.73303 5.04662 2.72468C5.05621 2.71645 5.06587 2.70836 5.07556 2.70025C5.08515 2.69221 5.09479 2.68417 5.1045 2.67625C5.1141 2.66843 5.12378 2.66068 5.13347 2.65295C5.14309 2.64529 5.1527 2.63771 5.16242 2.63017C5.17201 2.62271 5.1817 2.61534 5.19138 2.608C5.201 2.60073 5.21064 2.59348 5.22033 2.58633L5.24927 2.56526C5.25889 2.55832 5.26853 2.55143 5.27824 2.54462C5.28783 2.53787 5.29749 2.5312 5.30718 2.52458C5.3168 2.51798 5.32644 2.51142 5.33613 2.50495C5.34574 2.49854 5.35541 2.49223 5.36509 2.48591C5.37471 2.47965 5.38433 2.47334 5.39404 2.46717C5.40363 2.46107 5.41332 2.45512 5.42301 2.44912C5.43265 2.44315 5.44224 2.4371 5.45195 2.43124C5.46152 2.42546 5.47123 2.41984 5.48089 2.41416C5.49056 2.40847 5.50013 2.40268 5.50986 2.39709C5.51943 2.3916 5.52917 2.38634 5.53881 2.38094C5.54847 2.37554 5.55806 2.37007 5.56777 2.36477C5.57736 2.35953 5.58705 2.35449 5.59672 2.34938C5.60636 2.34427 5.61597 2.33913 5.62566 2.33412C5.63528 2.32915 5.64494 2.32428 5.65463 2.31941L5.68357 2.30506C5.69321 2.30033 5.70285 2.2956 5.71254 2.29099C5.72216 2.28641 5.73182 2.28197 5.74148 2.27748C5.75115 2.27299 5.76072 2.26841 5.77043 2.26404C5.78002 2.2597 5.78973 2.25562 5.7994 2.25139C5.80904 2.24717 5.81865 2.24287 5.82834 2.23874C5.83796 2.23467 5.84764 2.23073 5.85731 2.22675L5.88625 2.21494L5.91519 2.20347L5.94416 2.19247C5.95383 2.18883 5.96339 2.18506 5.97311 2.18151C5.9827 2.178 5.99243 2.17474 6.00207 2.17133C6.01171 2.16792 6.02133 2.16447 6.03102 2.16116L6.05996 2.15148L6.08893 2.1421C6.09857 2.13903 6.10819 2.13588 6.11787 2.13291C6.12747 2.12996 6.13718 2.12715 6.14682 2.12429C6.15648 2.12141 6.1661 2.11848 6.17579 2.1157C6.1854 2.11294 6.19507 2.11037 6.20473 2.10771L6.2337 2.09986C6.24334 2.09732 6.25295 2.09473 6.26264 2.09228C6.27226 2.08983 6.28194 2.0876 6.29158 2.08525C6.30122 2.08289 6.31086 2.08045 6.32055 2.07819C6.33017 2.07596 6.33986 2.07387 6.3495 2.07173L6.37846 2.06545C6.3881 2.06338 6.39772 2.06129 6.40741 2.05935C6.41702 2.05743 6.42671 2.05565 6.43635 2.05381C6.44602 2.05196 6.45563 2.05004 6.46532 2.04829C6.47496 2.04653 6.4846 2.04495 6.49426 2.04329L6.52323 2.03849C6.53287 2.03696 6.54249 2.0353 6.55217 2.03384C6.56179 2.03238 6.57148 2.03115 6.58112 2.02978C6.59076 2.02844 6.6004 2.027 6.61009 2.02573L6.63903 2.0221L6.668 2.01882C6.67766 2.01774 6.68725 2.01649 6.69694 2.0155C6.70656 2.01452 6.71625 2.0138 6.72589 2.01291L6.75485 2.01037C6.76449 2.00955 6.77413 2.00876 6.7838 2.00806C6.79344 2.00737 6.8031 2.00682 6.81277 2.00622C6.82243 2.00562 6.83205 2.00492 6.84171 2.00439C6.85133 2.00386 6.86099 2.0035 6.87065 2.00307L6.89962 2.00197C6.90926 2.00163 6.91888 2.00113 6.92856 2.00089C6.93818 2.00065 6.94787 2.00067 6.95751 2.00053C6.96715 2.00038 6.97681 2.00022 6.98648 2.00017L6.99934 2H7.01542H7.04439H7.07333H7.10228H7.13124H7.16019H7.18915H7.2181H7.24704H7.27601H7.30495H7.33392H7.36287H7.39181H7.42078H7.44972H7.47869H7.50763H7.53658H7.56554H7.59449H7.62346H7.6524H7.68134H7.71031H7.73926H7.76822H7.79717H7.82611H7.85508H7.88402H7.91299H7.94193H7.97088H7.99985H8.02879H8.05773H8.0867H8.11564H8.14461H8.17356H8.2025H8.23147H8.26041H8.28938H8.31832H8.34727H8.37624H8.40518H8.43415H8.46309H8.49203H8.521H8.54995H8.57891H8.60786H8.6368H8.66577H8.69471H8.72366H8.75262H8.78157H8.81054H8.83948H8.86845H8.89739H8.92634H8.9553H8.98425H9.01319H9.04216H9.0711H9.10007H9.12901H9.15796H9.18693H9.21587H9.24484H9.27378H9.30273H9.33169H9.36064H9.38961H9.41855H9.44749H9.47646H9.5054H9.53435H9.56332H9.59226H9.62123H9.65017H9.67914H9.70808H9.73703H9.76599H9.79494H9.82391H9.85285H9.88179H9.91076H9.9397H9.96865H9.99762H10.0266H10.0555H10.0845H10.1134H10.1424H10.1713H10.2003H10.2292H10.2582H10.2872H10.3161H10.3451H10.374H10.403H10.4319H10.4609H10.4898H10.5188H10.5477H10.5767H10.6056H10.6346H10.6635H10.6925H10.7215H10.7504H10.7793H10.8083H10.8373H10.8662H10.8952H10.9241H10.9531H10.982H11.011H11.0399H11.0689H11.0978H11.1268H11.1558H11.1847H11.2136H11.2426H11.2716H11.3005H11.3295H11.3584H11.3874H11.4119V17C11.4119 17.1305 11.4036 17.259 11.3874 17.3851C11.3796 17.4459 11.3698 17.5059 11.3584 17.5654C11.3498 17.6107 11.3401 17.6556 11.3295 17.7001C11.3205 17.7377 11.3109 17.7749 11.3005 17.8119C11.2914 17.8443 11.2817 17.8765 11.2716 17.9084C11.2623 17.9374 11.2527 17.9661 11.2426 17.9946C11.2333 18.0211 11.2237 18.0473 11.2136 18.0734C11.2043 18.0978 11.1946 18.122 11.1847 18.146C11.1753 18.1687 11.1657 18.1912 11.1558 18.2135C11.1463 18.2348 11.1367 18.2558 11.1268 18.2768C11.1174 18.2968 11.1077 18.3166 11.0978 18.3364C11.0884 18.3554 11.0787 18.3742 11.0689 18.3929C11.0594 18.4109 11.0498 18.4289 11.0399 18.4467C11.0304 18.4639 11.0208 18.4811 11.011 18.4981C11.0015 18.5145 10.9918 18.5308 10.982 18.547C10.9725 18.5627 10.9628 18.5783 10.9531 18.5938C10.9436 18.6089 10.9339 18.624 10.9241 18.6389C10.9145 18.6535 10.905 18.6681 10.8952 18.6825C10.8856 18.6965 10.876 18.7104 10.8662 18.7242C10.8567 18.7378 10.847 18.7511 10.8373 18.7645C10.8277 18.7776 10.8181 18.7907 10.8083 18.8037C10.7988 18.8164 10.7891 18.8289 10.7793 18.8414C10.7698 18.8536 10.7601 18.8657 10.7504 18.8778C10.7408 18.8897 10.7312 18.9017 10.7215 18.9134C10.7119 18.9249 10.7022 18.9363 10.6925 18.9476C10.6829 18.9588 10.6733 18.9699 10.6635 18.9809C10.6539 18.9918 10.6444 19.0028 10.6346 19.0135C10.6251 19.024 10.6153 19.0344 10.6056 19.0448C10.596 19.0551 10.5864 19.0654 10.5767 19.0755C10.5671 19.0855 10.5574 19.0953 10.5477 19.1051C10.5381 19.1149 10.5285 19.1245 10.5188 19.1341C10.5092 19.1436 10.4995 19.153 10.4898 19.1624C10.4802 19.1715 10.4706 19.1806 10.4609 19.1897C10.4512 19.1987 10.4417 19.2077 10.4319 19.2166C10.4224 19.2253 10.4126 19.2338 10.403 19.2424C10.3933 19.251 10.3838 19.2596 10.374 19.2681C10.3645 19.2763 10.3547 19.2844 10.3451 19.2925C10.3354 19.3007 10.3258 19.3089 10.3161 19.3169C10.3065 19.3248 10.2968 19.3325 10.2872 19.3402C10.2775 19.3479 10.2679 19.3557 10.2582 19.3633C10.2486 19.3708 10.2389 19.3781 10.2292 19.3855C10.2196 19.3928 10.21 19.4002 10.2003 19.4074C10.1907 19.4146 10.181 19.4215 10.1713 19.4285C10.1617 19.4355 10.1521 19.4426 10.1424 19.4495C10.1328 19.4562 10.1231 19.4628 10.1134 19.4695C10.1038 19.4762 10.0942 19.4829 10.0845 19.4895C10.0749 19.4959 10.0652 19.5022 10.0555 19.5085C10.0459 19.5148 10.0363 19.5213 10.0266 19.5275C10.017 19.5336 10.0073 19.5395 9.99762 19.5455C9.98798 19.5516 9.97839 19.5577 9.96865 19.5636C9.95906 19.5694 9.94935 19.5751 9.9397 19.5808C9.93007 19.5865 9.92047 19.5923 9.91076 19.5979C9.90115 19.6034 9.89148 19.6089 9.88179 19.6143C9.87218 19.6197 9.86254 19.6252 9.85285 19.6305C9.84323 19.6357 9.83359 19.641 9.82391 19.6461L9.79494 19.6614C9.7853 19.6664 9.77568 19.6714 9.76599 19.6763C9.75638 19.6812 9.74671 19.6859 9.73703 19.6907C9.72739 19.6955 9.71779 19.7004 9.70808 19.705C9.69849 19.7096 9.68878 19.714 9.67914 19.7185C9.66948 19.723 9.65988 19.7276 9.65017 19.732C9.64058 19.7364 9.63087 19.7406 9.62123 19.7449L9.59226 19.7575L9.56332 19.7698C9.5537 19.7738 9.54401 19.7777 9.53435 19.7816C9.52471 19.7855 9.51509 19.7895 9.5054 19.7933C9.49581 19.7971 9.48612 19.8006 9.47646 19.8043C9.4668 19.8079 9.4572 19.8117 9.44749 19.8153C9.43788 19.8188 9.42821 19.8222 9.41855 19.8256L9.38961 19.8358L9.36064 19.8457C9.35102 19.8489 9.34133 19.852 9.33169 19.8551C9.32203 19.8582 9.31244 19.8615 9.30273 19.8645C9.29313 19.8675 9.28342 19.8703 9.27378 19.8732L9.24484 19.8818L9.21587 19.89C9.20625 19.8927 9.19659 19.8952 9.18693 19.8978C9.17726 19.9004 9.16765 19.9031 9.15796 19.9056C9.14837 19.9081 9.13863 19.9103 9.12901 19.9127C9.11937 19.915 9.10973 19.9174 9.10007 19.9197L9.0711 19.9264L9.04216 19.9327C9.0325 19.9348 9.0229 19.937 9.01319 19.939C9.00358 19.941 8.99389 19.9426 8.98425 19.9445C8.97461 19.9464 8.96497 19.9483 8.9553 19.9501L8.92634 19.9553C8.91672 19.9569 8.90706 19.9585 8.89739 19.96C8.88773 19.9616 8.87811 19.9634 8.86845 19.9648C8.85883 19.9663 8.84914 19.9676 8.83948 19.969L8.81054 19.973C8.8009 19.9743 8.79126 19.9756 8.78157 19.9768C8.77195 19.978 8.76226 19.979 8.75262 19.9802C8.74296 19.9813 8.73335 19.9825 8.72366 19.9835C8.71404 19.9845 8.70438 19.9853 8.69471 19.9862L8.66577 19.9888C8.65611 19.9896 8.64649 19.9906 8.6368 19.9914C8.62719 19.9921 8.6175 19.9926 8.60786 19.9932L8.57891 19.995L8.54995 19.9965C8.54033 19.997 8.53064 19.9973 8.521 19.9976C8.51134 19.998 8.5017 19.9985 8.49203 19.9988C8.48242 19.999 8.47273 19.9991 8.46309 19.9993L8.43415 19.9997C8.4252 19.9997 8.41629 20 8.40729 20H8.40518H8.37624H8.34727H8.31832H8.28938H8.26041H8.23147H8.2025H8.17356H8.14461H8.11564H8.0867H8.05773H8.02879H7.99985H7.97088H7.94193H7.91299H7.88402H7.85508H7.82611H7.79717H7.76822H7.73926H7.71031H7.68134H7.6524H7.62346H7.59449H7.56554H7.53658H7.50763H7.47869H7.44972H7.42078H7.39181H7.36287H7.33392H7.30495H7.27601H7.24704H7.2181H7.18915H7.16019H7.13124H7.10228H7.07333H7.04439H7.01542H6.98648H6.95751H6.92856H6.89962H6.87065H6.84171H6.81277H6.7838H6.75485H6.72589H6.69694H6.668H6.63903H6.61009H6.58112H6.55217H6.52323H6.49426H6.46532H6.43635H6.40741H6.37846H6.3495H6.32055H6.29158H6.26264H6.2337H6.20473H6.17579H6.14682H6.11787H6.08893H6.05996H6.03102H6.00207H5.97311H5.94416H5.91519H5.88625H5.85731H5.82834H5.7994H5.77043H5.74148H5.71254H5.68357H5.65463H5.62566H5.59672H5.56777H5.53881H5.50986H5.48089H5.45195H5.42301H5.39404H5.36509H5.33613H5.30718H5.27824H5.24927H5.22033H5.19138H5.16242H5.13347H5.1045H5.07556H5.04662H5.01765H4.9887H4.95974H4.93079H4.90185H4.87288H4.84394H4.81497H4.78603H4.75708H4.72811H4.69917H4.6702H4.64126H4.61232H4.58335H4.5544H4.52544H4.49649H4.46755H4.43858H4.40964H4.38067H4.35172H4.32278H4.29381H4.26487H4.23593H4.20696H4.17801H4.14905H4.1201H4.09116H4.06219H4V13.6776C4 13.6776 4.0214 13.6835 4.06219 13.6938L4.09116 13.701L4.1201 13.7081L4.14905 13.715L4.17801 13.7219L4.20696 13.7286L4.23593 13.7352L4.26487 13.7417L4.29381 13.7482L4.32278 13.7545L4.35172 13.7608L4.38067 13.7669L4.40964 13.773L4.43858 13.779L4.46755 13.7849L4.49649 13.7908L4.52544 13.7966L4.5544 13.8023L4.58335 13.8079L4.61232 13.8135L4.64126 13.819L4.6702 13.8244L4.69917 13.8298L4.72811 13.835L4.75708 13.8402L4.78603 13.8454L4.81497 13.8505L4.84394 13.8555L4.87288 13.8604L4.90185 13.8653L4.93079 13.8701L4.95974 13.8748L4.9887 13.8795L5.01765 13.8841L5.04662 13.8887L5.07556 13.8932L5.1045 13.8976L5.13347 13.9019L5.16242 13.9062L5.19138 13.9105L5.22033 13.9146L5.24927 13.9187L5.27824 13.9228L5.30718 13.9268L5.33613 13.9307L5.36509 13.9345L5.39404 13.9383L5.42301 13.9421L5.45195 13.9457L5.48089 13.9493L5.50986 13.9529L5.53881 13.9564L5.56777 13.9598L5.59672 13.9631L5.62566 13.9664L5.65463 13.9697L5.68357 13.9728L5.71254 13.9759L5.74148 13.979L5.77043 13.982L5.7994 13.9849L5.82834 13.9877L5.85731 13.9906L5.88625 13.9933L5.91519 13.996L5.94416 13.9986L5.97311 14.0011L6.00207 14.0036L6.03102 14.006L6.05996 14.0084L6.08893 14.0107L6.11787 14.0129L6.14682 14.0151L6.17579 14.0172L6.20473 14.0192L6.2337 14.0212L6.26264 14.0231L6.29158 14.025L6.32055 14.0268L6.3495 14.0285L6.37846 14.0302L6.40741 14.0318L6.43635 14.0333L6.46532 14.0348L6.49426 14.0362L6.52323 14.0375L6.55217 14.0388L6.58112 14.04L6.61009 14.0412L6.63903 14.0422L6.668 14.0432L6.69694 14.0442L6.72589 14.045L6.75485 14.0459L6.7838 14.0466L6.81277 14.0472L6.84171 14.0479L6.87065 14.0484L6.89962 14.0489L6.92856 14.0493L6.95751 14.0496L6.98648 14.0499L7.01542 14.0501L7.04439 14.0502L7.07333 14.0503L7.08451 14.0503L7.10228 14.0502L7.13124 14.05L7.16019 14.0499L7.18915 14.0497L7.2181 14.0495L7.24704 14.049L7.27601 14.0485L7.30495 14.048L7.33392 14.0474L7.36287 14.0467L7.39181 14.0458L7.42078 14.0449L7.44972 14.044L7.47869 14.0431L7.50763 14.0418L7.53658 14.0405L7.56554 14.0392L7.59449 14.038L7.62346 14.0363L7.6524 14.0347L7.68134 14.033L7.71031 14.0313L7.73926 14.0294L7.76822 14.0273L7.79717 14.0253L7.82611 14.0232L7.85508 14.0209L7.88402 14.0184L7.91299 14.0159L7.94193 14.0134L7.97088 14.0106L7.99985 14.0077L8.02879 14.0048L8.05773 14.0018L8.0867 13.9986L8.11564 13.9952L8.14461 13.9918L8.17356 13.9884L8.2025 13.9846L8.23147 13.9808L8.26041 13.9769L8.28938 13.973C8.29914 13.9716 8.30864 13.9701 8.31832 13.9686L8.34727 13.9643L8.37624 13.9599L8.40518 13.9553C8.41492 13.9538 8.42446 13.9521 8.43415 13.9505L8.46309 13.9456C8.47268 13.944 8.48251 13.9424 8.49203 13.9408C8.50179 13.939 8.51129 13.9372 8.521 13.9354L8.54995 13.93L8.57891 13.9246L8.60786 13.9189C8.61759 13.917 8.62714 13.915 8.6368 13.913L8.66577 13.907L8.69471 13.901C8.7045 13.8989 8.71397 13.8966 8.72366 13.8945L8.75262 13.888C8.76222 13.8857 8.77205 13.8837 8.78157 13.8815C8.79135 13.8791 8.80085 13.8767 8.81054 13.8744L8.83948 13.8673C8.8491 13.8649 8.8589 13.8626 8.86845 13.8602C8.87818 13.8577 8.88775 13.8551 8.89739 13.8526L8.92634 13.8449C8.93598 13.8423 8.94576 13.8397 8.9553 13.8371C8.96504 13.8344 8.97461 13.8317 8.98425 13.8289L9.01319 13.8205C9.02283 13.8177 9.03262 13.815 9.04216 13.8121L9.0711 13.8033L9.10007 13.7942C9.10969 13.7912 9.11949 13.7882 9.12901 13.7851L9.15796 13.7755L9.18693 13.7657C9.19654 13.7624 9.20637 13.7593 9.21587 13.7559C9.22565 13.7525 9.23515 13.7489 9.24484 13.7454L9.27378 13.7349C9.28342 13.7313 9.29318 13.7278 9.30273 13.7242C9.31251 13.7205 9.32203 13.7167 9.33169 13.7129C9.34136 13.7091 9.35109 13.7054 9.36064 13.7016L9.38961 13.6898L9.41855 13.6777C9.42816 13.6736 9.438 13.6697 9.44749 13.6656C9.4573 13.6613 9.46677 13.6569 9.47646 13.6525L9.5054 13.6396L9.53435 13.6261C9.54408 13.6215 9.5537 13.6169 9.56332 13.6122C9.57296 13.6075 9.58276 13.6029 9.59226 13.5982C9.60207 13.5933 9.61156 13.5883 9.62123 13.5833C9.63089 13.5784 9.64065 13.5735 9.65017 13.5685C9.65996 13.5633 9.6695 13.5581 9.67914 13.5529C9.68885 13.5476 9.69851 13.5423 9.70808 13.537C9.71782 13.5316 9.72746 13.5261 9.73703 13.5206C9.74679 13.515 9.7564 13.5093 9.76599 13.5036C9.77568 13.4979 9.78539 13.4922 9.79494 13.4864C9.80472 13.4804 9.81429 13.4743 9.82391 13.4683C9.83359 13.4622 9.84333 13.4561 9.85285 13.45C9.86263 13.4436 9.87218 13.4371 9.88179 13.4307C9.89148 13.4242 9.90124 13.4178 9.91076 13.4112C9.92057 13.4044 9.93009 13.3975 9.9397 13.3907C9.94939 13.3838 9.95915 13.3768 9.96865 13.3698C9.97846 13.3626 9.98803 13.3553 9.99762 13.3479C10.0074 13.3405 10.017 13.3331 10.0266 13.3256C10.0363 13.3179 10.046 13.3101 10.0555 13.3022C10.0653 13.2942 10.0749 13.2861 10.0845 13.2781C10.0942 13.2698 10.1039 13.2616 10.1134 13.2532C10.1233 13.2446 10.1328 13.2358 10.1424 13.227C10.1521 13.2181 10.1619 13.2093 10.1713 13.2003C10.1812 13.1909 10.1908 13.1815 10.2003 13.1721C10.2101 13.1624 10.2197 13.1526 10.2292 13.1428C10.239 13.1327 10.2487 13.1227 10.2582 13.1126C10.268 13.1019 10.2776 13.0912 10.2872 13.0804C10.297 13.0693 10.3066 13.0582 10.3161 13.047C10.3259 13.0354 10.3356 13.0239 10.3451 13.0121C10.3549 13 10.3646 12.9878 10.374 12.9755C10.3839 12.9626 10.3935 12.9496 10.403 12.9366C10.4128 12.923 10.4224 12.9093 10.4319 12.8955C10.4418 12.8812 10.4514 12.8667 10.4609 12.8521C10.4707 12.8369 10.4804 12.8215 10.4898 12.806C10.4997 12.7896 10.5094 12.7732 10.5188 12.7566C10.5287 12.739 10.5384 12.7213 10.5477 12.7034C10.5577 12.6843 10.5674 12.6651 10.5767 12.6457C10.5867 12.6249 10.5963 12.6038 10.6056 12.5827C10.6157 12.5597 10.6254 12.5366 10.6346 12.5132C10.6447 12.4875 10.6544 12.4615 10.6635 12.4353C10.6739 12.4056 10.6835 12.3756 10.6925 12.3453C10.703 12.31 10.7127 12.2742 10.7215 12.2381C10.7324 12.1934 10.7421 12.1481 10.7504 12.1024C10.7628 12.0342 10.7724 11.965 10.7793 11.8949C10.7891 11.7971 10.7938 11.6975 10.7938 11.5964V8.11564H10.7793H10.7504H10.7215H10.6925H10.6635H10.6346H10.6056H10.5767H10.5477H10.5188H10.4898H10.4609H10.4319H10.403H10.374H10.3451H10.3161H10.2872H10.2582H10.2292H10.2003H10.1713H10.1424H10.1134H10.0845H10.0555H10.0266H9.99762H9.96865H9.9397H9.91076H9.88179H9.85285H9.82391H9.79494H9.76599H9.73703H9.70808H9.67914H9.65017H9.62123H9.59226H9.56332H9.53435H9.5054H9.47646H9.44749H9.41855H9.38961H9.36064H9.33169H9.30273H9.27378H9.24484H9.21587H9.18693H9.15796H9.12901H9.10007H9.0711H9.04216H9.01319H8.98425H8.9553H8.92634H8.89739H8.86845H8.83948H8.81054H8.78157H8.75262H8.72366H8.69471H8.66577H8.6368H8.60786H8.57891H8.54995H8.521H8.49203H8.46309H8.43415H8.40518H8.37624H8.34727H8.31832H8.28938H8.26041H8.23147H8.20952V11.5964C8.20952 11.6509 8.20714 11.7045 8.2025 11.7571C8.19659 11.8241 8.1869 11.8894 8.17356 11.9529C8.16531 11.9921 8.15565 12.0306 8.14461 12.0684C8.13581 12.0985 8.1262 12.1281 8.11564 12.1572C8.10665 12.182 8.09697 12.2064 8.0867 12.2304C8.07754 12.2519 8.0679 12.273 8.05773 12.2938C8.04848 12.3128 8.03889 12.3315 8.02879 12.3499C8.01951 12.3669 8.0098 12.3835 7.99985 12.4C7.99049 12.4154 7.98085 12.4307 7.97088 12.4458C7.9615 12.4599 7.95184 12.4738 7.94193 12.4875C7.93251 12.5006 7.92292 12.5136 7.91299 12.5263C7.90357 12.5384 7.89388 12.5503 7.88402 12.562C7.87457 12.5733 7.86493 12.5844 7.85508 12.5954C7.84561 12.6059 7.83597 12.6164 7.82611 12.6266C7.81662 12.6365 7.807 12.6463 7.79717 12.6559C7.78767 12.6652 7.77803 12.6744 7.76822 12.6834C7.75873 12.6922 7.74904 12.7007 7.73926 12.7092C7.72976 12.7175 7.7201 12.7256 7.71031 12.7336C7.70079 12.7414 7.6911 12.749 7.68134 12.7566C7.67182 12.7639 7.66216 12.7712 7.6524 12.7783C7.64286 12.7853 7.63322 12.7921 7.62346 12.7989C7.61391 12.8055 7.60427 12.812 7.59449 12.8184C7.58494 12.8246 7.5753 12.8308 7.56554 12.8368C7.556 12.8427 7.54634 12.8485 7.53658 12.8542C7.52703 12.8598 7.51737 12.8653 7.50763 12.8707C7.49809 12.876 7.48843 12.8812 7.47869 12.8863C7.46912 12.8914 7.45948 12.8963 7.44972 12.9011C7.44015 12.9059 7.43051 12.9106 7.42078 12.9152C7.41119 12.9197 7.40157 12.9242 7.39181 12.9285C7.38222 12.9328 7.3726 12.937 7.36287 12.9411C7.35332 12.9451 7.34363 12.949 7.33392 12.9529C7.32435 12.9567 7.31467 12.9604 7.30495 12.9641C7.29536 12.9677 7.28575 12.9712 7.27601 12.9747C7.26642 12.9781 7.25678 12.9815 7.24704 12.9847C7.23747 12.9879 7.22781 12.991 7.2181 12.9941C7.20853 12.9971 7.19884 12.9999 7.18915 13.0028C7.17956 13.0056 7.1699 13.0084 7.16019 13.0111C7.15057 13.0137 7.14096 13.0164 7.13124 13.0189C7.12165 13.0213 7.11199 13.0237 7.10228 13.026C7.09271 13.0283 7.08304 13.0306 7.07333 13.0327C7.06374 13.0349 7.0541 13.037 7.04439 13.039C7.03477 13.041 7.02516 13.0429 7.01542 13.0448C7.00583 13.0466 6.99616 13.0483 6.98648 13.05C6.97686 13.0517 6.96722 13.0534 6.95751 13.0549L6.92856 13.0593C6.91897 13.0607 6.90931 13.062 6.89962 13.0633C6.89 13.0645 6.88039 13.0658 6.87065 13.0669L6.84171 13.0701C6.83212 13.0711 6.82245 13.072 6.81277 13.0729C6.80313 13.0737 6.79351 13.0746 6.7838 13.0754C6.77421 13.0761 6.76454 13.0768 6.75485 13.0774C6.74524 13.078 6.73557 13.0785 6.72589 13.079C6.71625 13.0795 6.70665 13.08 6.69694 13.0804C6.68735 13.0808 6.67766 13.081 6.668 13.0813L6.63903 13.082C6.62944 13.0822 6.61977 13.0822 6.61009 13.0823L6.5992 13.0824L6.58112 13.0823L6.55217 13.0821L6.52323 13.0817L6.49426 13.0811L6.46532 13.0803L6.43635 13.0794L6.40741 13.0782L6.37846 13.0769L6.3495 13.0754L6.32055 13.0737L6.29158 13.0718L6.26264 13.0698L6.2337 13.0675L6.20473 13.0651L6.17579 13.0625L6.14682 13.0597L6.11787 13.0568L6.08893 13.0536L6.05996 13.0504L6.03102 13.0469L6.00207 13.0432L5.97311 13.0394L5.94416 13.0354L5.91519 13.0312L5.88625 13.0268L5.85731 13.0223L5.82834 13.0176L5.7994 13.0128L5.77043 13.0078L5.74148 13.0025L5.71254 12.9972L5.68357 12.9917L5.65463 12.986L5.62566 12.9801L5.59672 12.9741L5.56777 12.9679L5.53881 12.9615L5.50986 12.955L5.48089 12.9484L5.45195 12.9415L5.42301 12.9345L5.39404 12.9274L5.36509 12.9201L5.33613 12.9126L5.30718 12.9049L5.27824 12.8972L5.24927 12.8892L5.22033 12.8811L5.19138 12.8729L5.16242 12.8645L5.13347 12.8559L5.1045 12.8472L5.07556 12.8384L5.04662 12.8293L5.01765 12.8202L4.9887 12.8109L4.95974 12.8015L4.93079 12.7918L4.90185 12.7821L4.87288 12.7722L4.84394 12.7622L4.81497 12.7519L4.78603 12.7416L4.75708 12.7312L4.72811 12.7206L4.69917 12.7098L4.6702 12.6989L4.64126 12.6879L4.61232 12.6767L4.58335 12.6654L4.5544 12.654L4.52544 12.6424L4.49649 12.6307L4.46755 12.6188L4.43858 12.6068L4.40964 12.5947L4.38067 12.5824L4.35172 12.57L4.32278 12.5575L4.29381 12.5448L4.26487 12.5321L4.23593 12.5192L4.20696 12.5061L4.17801 12.493L4.14905 12.4797L4.1201 12.4663L4.09116 12.4527L4.06219 12.439V12.439Z" fill="#265797"/>
<path fill-rule="evenodd" clip-rule="evenodd" d="M12.476 8.87621C12.4549 8.89325 12.4342 8.91043 12.4139 8.92783V5.00022C12.4139 4.79136 12.4353 4.58748 12.476 4.39062C12.4848 4.34835 12.4945 4.30648 12.505 4.26489C12.514 4.2292 12.5237 4.1938 12.5339 4.15864C12.5431 4.12732 12.5528 4.09622 12.5629 4.06533C12.5722 4.03711 12.5818 4.00903 12.5919 3.98119C12.6012 3.95539 12.6108 3.92971 12.6208 3.90425C12.6302 3.88044 12.6398 3.85675 12.6498 3.83323C12.6592 3.81106 12.6688 3.78903 12.6787 3.76712C12.6881 3.74631 12.6978 3.72565 12.7077 3.7051C12.7171 3.68547 12.7268 3.66603 12.7366 3.64664C12.7461 3.62802 12.7558 3.60954 12.7656 3.59113C12.7751 3.57339 12.7847 3.55578 12.7945 3.53826C12.804 3.52129 12.8137 3.5044 12.8235 3.48764C12.833 3.47137 12.8426 3.45517 12.8524 3.43909C12.8619 3.42357 12.8716 3.40813 12.8814 3.3928C12.8909 3.37787 12.9006 3.36311 12.9104 3.34838C12.9199 3.33395 12.9295 3.31963 12.9393 3.30539C12.9489 3.29143 12.9585 3.27746 12.9683 3.26368C12.9778 3.25034 12.9875 3.23721 12.9972 3.22406C13.0068 3.2111 13.0164 3.19821 13.0262 3.18542C13.0358 3.17282 13.0453 3.1602 13.0551 3.14777C13.0646 3.13569 13.0744 3.12379 13.0841 3.11186C13.0937 3.10008 13.1033 3.08834 13.113 3.07673C13.1226 3.06526 13.1322 3.05383 13.142 3.04253C13.1515 3.03149 13.1613 3.02059 13.1709 3.0097C13.1805 2.9989 13.1902 2.98805 13.1999 2.97737C13.2095 2.96693 13.2191 2.95661 13.2288 2.94632C13.2384 2.93614 13.2481 2.92604 13.2578 2.91598C13.2674 2.90607 13.277 2.89616 13.2867 2.88637C13.2963 2.87677 13.306 2.86729 13.3157 2.85781C13.3253 2.84838 13.3349 2.83887 13.3447 2.82956C13.3542 2.82046 13.3639 2.81158 13.3736 2.80261C13.3832 2.79366 13.3928 2.78468 13.4026 2.77587C13.4121 2.76723 13.4218 2.75874 13.4315 2.75022C13.4411 2.74172 13.4507 2.73325 13.4605 2.7249C13.4701 2.71667 13.4797 2.70858 13.4894 2.70047C13.499 2.69243 13.5087 2.68439 13.5184 2.67644C13.528 2.66862 13.5376 2.66087 13.5473 2.65316C13.557 2.64551 13.5666 2.6379 13.5763 2.63037C13.5859 2.62293 13.5956 2.61556 13.6052 2.60821C13.6149 2.60094 13.6245 2.59369 13.6342 2.58654C13.6438 2.57944 13.6535 2.57243 13.6632 2.56545C13.6728 2.55854 13.6824 2.55162 13.6921 2.54481C13.7017 2.53806 13.7114 2.53142 13.7211 2.52477C13.7307 2.51817 13.7403 2.51159 13.75 2.50511C13.7596 2.49871 13.7693 2.49239 13.779 2.48608C13.7886 2.47979 13.7982 2.47351 13.8079 2.46734C13.8175 2.46124 13.8272 2.45529 13.8369 2.44929C13.8465 2.44331 13.8561 2.43727 13.8658 2.43141C13.8754 2.4256 13.8851 2.41999 13.8948 2.4143C13.9045 2.40861 13.914 2.4028 13.9238 2.39724C13.9333 2.39174 13.9431 2.38646 13.9527 2.38106C13.9624 2.37566 13.9719 2.37021 13.9817 2.36493C13.9913 2.3597 14.0009 2.35466 14.0106 2.34953C14.0202 2.34441 14.0299 2.33928 14.0396 2.33426L14.0685 2.31955L14.0975 2.30518C14.1071 2.30047 14.1167 2.29572 14.1264 2.29111C14.136 2.28653 14.1457 2.28209 14.1554 2.2776C14.1651 2.27314 14.1746 2.26853 14.1843 2.26416C14.1939 2.25982 14.2036 2.25574 14.2133 2.25151C14.2229 2.24729 14.2326 2.24299 14.2423 2.23886C14.2519 2.23479 14.2615 2.23083 14.2712 2.22684L14.3002 2.21503C14.3098 2.21117 14.3194 2.20731 14.3291 2.20354C14.3387 2.19979 14.3484 2.19619 14.3581 2.19255C14.3677 2.1889 14.3773 2.18513 14.387 2.18158C14.3966 2.17807 14.4063 2.17481 14.416 2.1714C14.4256 2.168 14.4352 2.16454 14.4449 2.16123C14.4545 2.15792 14.4642 2.15475 14.4739 2.15156L14.5028 2.14217C14.5125 2.1391 14.5221 2.13596 14.5318 2.13296C14.5414 2.13 14.5511 2.12722 14.5608 2.12436C14.5704 2.12148 14.58 2.11853 14.5897 2.11575C14.5993 2.11299 14.609 2.11042 14.6187 2.10776L14.6476 2.09991C14.6573 2.09737 14.6669 2.09477 14.6766 2.09233C14.6862 2.0899 14.6959 2.08762 14.7055 2.08527C14.7152 2.08292 14.7248 2.08047 14.7345 2.07821C14.7441 2.07598 14.7538 2.07389 14.7634 2.07176L14.7924 2.06547C14.8021 2.06343 14.8117 2.06132 14.8213 2.05937C14.831 2.05743 14.8406 2.05568 14.8503 2.05383C14.86 2.05198 14.8696 2.05004 14.8793 2.04829L14.9082 2.04329L14.9372 2.03852C14.9468 2.03696 14.9564 2.0353 14.9661 2.03384C14.9758 2.03238 14.9854 2.03115 14.9951 2.02978C15.0047 2.02844 15.0144 2.02702 15.024 2.02575L15.053 2.02213L15.0819 2.01882C15.0916 2.01774 15.1012 2.01649 15.1109 2.0155C15.1205 2.01452 15.1302 2.0138 15.1398 2.01291L15.1688 2.01037C15.1785 2.00955 15.1881 2.00876 15.1978 2.00806C15.2074 2.00737 15.2171 2.00682 15.2267 2.00622C15.2364 2.00562 15.246 2.00492 15.2557 2.00439C15.2653 2.00386 15.275 2.0035 15.2846 2.00307L15.3136 2.00197C15.3232 2.00163 15.3329 2.00113 15.3425 2.00089C15.3522 2.00065 15.3619 2.00067 15.3715 2.00053C15.3812 2.00038 15.3908 2.00022 15.4005 2.00017L15.4132 2H15.4294H15.4584H15.4873H15.5163H15.5452H15.5742H15.6031H15.6321H15.6611H15.69H15.719H15.7479H15.7769H15.8058H15.8348H15.8637H15.8927H15.9216H15.9506H15.9795H16.0085H16.0374H16.0664H16.0954H16.1243H16.1533H16.1822H16.2112H16.2401H16.2691H16.2981H16.327H16.356H16.3849H16.4139H16.4428H16.4718H16.5007H16.5297H16.5586H16.5876H16.6166H16.6455H16.6745H16.7034H16.7324H16.7613H16.7903H16.8192H16.8482H16.8771H16.9061H16.9351H16.964H16.9929H17.0219H17.0509H17.0798H17.1088H17.1377H17.1667H17.1956H17.2246H17.2536H17.2825H17.3115H17.3404H17.3694H17.3983H17.4273H17.4562H17.4852H17.5142H17.5431H17.5721H17.601H17.63H17.6589H17.6879H17.7168H17.7458H17.7747H17.8037H17.8327H17.8616H17.8906H17.9195H17.9485H17.9774H18.0064H18.0353H18.0643H18.0932H18.1222H18.1512H18.1801H18.2091H18.238H18.267H18.2959H18.3249H18.3538H18.3828H18.4117H18.4407H18.4697H18.4986H18.5276H18.5565H18.5855H18.6144H18.6434H18.6723H18.7013H18.7302H18.7592H18.7882H18.8171H18.8461H18.875H18.904H18.933H18.9619H18.9908H19.0198H19.0488H19.0777H19.1067H19.1356H19.1646H19.1935H19.2225H19.2514H19.2804H19.3093H19.3383H19.3673H19.3962H19.4252H19.4541H19.4831H19.512H19.541H19.5699H19.5989H19.6278H19.6568H19.6858H19.7147H19.7437H19.7726H19.8016H19.8261V17C19.8261 17.1305 19.8178 17.2589 19.8016 17.3849C19.7938 17.4456 19.784 17.5057 19.7726 17.5652C19.764 17.6105 19.7543 17.6554 19.7437 17.7C19.7347 17.7375 19.7251 17.7747 19.7147 17.8117C19.7056 17.8441 19.6959 17.8763 19.6858 17.9083C19.6765 17.9372 19.6669 17.9659 19.6568 17.9945C19.6475 18.0209 19.6378 18.0472 19.6278 18.0733C19.6185 18.0976 19.6089 18.1218 19.5989 18.1458C19.5895 18.1685 19.5799 18.191 19.5699 18.2134C19.5605 18.2346 19.5509 18.2556 19.541 18.2766C19.5315 18.2966 19.5219 18.3165 19.512 18.3362C19.5026 18.3552 19.4929 18.374 19.4831 18.3927C19.4736 18.4108 19.464 18.4287 19.4541 18.4465C19.4446 18.4638 19.435 18.4809 19.4252 18.498C19.4157 18.5143 19.406 18.5306 19.3962 18.5468C19.3867 18.5626 19.377 18.5781 19.3673 18.5936C19.3577 18.6087 19.3481 18.6238 19.3383 18.6387C19.3287 18.6533 19.3192 18.668 19.3093 18.6824C19.2998 18.6964 19.2901 18.7103 19.2804 18.7241C19.2709 18.7376 19.2612 18.751 19.2514 18.7643C19.2419 18.7775 19.2322 18.7906 19.2225 18.8035C19.2129 18.8162 19.2033 18.8287 19.1935 18.8412C19.184 18.8535 19.1743 18.8656 19.1646 18.8776C19.155 18.8896 19.1454 18.9015 19.1356 18.9133C19.1261 18.9248 19.1164 18.9361 19.1067 18.9475C19.0971 18.9587 19.0875 18.9697 19.0777 18.9808C19.0681 18.9917 19.0585 19.0026 19.0488 19.0134C19.0392 19.0239 19.0295 19.0342 19.0198 19.0446C19.0102 19.0549 19.0006 19.0652 18.9908 19.0754C18.9813 19.0854 18.9716 19.0952 18.9619 19.105C18.9523 19.1147 18.9427 19.1243 18.933 19.1339C18.9234 19.1434 18.9137 19.1528 18.904 19.1622C18.8944 19.1714 18.8847 19.1804 18.875 19.1895C18.8654 19.1985 18.8558 19.2076 18.8461 19.2165C18.8365 19.2252 18.8268 19.2337 18.8171 19.2423C18.8075 19.2509 18.7979 19.2595 18.7882 19.2679C18.7786 19.2762 18.7689 19.2843 18.7592 19.2924C18.7496 19.3006 18.74 19.3088 18.7302 19.3168C18.7207 19.3246 18.7109 19.3323 18.7013 19.34C18.6917 19.3478 18.6821 19.3556 18.6723 19.3632C18.6628 19.3707 18.6531 19.378 18.6434 19.3853C18.6338 19.3927 18.6242 19.4001 18.6144 19.4073C18.6049 19.4144 18.5951 19.4214 18.5855 19.4284C18.5758 19.4354 18.5662 19.4425 18.5565 19.4493C18.5469 19.4561 18.5372 19.4627 18.5276 19.4694C18.5179 19.476 18.5083 19.4828 18.4986 19.4893C18.489 19.4958 18.4793 19.502 18.4697 19.5084C18.46 19.5147 18.4505 19.5212 18.4407 19.5274C18.4311 19.5335 18.4214 19.5394 18.4117 19.5455C18.4021 19.5515 18.3925 19.5576 18.3828 19.5635C18.3732 19.5693 18.3635 19.5749 18.3538 19.5807C18.3442 19.5864 18.3346 19.5922 18.3249 19.5978C18.3153 19.6033 18.3056 19.6088 18.2959 19.6142L18.267 19.6304L18.238 19.646L18.2091 19.6613C18.1994 19.6663 18.1898 19.6713 18.1801 19.6762C18.1705 19.6811 18.1608 19.6858 18.1512 19.6906C18.1415 19.6954 18.1319 19.7003 18.1222 19.7049C18.1126 19.7095 18.1029 19.7139 18.0932 19.7184C18.0836 19.723 18.074 19.7276 18.0643 19.732C18.0547 19.7363 18.045 19.7405 18.0353 19.7448L18.0064 19.7574L17.9774 19.7697L17.9485 19.7815C17.9388 19.7854 17.9292 19.7894 17.9195 19.7932C17.9099 19.797 17.9002 19.8005 17.8906 19.8042C17.8809 19.8079 17.8713 19.8116 17.8616 19.8152C17.852 19.8187 17.8423 19.8221 17.8327 19.8256L17.8037 19.8358L17.7747 19.8457C17.7651 19.8489 17.7554 19.8519 17.7458 19.855C17.7361 19.8582 17.7265 19.8614 17.7168 19.8644C17.7072 19.8674 17.6975 19.8702 17.6879 19.8731L17.6589 19.8817L17.63 19.8899C17.6203 19.8926 17.6107 19.8952 17.601 19.8977C17.5913 19.9003 17.5818 19.9031 17.5721 19.9056C17.5624 19.908 17.5528 19.9102 17.5431 19.9126C17.5335 19.915 17.5238 19.9174 17.5142 19.9197L17.4852 19.9263L17.4562 19.9326C17.4466 19.9347 17.437 19.9369 17.4273 19.9389C17.4177 19.9409 17.408 19.9426 17.3983 19.9445L17.3694 19.95L17.3404 19.9552C17.3308 19.9569 17.3211 19.9584 17.3115 19.96C17.3018 19.9616 17.2922 19.9633 17.2825 19.9648C17.2729 19.9663 17.2632 19.9676 17.2536 19.9689L17.2246 19.973C17.215 19.9743 17.2053 19.9756 17.1956 19.9768C17.186 19.978 17.1763 19.979 17.1667 19.9801C17.157 19.9812 17.1474 19.9824 17.1377 19.9834C17.1281 19.9844 17.1185 19.9853 17.1088 19.9862L17.0798 19.9888C17.0702 19.9896 17.0606 19.9906 17.0509 19.9913C17.0413 19.9921 17.0316 19.9925 17.0219 19.9932L16.9929 19.995L16.964 19.9965C16.9544 19.997 16.9447 19.9973 16.9351 19.9976C16.9254 19.998 16.9158 19.9984 16.9061 19.9987C16.8965 19.999 16.8868 19.9991 16.8771 19.9993L16.8482 19.9997C16.8392 19.9997 16.8302 20 16.8212 20H16.8192H16.7903H16.7613H16.7324H16.7034H16.6745H16.6455H16.6166H16.5876H16.5586H16.5297H16.5007H16.4718H16.4428H16.4139H16.3849H16.356H16.327H16.2981H16.2691H16.2401H16.2112H16.1822H16.1533H16.1243H16.0954H16.0664H16.0374H16.0085H15.9795H15.9506H15.9216H15.8927H15.8637H15.8348H15.8058H15.7769H15.7479H15.719H15.69H15.6611H15.6321H15.6031H15.5742H15.5452H15.5163H15.4873H15.4584H15.4294H15.4005H15.3715H15.3425H15.3136H15.2846H15.2557H15.2267H15.1978H15.1688H15.1398H15.1109H15.0819H15.053H15.024H14.9951H14.9661H14.9372H14.9082H14.8793H14.8503H14.8213H14.7924H14.7634H14.7345H14.7055H14.6766H14.6476H14.6187H14.5897H14.5608H14.5318H14.5028H14.4739H14.4449H14.416H14.387H14.3581H14.3291H14.3002H14.2712H14.2423H14.2133H14.1843H14.1554H14.1264H14.0975H14.0685H14.0396H14.0106H13.9817H13.9527H13.9238H13.8948H13.8658H13.8369H13.8079H13.779H13.75H13.7211H13.6921H13.6632H13.6342H13.6052H13.5763H13.5473H13.5184H13.4894H13.4605H13.4315H13.4026H13.3736H13.3447H13.3157H13.2867H13.2578H13.2288H13.1999H13.1709H13.142H13.113H13.0841H13.0551H13.0262H12.9972H12.9683H12.9393H12.9104H12.8814H12.8524H12.8235H12.7945H12.7656H12.7366H12.7077H12.6787H12.6498H12.6208H12.5919H12.5629H12.5339H12.505H12.476H12.4139V13.0734C12.4342 13.0907 12.4549 13.1079 12.476 13.1249C12.4856 13.1327 12.4953 13.1404 12.505 13.148C12.5146 13.1555 12.5242 13.163 12.5339 13.1705C12.5436 13.1778 12.5532 13.1852 12.5629 13.1925C12.5725 13.1996 12.5822 13.2066 12.5919 13.2137C12.6014 13.2207 12.6111 13.2276 12.6208 13.2345C12.6304 13.2413 12.64 13.2481 12.6498 13.2548L12.6787 13.2746C12.6883 13.2811 12.698 13.2875 12.7077 13.2939L12.7366 13.3127C12.7462 13.3189 12.7559 13.3251 12.7656 13.3312C12.7751 13.3372 12.7848 13.3431 12.7945 13.3491L12.8235 13.3667C12.8331 13.3724 12.8427 13.3782 12.8524 13.3839C12.862 13.3895 12.8717 13.395 12.8814 13.4006L12.9104 13.417L12.9393 13.433L12.9683 13.4487C12.9779 13.4538 12.9875 13.459 12.9972 13.4641C13.0068 13.4691 13.0165 13.474 13.0262 13.479L13.0551 13.4936L13.0841 13.508L13.113 13.522C13.1227 13.5266 13.1323 13.5313 13.142 13.5358L13.1709 13.5492L13.1999 13.5624L13.2288 13.5752L13.2578 13.5878L13.2867 13.6001L13.3157 13.6122L13.3447 13.624L13.3736 13.6356L13.4026 13.647L13.4315 13.658C13.4412 13.6616 13.4507 13.6653 13.4605 13.6689L13.4894 13.6794C13.4991 13.683 13.5087 13.6865 13.5184 13.69C13.528 13.6934 13.5377 13.6967 13.5473 13.7L13.5763 13.7101L13.6052 13.7198C13.6149 13.723 13.6245 13.7263 13.6342 13.7295C13.6438 13.7326 13.6535 13.7356 13.6632 13.7387L13.6921 13.748L13.7211 13.7569L13.75 13.7657L13.779 13.7742L13.8079 13.7827L13.8369 13.7909L13.8658 13.799L13.8948 13.8069L13.9238 13.8146L13.9527 13.8221L13.9817 13.8295L14.0106 13.8368L14.0396 13.8438L14.0685 13.8508L14.0975 13.8575L14.1264 13.8641L14.1554 13.8705L14.1843 13.8768L14.2133 13.883L14.2423 13.889L14.2712 13.895L14.3002 13.9006L14.3291 13.9063L14.3581 13.9117L14.387 13.9171L14.416 13.9223L14.4449 13.9274L14.4739 13.9324L14.5028 13.9372L14.5318 13.9419L14.5608 13.9465L14.5897 13.9509L14.6187 13.9553L14.6476 13.9596L14.6766 13.9637L14.7055 13.9678L14.7345 13.9716L14.7634 13.9754L14.7924 13.9791L14.8213 13.9826L14.8503 13.9862L14.8793 13.9895L14.9082 13.9927L14.9372 13.996L14.9661 13.9989L14.9951 14.0019L15.024 14.0048L15.053 14.0075L15.0819 14.0102L15.1109 14.0128L15.1398 14.0152L15.1688 14.0176L15.1978 14.0199L15.2267 14.0221L15.2557 14.0243L15.2846 14.0262L15.3136 14.0282L15.3425 14.0301L15.3715 14.0318L15.4005 14.0334L15.4294 14.0351L15.4584 14.0365L15.4873 14.038L15.5163 14.0394L15.5452 14.0405L15.5742 14.0417L15.6031 14.0429L15.6321 14.0439L15.6611 14.0448L15.69 14.0458L15.719 14.0465L15.7479 14.0472L15.7769 14.0479L15.8058 14.0484L15.8348 14.0489L15.8637 14.0494L15.8927 14.0497L15.9216 14.05L15.9506 14.0502L15.9795 14.0503L16.0085 14.0504L16.0374 14.0504L16.0664 14.0504L16.0954 14.0502L16.1243 14.05L16.1533 14.0498L16.1822 14.0494L16.2112 14.049L16.2401 14.0486L16.2691 14.048L16.2981 14.0475L16.327 14.0469L16.356 14.0461L16.3849 14.0453L16.4139 14.0445L16.4428 14.0436L16.4718 14.0426L16.5007 14.0416L16.5297 14.0406L16.5586 14.0394L16.5876 14.0382L16.6166 14.037L16.6307 14.0364L16.6455 14.0357L16.6745 14.0343L16.7034 14.0328L16.7324 14.0312L16.7613 14.0295L16.7903 14.0277L16.8192 14.0257L16.8482 14.0238L16.8771 14.0216L16.9061 14.0195L16.9351 14.0172L16.964 14.0148L16.9929 14.0123L17.0219 14.0098L17.0509 14.0072L17.0798 14.0044L17.1088 14.0017L17.1377 13.9988L17.1667 13.9959L17.1956 13.9928L17.2246 13.9897L17.2536 13.9865L17.2825 13.9833L17.3115 13.9799L17.3404 13.9765L17.3694 13.973L17.3983 13.9695L17.4273 13.9659L17.4562 13.9622L17.4852 13.9584L17.5142 13.9546L17.5431 13.9507L17.5721 13.9467L17.601 13.9427L17.63 13.9386L17.6589 13.9344L17.6879 13.9302L17.7168 13.9259L17.7458 13.9216L17.7747 13.9172L17.8037 13.9127L17.8327 13.9082L17.8616 13.9036L17.8906 13.8989L17.9195 13.8942L17.9485 13.8894L17.9774 13.8846L18.0064 13.8797L18.0353 13.8748L18.0643 13.8697L18.0932 13.8647L18.1222 13.8595L18.1512 13.8544L18.1801 13.8491L18.2091 13.8438L18.238 13.8385L18.267 13.8331L18.2959 13.8276L18.3249 13.8221L18.3538 13.8165L18.3828 13.8109L18.4117 13.8052L18.4407 13.7994L18.4697 13.7936L18.4986 13.7878L18.5276 13.7819L18.5565 13.7759L18.5855 13.7698L18.6144 13.7638L18.6434 13.7576L18.6723 13.7514L18.7013 13.7451L18.7302 13.7388L18.7592 13.7323L18.7882 13.7259L18.8171 13.7193L18.8461 13.7127L18.875 13.706L18.904 13.6992L18.933 13.6924L18.9619 13.6854L18.9907 13.6783V12.4093L18.9619 12.4236L18.933 12.4378L18.904 12.452L18.875 12.466L18.8461 12.4799L18.8171 12.4937L18.7882 12.5073L18.7592 12.5207L18.7302 12.5341L18.7013 12.5473L18.6723 12.5603L18.6434 12.5732L18.6144 12.5859L18.5855 12.5985L18.5565 12.611L18.5276 12.6232L18.4986 12.6354L18.4697 12.6474L18.4407 12.6592L18.4117 12.6709L18.3828 12.6824L18.3538 12.6938L18.3249 12.7049L18.2959 12.7159L18.267 12.7268L18.238 12.7375L18.2091 12.748L18.1801 12.7584L18.1512 12.7687L18.1222 12.7787L18.0932 12.7886L18.0643 12.7983L18.0353 12.8079L18.0064 12.8173L17.9774 12.8265L17.9485 12.8356L17.9195 12.8444L17.8906 12.8532L17.8616 12.8618L17.8327 12.8702L17.8037 12.8784L17.7747 12.8865L17.7458 12.8944L17.7168 12.9021L17.6879 12.9097L17.6589 12.9171L17.63 12.9244L17.601 12.9315L17.5721 12.9384L17.5431 12.9452L17.5142 12.9518L17.4852 12.9582L17.4562 12.9645L17.4273 12.9706L17.3983 12.9766L17.3694 12.9824L17.3404 12.988L17.3115 12.9935L17.2825 12.9988L17.2536 13.0039L17.2246 13.009L17.1956 13.0138L17.1667 13.0184L17.1377 13.023L17.1088 13.0273L17.0798 13.0315L17.0509 13.0356L17.0219 13.0395L16.9929 13.0432L16.964 13.0468L16.9351 13.0503L16.9061 13.0535L16.8771 13.0567L16.8482 13.0597L16.8192 13.0625L16.7903 13.0651L16.7613 13.0677L16.7324 13.07L16.7148 13.0714L16.7034 13.0722L16.6745 13.0741L16.6455 13.0761L16.6166 13.0776L16.5876 13.0791L16.5586 13.0804L16.5297 13.0814L16.5007 13.0823L16.4718 13.0829L16.4428 13.0834L16.4139 13.0837C16.4042 13.0838 16.3946 13.0836 16.3849 13.0836L16.356 13.0835L16.327 13.0831L16.2981 13.0825L16.2691 13.0817C16.2594 13.0814 16.2498 13.0809 16.2401 13.0805C16.2305 13.0802 16.2208 13.0799 16.2112 13.0794L16.1822 13.0778L16.1533 13.076L16.1243 13.074L16.0954 13.0717C16.0857 13.0709 16.076 13.0703 16.0664 13.0694C16.0567 13.0685 16.0471 13.0674 16.0374 13.0665L16.0085 13.0636L15.9795 13.0602L15.9506 13.0567L15.9216 13.0529L15.8927 13.0488C15.883 13.0474 15.8733 13.046 15.8637 13.0445C15.854 13.043 15.8444 13.0413 15.8348 13.0397C15.8251 13.0381 15.8154 13.0366 15.8058 13.0349C15.7961 13.0332 15.7865 13.0313 15.7769 13.0295C15.7672 13.0277 15.7575 13.026 15.7479 13.0241C15.7382 13.0222 15.7286 13.0201 15.719 13.0181C15.7093 13.016 15.6996 13.0141 15.69 13.012C15.6803 13.0098 15.6707 13.0076 15.6611 13.0053L15.6321 12.9985C15.6224 12.9962 15.6128 12.9937 15.6031 12.9912C15.5935 12.9888 15.5838 12.9863 15.5742 12.9838C15.5645 12.9812 15.5548 12.9785 15.5452 12.9758C15.5355 12.9731 15.5259 12.9703 15.5163 12.9675C15.5065 12.9647 15.4969 12.9617 15.4873 12.9587C15.4776 12.9558 15.468 12.9528 15.4584 12.9497C15.4487 12.9466 15.439 12.9434 15.4294 12.9402C15.4197 12.9369 15.41 12.9337 15.4005 12.9304C15.3907 12.927 15.3811 12.9234 15.3715 12.9199C15.3618 12.9164 15.3521 12.9129 15.3425 12.9093C15.3328 12.9056 15.3232 12.9018 15.3136 12.898C15.3039 12.8941 15.2942 12.8904 15.2846 12.8865C15.2749 12.8825 15.2653 12.8783 15.2557 12.8741C15.246 12.87 15.2363 12.8659 15.2267 12.8616C15.217 12.8573 15.2074 12.8527 15.1978 12.8483C15.1881 12.8438 15.1784 12.8393 15.1688 12.8347C15.1591 12.8299 15.1494 12.8252 15.1398 12.8203C15.1301 12.8154 15.1205 12.8105 15.1109 12.8055C15.1012 12.8004 15.0915 12.7954 15.0819 12.7902C15.0722 12.7849 15.0626 12.7794 15.053 12.774C15.0433 12.7685 15.0336 12.763 15.024 12.7573C15.0143 12.7516 15.0047 12.7458 14.9951 12.7399C14.9853 12.7339 14.9757 12.7279 14.9661 12.7218C14.9564 12.7156 14.9467 12.7094 14.9372 12.7031C14.9274 12.6967 14.9178 12.69 14.9082 12.6833C14.8985 12.6766 14.8888 12.6698 14.8793 12.6629C14.8695 12.6559 14.8598 12.6489 14.8503 12.6418C14.8405 12.6344 14.8309 12.6269 14.8213 12.6194C14.8116 12.6118 14.802 12.6041 14.7924 12.5963C14.7827 12.5883 14.773 12.5805 14.7634 12.5723C14.7536 12.564 14.7441 12.5554 14.7345 12.5469C14.7247 12.5382 14.7151 12.5294 14.7055 12.5204C14.6958 12.5113 14.6861 12.5022 14.6766 12.4929C14.6668 12.4834 14.6571 12.4739 14.6476 12.4641C14.6378 12.4541 14.6282 12.4439 14.6187 12.4336C14.6089 12.4231 14.5992 12.4124 14.5897 12.4016C14.5799 12.3905 14.5702 12.3793 14.5608 12.368C14.551 12.3563 14.5413 12.3445 14.5318 12.3326C14.522 12.3203 14.5123 12.3078 14.5028 12.2952C14.493 12.2821 14.4833 12.2689 14.4739 12.2556C14.4641 12.2417 14.4544 12.2276 14.4449 12.2134C14.4351 12.1985 14.4254 12.1835 14.416 12.1683C14.4061 12.1524 14.3964 12.1362 14.387 12.12C14.3771 12.1028 14.3675 12.0854 14.3581 12.0678C14.3481 12.0491 14.3385 12.0302 14.3291 12.0111C14.3191 11.9908 14.3095 11.9701 14.3002 11.9493C14.2902 11.9268 14.2804 11.9042 14.2712 11.8811C14.261 11.8557 14.2515 11.8297 14.2423 11.8035C14.232 11.7744 14.2223 11.745 14.2133 11.7151C14.2029 11.6803 14.1932 11.645 14.1843 11.6091C14.1734 11.5645 14.1638 11.5188 14.1554 11.4724C14.1429 11.4035 14.1332 11.3327 14.1264 11.26C14.1186 11.176 14.1146 11.0895 14.1146 11.0005C14.1146 10.9114 14.1186 10.8249 14.1264 10.7408C14.1332 10.6681 14.1429 10.5972 14.1554 10.5283C14.1638 10.4819 14.1734 10.4362 14.1843 10.3915C14.1932 10.3556 14.2029 10.3203 14.2133 10.2855C14.2223 10.2556 14.232 10.2261 14.2423 10.197C14.2515 10.1708 14.261 10.1448 14.2712 10.1193C14.2804 10.0963 14.2902 10.0736 14.3002 10.0512C14.3095 10.0303 14.3191 10.0097 14.3291 9.98932C14.3385 9.97019 14.3481 9.95125 14.3581 9.93261C14.3675 9.91501 14.3771 9.89759 14.387 9.88041C14.3964 9.86409 14.4061 9.84794 14.416 9.832C14.4254 9.81679 14.4351 9.80176 14.4449 9.78691C14.4544 9.77268 14.4641 9.75864 14.4739 9.74472C14.4833 9.73135 14.493 9.71817 14.5028 9.70509C14.5123 9.69247 14.522 9.68001 14.5318 9.66765C14.5413 9.65573 14.551 9.64394 14.5608 9.63228C14.5702 9.62093 14.5799 9.60972 14.5897 9.59863C14.5992 9.58786 14.6089 9.57713 14.6187 9.56659C14.6282 9.55635 14.6378 9.54607 14.6476 9.53604C14.6571 9.52632 14.6668 9.51679 14.6766 9.50729C14.6861 9.498 14.6958 9.48884 14.7055 9.47974C14.7151 9.47084 14.7247 9.46196 14.7345 9.45324C14.7441 9.44473 14.7536 9.43618 14.7634 9.42783C14.773 9.41972 14.7827 9.4118 14.7924 9.40385C14.802 9.39605 14.8116 9.38835 14.8213 9.38072C14.8309 9.37318 14.8405 9.36567 14.8503 9.35833C14.8598 9.35118 14.8695 9.34419 14.8793 9.33721C14.8888 9.3303 14.8985 9.32353 14.9082 9.31678C14.9178 9.31014 14.9274 9.30344 14.9372 9.29696C14.9467 9.29063 14.9564 9.28448 14.9661 9.27831C14.9757 9.27219 14.9853 9.26612 14.9951 9.26017C15.0047 9.25429 15.0143 9.24846 15.024 9.24272C15.0336 9.23708 15.0433 9.23161 15.053 9.22612C15.0626 9.22067 15.0722 9.2152 15.0819 9.20989C15.0915 9.20468 15.1012 9.19964 15.1109 9.19458C15.1205 9.18956 15.1301 9.1846 15.1398 9.1797C15.1494 9.17488 15.1591 9.1701 15.1688 9.1654C15.1784 9.16077 15.1881 9.15625 15.1978 9.15174C15.2074 9.14728 15.217 9.14277 15.2267 9.13842C15.2363 9.13415 15.246 9.13005 15.2557 9.12589C15.2653 9.12174 15.2749 9.11757 15.2846 9.11356C15.2942 9.10962 15.3039 9.10585 15.3136 9.10204C15.3232 9.09822 15.3328 9.09438 15.3425 9.09069C15.3521 9.08706 15.3618 9.08358 15.3715 9.08006C15.3811 9.07655 15.3907 9.07302 15.4005 9.06962C15.41 9.06628 15.4197 9.06304 15.4294 9.0598C15.439 9.05658 15.4487 9.05337 15.4584 9.05025C15.468 9.04718 15.4776 9.0442 15.4873 9.04122C15.4969 9.03827 15.5065 9.03535 15.5163 9.03249L15.5452 9.02423C15.5548 9.02155 15.5645 9.01881 15.5742 9.01622C15.5838 9.01365 15.5935 9.0112 15.6031 9.00873C15.6128 9.00628 15.6224 9.00379 15.6321 9.00143L15.6611 8.99464C15.6707 8.99241 15.6803 8.99013 15.69 8.98799C15.6996 8.98588 15.7093 8.98391 15.719 8.9819C15.7286 8.97988 15.7382 8.97777 15.7479 8.97585C15.7575 8.97395 15.7672 8.97225 15.7769 8.97045C15.7865 8.96865 15.7961 8.96675 15.8058 8.96503C15.8154 8.96332 15.8251 8.96183 15.8348 8.96023C15.8444 8.95862 15.854 8.95696 15.8637 8.95545L15.8927 8.95116L15.9216 8.94703L15.9506 8.94321L15.9795 8.93971L16.0085 8.93635L16.0374 8.93344C16.0471 8.93248 16.0567 8.93143 16.0664 8.93054C16.076 8.92965 16.0857 8.92898 16.0954 8.92819L16.1243 8.92588L16.1533 8.92389L16.1822 8.92216L16.2112 8.92056C16.2208 8.92008 16.2305 8.91976 16.2401 8.91938C16.2498 8.919 16.2594 8.91852 16.2691 8.9182L16.2981 8.91746L16.327 8.91684L16.356 8.9164L16.3849 8.91631C16.3946 8.91628 16.4042 8.91616 16.4139 8.91621L16.4428 8.91657L16.4718 8.917L16.5007 8.91763L16.5297 8.91856L16.5586 8.9195L16.5876 8.92084L16.6166 8.92231L16.6455 8.92387L16.6745 8.92579L16.7034 8.92773L16.7148 8.9285L16.7324 8.92989L16.7613 8.9322L16.7903 8.93469L16.8192 8.93733L16.8482 8.94009L16.8771 8.94304L16.9061 8.94614L16.9351 8.94936L16.964 8.95274L16.9929 8.95629L17.0219 8.95996L17.0509 8.9638L17.0798 8.96783L17.1088 8.97196L17.1377 8.97626L17.1667 8.98075L17.1956 8.98538L17.2246 8.99013L17.2536 8.9951L17.2825 9.00021L17.3115 9.00547L17.3404 9.01087L17.3694 9.01646L17.3983 9.02219L17.4273 9.0281L17.4562 9.03417L17.4852 9.04041L17.5142 9.04682L17.5431 9.05334L17.5721 9.06006L17.601 9.06698L17.63 9.07403L17.6589 9.08123L17.6879 9.08862L17.7168 9.09618L17.7458 9.10389L17.7747 9.11178L17.8037 9.11985L17.8327 9.12805L17.8616 9.13645L17.8906 9.14502L17.9195 9.15376L17.9485 9.16264L17.9774 9.17168L18.0064 9.18092L18.0353 9.19033L18.0643 9.19991L18.0932 9.20965L18.1222 9.21954L18.1512 9.22959L18.1801 9.23987L18.2091 9.25028L18.238 9.26084L18.267 9.27159L18.2959 9.28251L18.3249 9.2936L18.3538 9.30483L18.3828 9.31623L18.4117 9.3278L18.4407 9.33954L18.4697 9.35144L18.4986 9.36351L18.5276 9.37573L18.5565 9.38811L18.5855 9.40064L18.6144 9.41333L18.6434 9.42615L18.6723 9.43916L18.7013 9.45231L18.7302 9.4656L18.7592 9.47904L18.7882 9.49265L18.8171 9.50638L18.8461 9.52025L18.875 9.53427L18.904 9.54843L18.933 9.56271L18.9619 9.57713L18.9907 9.59158V8.32163L18.9619 8.31453L18.933 8.30757L18.904 8.3007L18.875 8.29391L18.8461 8.28722L18.8171 8.28061L18.7882 8.27406L18.7592 8.26758L18.7302 8.2612L18.7013 8.25484L18.6723 8.24858L18.6434 8.24238L18.6144 8.23619L18.5855 8.23012L18.5565 8.2241L18.5276 8.21812L18.4986 8.21219L18.4697 8.20634L18.4407 8.20053L18.4117 8.19479L18.3828 8.18913L18.3538 8.18347L18.3249 8.1779L18.2959 8.17238L18.267 8.16693L18.238 8.16153L18.2091 8.15618L18.1801 8.1509L18.1512 8.14567L18.1222 8.14048L18.0932 8.13537L18.0643 8.13031L18.0353 8.12529L18.0064 8.12037L17.9774 8.11548L17.9485 8.11065L17.9195 8.10588L17.8906 8.10117L17.8616 8.09654L17.8327 8.09193L17.8037 8.08742L17.7747 8.08293L17.7458 8.07854L17.7168 8.0742L17.6879 8.0699L17.6589 8.0657L17.63 8.06155L17.601 8.05747L17.5721 8.05346L17.5431 8.0495L17.5142 8.04561L17.4852 8.04177L17.4562 8.03805L17.4273 8.03436L17.3983 8.03073L17.3694 8.02718L17.3404 8.02373L17.3115 8.02034L17.2825 8.01701L17.2536 8.01377L17.2246 8.01057L17.1956 8.0075L17.1667 8.00446L17.1377 8.00155L17.1088 7.99867L17.0798 7.99589L17.0509 7.99318L17.0219 7.99058L16.9929 7.98804L16.964 7.98559L16.9351 7.98324L16.9061 7.98096L16.8771 7.97882L16.8482 7.97669L16.8192 7.97474L16.7903 7.9728L16.7613 7.97105L16.7324 7.96932L16.7034 7.96774L16.6745 7.96622L16.6455 7.96483L16.6307 7.96414L16.6166 7.96354L16.5876 7.96234L16.5586 7.96114L16.5297 7.95994L16.5007 7.95893L16.4718 7.95794L16.4428 7.95694L16.4139 7.95607L16.3849 7.95526L16.356 7.95446L16.327 7.95372L16.2981 7.95312L16.2691 7.95254L16.2401 7.95194L16.2112 7.95156L16.1822 7.95118L16.1533 7.95079L16.1243 7.95055L16.0954 7.95041L16.0664 7.95024L16.0374 7.95017L16.0085 7.95022L15.9795 7.95026L15.9506 7.95036L15.9216 7.95062L15.8927 7.95091L15.8637 7.9512L15.8348 7.9517L15.8058 7.95218L15.7769 7.95269L15.7479 7.95341L15.719 7.95413L15.69 7.95485L15.6611 7.95578L15.6321 7.95674L15.6031 7.9577L15.5742 7.95888L15.5452 7.96008L15.5163 7.96126L15.4873 7.96267L15.4584 7.96411L15.4294 7.96553L15.4005 7.96718L15.3715 7.96886L15.3425 7.97054L15.3136 7.97246L15.2846 7.97441L15.2557 7.97635L15.2267 7.97856L15.1978 7.98074L15.1688 7.983L15.1398 7.98545L15.1109 7.98787L15.0819 7.99044L15.053 7.99315L15.024 7.99586L14.9951 7.99874L14.9661 8.00174L14.9372 8.00472L14.9082 8.00796L14.8793 8.0112L14.8503 8.01451L14.8213 8.01806L14.7924 8.02159L14.7634 8.02531L14.7345 8.02913L14.7055 8.03294L14.6766 8.03702L14.6476 8.04113L14.6187 8.04535L14.5897 8.04977L14.5608 8.05416L14.5318 8.05881L14.5028 8.06354L14.4739 8.06837L14.4449 8.07336L14.416 8.07837L14.387 8.08365L14.3581 8.089L14.3291 8.09448L14.3002 8.10012L14.2712 8.10578L14.2423 8.11176L14.2133 8.11773L14.1843 8.12392L14.1554 8.13024L14.1264 8.13667L14.0975 8.14332L14.0685 8.14999L14.0396 8.15699L14.0106 8.164L13.9817 8.17127L13.9527 8.17864L13.9238 8.18623L13.8948 8.19395L13.8658 8.20183L13.8369 8.20991L13.8079 8.21812L13.779 8.22659L13.75 8.23511L13.7211 8.24397L13.6921 8.25287L13.6632 8.26214C13.6535 8.26523 13.6438 8.26826 13.6342 8.2714L13.6052 8.28107C13.5956 8.28429 13.5859 8.28745 13.5763 8.29074L13.5473 8.30082L13.5184 8.3109C13.5087 8.31436 13.4991 8.31793 13.4894 8.32144C13.4798 8.32494 13.47 8.3284 13.4605 8.33197L13.4315 8.34294C13.4218 8.34661 13.4121 8.35021 13.4026 8.35393L13.3736 8.36536L13.3447 8.37688L13.3157 8.38876L13.2867 8.4008L13.2578 8.41314L13.2288 8.42576L13.1999 8.43858L13.1709 8.4518L13.142 8.46515C13.1323 8.46971 13.1227 8.47436 13.113 8.47897L13.0841 8.49296L13.0551 8.50734L13.0262 8.52202C13.0165 8.52699 13.0068 8.53191 12.9972 8.53693C12.9875 8.54202 12.9779 8.5472 12.9683 8.55236L12.9393 8.56801L12.9104 8.58401C12.9006 8.58946 12.891 8.59496 12.8814 8.60048C12.8717 8.60602 12.862 8.61154 12.8524 8.61716C12.8427 8.62285 12.8331 8.6286 12.8235 8.63437C12.8138 8.6402 12.8041 8.64608 12.7945 8.65198C12.7848 8.65793 12.7751 8.66388 12.7656 8.66988C12.7559 8.676 12.7462 8.6822 12.7366 8.68836L12.7077 8.70725C12.698 8.71366 12.6883 8.72002 12.6787 8.7265L12.6498 8.74632C12.64 8.75307 12.6304 8.75986 12.6208 8.76665C12.6111 8.77354 12.6014 8.78047 12.5919 8.78746C12.5822 8.79451 12.5725 8.80154 12.5629 8.80867C12.5532 8.81597 12.5436 8.82331 12.5339 8.83068C12.5242 8.83814 12.5146 8.84565 12.505 8.85319C12.4953 8.86082 12.4856 8.8685 12.476 8.87623V8.87621Z" fill="#CA4638"/>
</svg>
