<svg width="32" height="22" viewBox="0 0 32 22" fill="none" xmlns="http://www.w3.org/2000/svg">
<rect width="32" height="22" rx="2" fill="white"/>
<rect width="32" height="22" rx="2" fill="#016FD0"/>
<path d="M5.16003 7L2 14.9897H5.783L6.25198 13.7158H7.32397L7.79296 14.9897H11.957V14.0174L12.328 14.9897H14.482L14.853 13.9969V14.9897H23.5131L24.5661 13.7489L25.5521 14.9897L30.0001 15L26.83 11.0172L30.0001 7H25.6211L24.596 8.21788L23.6411 7H14.2201L13.4111 9.06222L12.5831 7H8.80802V7.93919L8.38807 7C8.38807 7 5.16003 7 5.16003 7ZM5.89202 8.13455H7.73603L9.83208 13.5524V8.13455H11.8521L13.4711 12.0191L14.9631 8.13455H16.9731V13.8677H15.7501L15.7401 9.37524L13.9571 13.8677H12.863L11.07 9.37524V13.8677H8.55401L8.07702 12.5824H5.50003L5.02403 13.8666H3.67598L5.89202 8.13455ZM18.092 8.13455H23.065L24.586 10.0117L26.1561 8.13455H27.6771L25.3661 11.016L27.6771 13.8643H26.0871L24.5661 11.9654L22.988 13.8643H18.092V8.13455ZM6.78908 9.10457L5.94006 11.3942H7.6371L6.78908 9.10457ZM19.3201 9.32161V10.3682H22.0331V11.5347H19.3201V12.6773H22.3631L23.7771 10.9944L22.4231 9.3206H19.3201V9.32161Z" fill="white"/>
</svg>
