<svg width="32" height="22" viewBox="0 0 32 22" fill="none" xmlns="http://www.w3.org/2000/svg">
<rect width="32" height="22" rx="2" fill="white"/>
<rect width="32" height="22" rx="2" fill="#0079BE"/>
<path fill-rule="evenodd" clip-rule="evenodd" d="M25 11.0608C25 6.88501 21.4425 3.99861 17.545 4H14.1907C10.2465 3.99861 7 6.88585 7 11.0608C7 14.8802 10.2465 18.0182 14.1907 17.9999H17.545C21.4425 18.0182 25 14.8794 25 11.0608Z" fill="white"/>
<path fill-rule="evenodd" clip-rule="evenodd" d="M14.2113 4.59131C10.6072 4.59244 7.68665 7.46048 7.68579 11.0002C7.68665 14.5393 10.6072 17.4071 14.2113 17.4082C17.8163 17.4071 20.7374 14.5393 20.738 11.0002C20.7374 7.46048 17.8163 4.59244 14.2113 4.59131Z" fill="#0079BE"/>
<path fill-rule="evenodd" clip-rule="evenodd" d="M10.0865 10.9832C10.09 9.25353 11.1903 7.77854 12.742 7.19243V14.7732C11.1903 14.1874 10.0899 12.7132 10.0865 10.9832ZM15.7026 14.7751V7.19238C17.2548 7.77707 18.3569 9.25294 18.3597 10.9835C18.3569 12.7145 17.2548 14.1893 15.7026 14.7751Z" fill="white"/>
</svg>
