<svg width="32" height="22" viewBox="0 0 32 22" fill="none" xmlns="http://www.w3.org/2000/svg">
<rect width="32" height="22" rx="2" fill="white"/>
<rect width="32" height="22" rx="2" fill="#961A1F"/>
<path fill-rule="evenodd" clip-rule="evenodd" d="M21.5373 11.9591C21.2118 12.292 20.2982 12.3865 20.3917 11.5908C20.4693 10.9299 21.158 10.7895 21.9045 10.8849C21.849 11.2464 21.7853 11.7055 21.5373 11.9591ZM20.5092 9.38109C20.4781 9.56341 20.4303 9.7284 20.3917 9.9028C20.7644 9.8052 21.9249 9.50586 22.0367 10.0255C22.0739 10.1982 22.0098 10.3817 21.9633 10.5166C20.9138 10.4128 20.0584 10.5949 19.8335 11.376C19.6828 11.8991 19.8504 12.4139 20.1714 12.5576C20.7895 12.8343 21.5414 12.5173 21.8017 12.0819C21.7747 12.2326 21.7491 12.3849 21.7576 12.5729H22.3011C22.3068 12.0292 22.3826 11.589 22.4626 11.0997C22.5309 10.683 22.6593 10.2706 22.6389 9.9028C22.5922 9.06059 21.2567 9.35851 20.5092 9.38109ZM25.9583 12.2199C25.5332 12.2295 25.3218 11.9546 25.3121 11.4987C25.2951 10.7004 25.6303 9.81355 26.3109 9.734C26.6277 9.697 26.8572 9.77398 27.0893 9.8568C26.8762 10.7535 26.9531 12.1977 25.9583 12.2199ZM27.3684 8C27.3143 8.49585 27.2419 8.9727 27.1481 9.42709C25.5989 8.91479 24.6487 10.1056 24.6658 11.5754C24.6692 11.8597 24.716 12.1416 24.8862 12.3427C25.1794 12.6892 26.0191 12.7721 26.4431 12.4809C26.5252 12.4245 26.609 12.3219 26.6634 12.2507C26.7043 12.1971 26.7692 12.0568 26.7808 12.0971C26.7586 12.2529 26.7253 12.3972 26.7222 12.5729H27.295C27.4053 10.9184 27.7467 9.5052 28 8H27.3684ZM11.197 11.9745C10.8591 12.3483 10.0284 12.3426 9.96329 11.7136C9.93489 11.4398 10.0325 11.1528 10.0808 10.8696C10.1296 10.5829 10.1647 10.3079 10.2129 10.0562C10.5458 9.63164 11.5238 9.58039 11.623 10.2865C11.7091 10.8995 11.4769 11.6648 11.197 11.9745ZM11.6965 9.38109C11.1619 9.17129 10.5104 9.42172 10.228 9.65994C10.2289 9.67043 10.2212 9.67185 10.2129 9.67263C10.2178 9.6684 10.223 9.66417 10.228 9.65994C10.2279 9.65904 10.2279 9.65827 10.2276 9.65732C10.2324 9.55483 10.2669 9.48351 10.2717 9.38109H9.72827C9.5018 10.9552 9.23324 12.4853 8.9498 14H9.58136C9.67278 13.4101 9.73317 12.7878 9.86047 12.2353C10.0047 12.8164 10.9465 12.7053 11.3439 12.4809C12.1639 12.0176 12.7964 9.81277 11.6965 9.38109ZM14.6928 10.4859H13.2093C13.2563 10.1296 13.5631 9.73799 14.0465 9.71869C14.5015 9.70051 14.8272 9.89321 14.6928 10.4859ZM14.0906 9.31972C13.6342 9.35642 13.2484 9.49364 12.9743 9.79543C12.638 10.1655 12.3657 10.9838 12.4455 11.7289C12.5593 12.792 13.8263 12.7539 14.8397 12.4962C14.8569 12.3096 14.9001 12.1501 14.9278 11.9745C14.5103 12.1377 13.7855 12.3655 13.3562 12.0819C13.032 11.8677 13.0301 11.3255 13.1359 10.8542C13.8169 10.8316 14.5248 10.8359 15.2068 10.8542C15.2501 10.5202 15.3739 10.156 15.2656 9.82612C15.1227 9.39056 14.6111 9.27777 14.0906 9.31972ZM8.53855 9.38109C8.52144 9.38365 8.52258 9.40534 8.52383 9.42709C8.38468 10.5144 8.19636 11.5505 7.9951 12.5729H8.62666C8.77842 11.4782 8.95225 10.4067 9.17011 9.38109H8.53855ZM25.0184 9.3964C24.4601 9.10486 23.9955 9.5941 23.814 9.88743C23.8657 9.73692 23.8686 9.53541 23.9168 9.38109H23.3586C23.2081 10.4771 23.0267 11.5407 22.8151 12.5729H23.4614C23.4655 12.1499 23.545 11.8369 23.6083 11.422C23.7434 10.5362 23.9416 9.56466 24.9303 9.8568C24.963 9.70695 24.9767 9.53696 25.0184 9.3964ZM17.9241 11.821C17.8659 11.6639 17.8508 11.4044 17.8653 11.2071C17.898 10.7637 18.0526 10.2239 18.2913 9.97954C18.6206 9.64224 19.2708 9.69807 19.7894 9.88743C19.8055 9.70481 19.8406 9.54196 19.8629 9.36577C19.0123 9.22063 18.2052 9.3109 17.7772 9.78006C17.3583 10.2393 17.0837 11.2949 17.2778 11.9591C17.5051 12.7363 18.5239 12.7785 19.3489 12.4809C19.3853 12.3246 19.4046 12.1505 19.437 11.9898C18.9862 12.2345 18.1244 12.3616 17.9241 11.821ZM17.5716 9.38109C17.0116 9.14478 16.5713 9.54411 16.3672 9.91817C16.4135 9.75176 16.4326 9.55686 16.47 9.38109H15.9118C15.7754 10.4867 15.5743 11.5246 15.3831 12.5729H16.0147C16.1032 11.9506 16.1415 11.1119 16.3378 10.5166C16.4948 10.041 16.9055 9.63575 17.4982 9.8568C17.5065 9.68133 17.5546 9.54739 17.5716 9.38109ZM7.39291 8.09206C7.30269 8.70368 7.20106 9.30339 7.09914 9.9028C6.44482 9.91001 5.77678 9.93659 5.14565 9.88743C5.26486 9.30107 5.35036 8.67937 5.46877 8.09206H4.76377C4.51138 9.58802 4.28181 11.1078 4 12.5729H4.7197C4.83263 11.8213 4.93818 11.062 5.08686 10.3478C5.70055 10.332 6.43598 10.3045 7.02569 10.3632C6.90412 11.1057 6.75718 11.8218 6.6438 12.5729H7.36354C7.59474 11.0549 7.83844 9.54989 8.1273 8.09206H7.39291ZM9.18482 8.76726C9.31075 8.67669 9.47288 8.26389 9.28765 8.09206C9.22896 8.03766 9.13076 8.02187 8.99388 8.04606C8.86687 8.06846 8.79382 8.11357 8.7442 8.18411C8.66436 8.29768 8.59124 8.64005 8.71477 8.76726C8.83511 8.89113 9.10469 8.82488 9.18482 8.76726Z" fill="white"/>
</svg>
