<svg width="32" height="22" viewBox="0 0 32 22" fill="none" xmlns="http://www.w3.org/2000/svg">
<rect width="32" height="22" rx="2" fill="white"/>
<path d="M12.4445 4.71094H19.4445V17.2887H12.4445V4.71094Z" fill="#FF5F00"/>
<path d="M12.8889 11C12.8889 8.44448 14.0889 6.17777 15.9333 4.71107C14.5778 3.64442 12.8668 3 11.0001 3C6.57772 3 3 6.57772 3 11C3 15.4222 6.57772 19 11 19C12.8667 19 14.5777 18.3556 15.9333 17.2888C14.0889 15.8444 12.8889 13.5555 12.8889 11Z" fill="#EB001B"/>
<path d="M28.8888 11C28.8888 15.4222 25.3111 19 20.8888 19C19.0222 19 17.3111 18.3556 15.9555 17.2888C17.8222 15.8222 19 13.5555 19 11C19 8.44448 17.7999 6.17777 15.9555 4.71107C17.311 3.64442 19.0222 3 20.8888 3C25.3111 3 28.8889 6.59999 28.8889 11H28.8888Z" fill="#F79E1B"/>
</svg>
