<svg width="32" height="22" viewBox="0 0 32 22" fill="none" xmlns="http://www.w3.org/2000/svg">
<rect width="32" height="22" rx="2" fill="white"/>
<path d="M32 17H0V19.9167C0 21.0673 0.932742 22 2.08334 22H29.9167C31.0673 22 32 21.0673 32 19.9167V17Z" fill="#FCB315"/>
<path d="M29.9167 0H2.08333C0.932741 0 0 0.93274 0 2.08333V5H32V2.08334C32 0.932741 31.0673 0 29.9167 0Z" fill="#0D357F"/>
<path d="M15.7493 7.49774L14.2207 14.6443H12.3718L13.9006 7.49774H15.7493ZM23.5276 12.1123L24.501 9.42858L25.0608 12.1123H23.5276ZM25.5915 14.6443H27.301L25.8074 7.49774H24.2304C23.8749 7.49774 23.5754 7.70385 23.4428 8.02163L20.6685 14.6443H22.6103L22.9957 13.5769H25.3674L25.5915 14.6443ZM20.7649 12.3111C20.7729 10.4251 18.1576 10.3205 18.175 9.47788C18.1807 9.22177 18.4249 8.94899 18.959 8.87927C19.2238 8.84511 19.9543 8.81761 20.7825 9.19913L21.1064 7.68302C20.6614 7.52219 20.089 7.36719 19.3769 7.36719C17.5492 7.36719 16.2633 8.33802 16.2531 9.72941C16.2414 10.7583 17.1717 11.3319 17.871 11.6746C18.5919 12.0248 18.8336 12.2496 18.8301 12.5625C18.8251 13.0419 18.255 13.2541 17.7244 13.2622C16.7943 13.2766 16.2553 13.0108 15.8256 12.8105L15.49 14.3772C15.9226 14.5752 16.72 14.7476 17.5454 14.7565C19.4885 14.7565 20.7592 13.7969 20.7649 12.3111ZM13.1075 7.49774L10.1118 14.6443H8.15763L6.68333 8.9408C6.59402 8.59011 6.51611 8.46122 6.2443 8.31302C5.79972 8.07149 5.06569 7.84566 4.42041 7.7051L4.46402 7.49774H7.61013C8.01083 7.49774 8.37139 7.76441 8.46305 8.22594L9.2418 12.3616L11.1651 7.49774H13.1075Z" fill="#0D357F"/>
</svg>
